<?xml version="1.0" encoding="utf-8"?>
<!-- Generator: Adobe Illustrator 24.1.2, SVG Export Plug-In . SVG Version: 6.00 Build 0)  -->
<svg version="1.1" id="Calque_1" xmlns="http://www.w3.org/2000/svg" xmlns:xlink="http://www.w3.org/1999/xlink" x="0px" y="0px"
	 viewBox="0 0 1644.9 345.1" style="enable-background:new 0 0 1644.9 345.1;" xml:space="preserve">
<style type="text/css">
	.st0{fill:url(#SVGID_1_);}
	.st1{fill:#FFAB91;}
	.st2{clip-path:url(#SVGID_3_);fill:#FE676F;}
	.st3{fill:#FE676F;}
	.st4{fill:#FFBD72;}
	.st5{fill:url(#SVGID_4_);}
	.st6{fill:url(#SVGID_5_);}
	.st7{fill:url(#SVGID_6_);}
	.st8{fill:url(#SVGID_7_);}
	.st9{fill:url(#SVGID_8_);}
	.st10{fill:url(#SVGID_9_);}
	.st11{fill:url(#SVGID_10_);}
	.st12{fill:url(#SVGID_11_);}
	.st13{fill:url(#SVGID_12_);}
	.st14{fill:url(#SVGID_13_);}
	.st15{clip-path:url(#SVGID_15_);fill:url(#b_1_);}
	.st16{clip-path:url(#SVGID_17_);fill:url(#a_2_);}
	.st17{clip-path:url(#SVGID_19_);fill:url(#k_1_);}
	.st18{clip-path:url(#SVGID_21_);fill:url(#u_2_);}
	.st19{fill:#FFFFFF;}
	.st20{font-family:'Montserrat-Regular';}
	.st21{font-size:177.2399px;}
</style>
<g>
	<g>
		
			<linearGradient id="SVGID_1_" gradientUnits="userSpaceOnUse" x1="6.1215" y1="291.8544" x2="249.2215" y2="291.8544" gradientTransform="matrix(1 0 0 1 0 -122)">
			<stop  offset="0.6199" style="stop-color:#FFBD72"/>
			<stop  offset="0.945" style="stop-color:#FE676F"/>
		</linearGradient>
		<path class="st0" d="M208.4,0.1c-22.6,0-40.9,18.3-40.9,40.9c8,0,13.6,0,20.4,0c0.3-5.4,4.7-9.7,10.2-9.7s9.9,4.3,10.2,9.7l0,0
			c0,78-132.2,71.4-132.2,142.8H76l0,0c-38.6,0.1-69.9,31.4-69.9,70c0,42.5,27.6,57,27.6,85.9h28.2c0-12,6.7-19.3,14.1-26.8
			c7.5,7.4,14.1,14.8,14.1,26.8h28.3c0-67,130.8-134.8,130.8-300.9C248,17.2,230.2,0.1,208.4,0.1z"/>
		<path class="st1" d="M249.1,38.2c0,0.2,0,0.4,0,0.6c0,0.7,0.1,1.4,0.1,2.2L249.1,38.2z"/>
	</g>
	<g>
		<g>
			<g>
				<g>
					<g>
						<defs>
							<path id="SVGID_2_" d="M206.8,36.2c39.9,66-12.6,158.2-24.9,192.9c88.3,0,152.2-202.8,161.9-232.5
								c-41.2,0-168.3,0.3-193.3,0.3c-16.3,0-15.2,35.4-12.4,69.6c0.6,7,36.3,12.2,45.9,4.4C201.1,57.1,206.8,56.6,206.8,36.2z"/>
						</defs>
						<clipPath id="SVGID_3_">
							<use xlink:href="#SVGID_2_"  style="overflow:visible;"/>
						</clipPath>
						<path class="st2" d="M208.4,0.1c-22.6,0-40.9,18.3-40.9,40.9c7.1,0,13.9,0,20.4,0c0.3-5.4,4.7-9.7,10.2-9.7s9.9,4.3,10.2,9.7
							l0,0c0,78-132.2,71.4-132.2,142.8H76l0,0c-38.6,0.1-69.9,31.4-69.9,70c0,42.5,27.6,57,27.6,85.9h28.2c0-12,6.7-19.3,14.1-26.8
							c7.5,7.4,14.1,14.8,14.1,26.8h28.3c0-67.1,130.8-134.6,130.8-301.5C249.1,15.6,231,0.1,208.4,0.1z"/>
					</g>
				</g>
			</g>
		</g>
	</g>
	<path class="st3" d="M156.7,184.8c0,23.3-18.9,42.2-42.2,42.2s-42.2-18.9-42.2-42.2H156.7z"/>
	<path class="st4" d="M157.7,183.8c0,22.6-18.3,40.9-40.9,40.9s-40.9-18.3-40.9-40.9H157.7z"/>
	<circle class="st3" cx="150.4" cy="160.4" r="8.2"/>
	
		<linearGradient id="SVGID_4_" gradientUnits="userSpaceOnUse" x1="9.085" y1="366.3141" x2="15.3305" y2="353.1373" gradientTransform="matrix(1 0 0 1 0 -122)">
		<stop  offset="0" style="stop-color:#FFBD72"/>
		<stop  offset="1" style="stop-color:#FE676F"/>
	</linearGradient>
	<path class="st5" d="M9.6,248.2c1-1.4,2.7-4,3.1-10.1c0.4-5.5,3.2-8.8,4.6-10.1c-2.2,0.9-5.6,3.3-6.6,8.2
		C9.8,240.9,10.9,242.1,9.6,248.2z"/>
	
		<linearGradient id="SVGID_5_" gradientUnits="userSpaceOnUse" x1="-26.4784" y1="525.0634" x2="-17.2653" y2="499.5624" gradientTransform="matrix(0.9974 7.200000e-02 -7.200000e-02 0.9974 65.1395 -263.7315)">
		<stop  offset="0.2949" style="stop-color:#FFBD72"/>
		<stop  offset="1" style="stop-color:#FE676F"/>
	</linearGradient>
	<path class="st6" d="M3.5,259.5c0.1-0.1,0.1-0.1,0.2-0.2c0.1-0.2,0.3-0.3,0.4-0.5c0.1-0.1,0.1-0.1,0.1-0.2c0.5-0.7,0.9-1.5,1.3-2.3
		c1-2.2,1.6-4.5,1.9-7c0.3-2.6,0.1-5.4,0.5-7.9c0.4-2.7,2-8.3,1.7-8.2c-0.9,0.4-1.5,1.2-2,2.1c-0.6,1-1.3,2-1.7,3.1
		c-0.9,2.5-1.3,5.3-1.4,8.1c-0.1,3-0.1,6.1-1,8.9c-0.8,2.6-3.7,7.3-3.4,7.2c1.3-0.6,2.2-1.7,3.1-2.7C3.3,259.8,3.4,259.7,3.5,259.5z
		"/>
	
		<linearGradient id="SVGID_6_" gradientUnits="userSpaceOnUse" x1="10.0343" y1="340.9036" x2="63.5849" y2="308.638" gradientTransform="matrix(1 0 0 1 0 -122)">
		<stop  offset="0" style="stop-color:#FFBD72"/>
		<stop  offset="0.5961" style="stop-color:#FE676F"/>
	</linearGradient>
	<path class="st7" d="M15,208.7c-1.4,3.1-2.2,6.3-2.6,9.6c-0.5,3.8-1,8-3.1,11.2c-0.2,0.3,0.2-0.2-0.7,0.9c-0.9,1.1-1,2-4.6,4.6
		c-0.1,0.1,0,0.4,0.2,0.4c5,0.7,9.8-3.2,12.6-6.9c1.9-2.4,2.9-5.3,3.9-8.1c1.4-4,2.9-7.8,5.8-10.9c5-5.3,11.7-6.6,18.5-8
		c6.2-1.2,11.8-3.2,15.9-8.2c4.2-5.1,5.8-12,5.6-18.5c0-0.3-0.3-0.4-0.5-0.1c-0.9,1.5-1.8,3-2.8,4.4c-1.3,1.8-2.9,3.3-4.7,4.6
		c-3,2.3-6.6,3.7-10.2,4.6c-3.5,0.9-7.1,1-10.7,1.4c-3.4,0.4-6.6,1.4-9.6,3C21.8,196,17.7,202.6,15,208.7z"/>
	<g>
		
			<linearGradient id="SVGID_7_" gradientUnits="userSpaceOnUse" x1="57.5664" y1="313.8451" x2="113.2253" y2="248.9553" gradientTransform="matrix(1 0 0 1 0 -122)">
			<stop  offset="0" style="stop-color:#FFBD72"/>
			<stop  offset="0.5884" style="stop-color:#FE676F"/>
		</linearGradient>
		<path class="st8" d="M61.5,151.2c0-2.7,7.5-10.4,10.6-10.4c-1.1,1.5-2.6,2.7-3.7,4.3c-0.3,0.4-0.5,0.8-0.8,1.2
			c-8.1,13.3-7.9,30.4-3.2,45.1c0.3,0.7,0.5,1.4,0.8,2.1c1.5,4.2,3.1,8.3,4.4,12.3c0.2,0.7,0.4,1.4,0.6,2.1s0.3,1.4,0.4,2.2
			c0.1,0.6,0.1,1.3,0.1,1.9c0,3.1-3,9.5-2.8,9.3c1-1.2,1.9-2.4,2.9-3.6c0.4-0.5,0.9-1,1.4-1.5l0,0c0.6-0.6,1.2-1.1,1.8-1.7
			c0.4-0.4,0.7-0.7,1.1-1.1c0.4-0.3,0.9-0.7,1.3-1.1c1.4-1.3,2.5-3,3.5-4.6c1.8-3.1,2.2-6.5,2.2-10.1c-0.1-3.6-0.6-7.3-1.5-10.8
			c-0.8-3-1.7-6-2.1-9.1c-0.1-0.5-0.1-1-0.2-1.6c-0.1-3.4,0.1-6.4,1.2-9.6c0.2-0.7,0.4-1.3,0.6-1.9c1.6-4.5,4.3-8.6,7.6-11.9
			c5.6-5.5,12.9-8.7,20.1-11.5c4.5-1.8,9-3.9,12.7-7.1c3.9-3.3,4.7-8.3,8.2-11.9c-5.3,2.8-12.6,4.7-18.3,4.6
			c-7.6-0.1-15.2,0.1-22.8,1.3c-6,0.9-12.3,2.7-17,6.7C68,136.5,61.5,144.3,61.5,151.2z"/>
		
			<linearGradient id="SVGID_8_" gradientUnits="userSpaceOnUse" x1="32.0306" y1="305.6036" x2="57.7202" y2="302.78" gradientTransform="matrix(1 0 0 1 0 -122)">
			<stop  offset="7.770000e-02" style="stop-color:#FFBD72"/>
			<stop  offset="0.8152" style="stop-color:#FE676F"/>
		</linearGradient>
		<path class="st9" d="M47.7,185.1c2.3,0,5.4-1.4,6.5-1.9c1-0.5,2.7-1.3,3.5-2.1c-2.2,0-7.5-2.1-11.3-2.1c-5.8,0-9.6,2.1-14.7,2.1
			C37.5,181.1,41.1,185.1,47.7,185.1z"/>
	</g>
	
		<linearGradient id="SVGID_9_" gradientUnits="userSpaceOnUse" x1="-46.8934" y1="649.8738" x2="-28.3135" y2="625.5071" gradientTransform="matrix(0.9884 0.1519 -0.1519 0.9884 146.5963 -416.7698)">
		<stop  offset="0" style="stop-color:#FFBD72"/>
		<stop  offset="1" style="stop-color:#FE676F"/>
	</linearGradient>
	<path class="st10" d="M2.9,225.5c2.3-2.2,6.5-6.1,9.7-16.9c2.9-9.7,9.3-14.6,12.4-16.3c-4.3,0.7-11.5,3.7-15.1,12
		S7.6,215.1,2.9,225.5z"/>
	
		<linearGradient id="SVGID_10_" gradientUnits="userSpaceOnUse" x1="2143.3953" y1="2823.7109" x2="2159.7883" y2="2790.1106" gradientTransform="matrix(0.1636 -0.9865 -0.9865 -0.1636 2462.2329 2779.2136)">
		<stop  offset="0" style="stop-color:#FFBD72"/>
		<stop  offset="0.6748" style="stop-color:#FE676F"/>
	</linearGradient>
	<path class="st11" d="M47.2,200.4c9-0.9,14.1-6.8,16.1-10.6c-2.6,2.3-9.2,6.9-19.4,6.7c-11.2-0.3-16.3,2.4-19.1,3.9
		C36.3,199,38.2,201.2,47.2,200.4z"/>
	
		<linearGradient id="SVGID_11_" gradientUnits="userSpaceOnUse" x1="65.5741" y1="304.5201" x2="92.2259" y2="280.472" gradientTransform="matrix(1 0 0 1 0 -122)">
		<stop  offset="0" style="stop-color:#FFBD72"/>
		<stop  offset="0.6225" style="stop-color:#FE676F"/>
	</linearGradient>
	<path class="st12" d="M71.2,190.2c2.2-2.7,6-7.7,7.7-19.9c1.5-11,7.7-17.3,10.7-19.7c-4.6,1.5-11.8,5.9-14.4,15.5
		C72.6,175.7,74.7,178.2,71.2,190.2z"/>
	
		<linearGradient id="SVGID_12_" gradientUnits="userSpaceOnUse" x1="17.5976" y1="1056.5668" x2="50.2845" y2="1027.0735" gradientTransform="matrix(0.9289 0.3703 -0.3703 0.9289 436.2956 -819.8776)">
		<stop  offset="0" style="stop-color:#FFBD72"/>
		<stop  offset="0.6225" style="stop-color:#FE676F"/>
	</linearGradient>
	<path class="st13" d="M64.4,179.4c3.7-2.1,10.3-6.1,17.8-19.2c6.8-11.8,16.6-16.2,21.1-17.6c-5.9-0.4-16.2,1.4-23.4,11.1
		C72.6,163.6,73.8,167.3,64.4,179.4z"/>
	
		<linearGradient id="SVGID_13_" gradientUnits="userSpaceOnUse" x1="77.1847" y1="1498.9869" x2="88.251" y2="1475.639" gradientTransform="matrix(0.8403 0.5421 -0.5421 0.8403 759.6838 -1082.3345)">
		<stop  offset="0" style="stop-color:#FFBD72"/>
		<stop  offset="1" style="stop-color:#FE676F"/>
	</linearGradient>
	<path class="st14" d="M9.1,225.3c2.8-1.2,7.9-3.4,14.4-12c5.9-7.8,13.3-10,16.6-10.6c-4.1-0.8-11.6-0.5-17.6,5.8
		S16.8,217.6,9.1,225.3z"/>
	<path class="st3" d="M93.2,290.9c-3.6,9.4-11.8,16.5-17.2,22.1c0.5,0.5,1.3,1.4,1.8,1.8C79.9,312.9,90.4,302.4,93.2,290.9z"/>
	<circle class="st3" cx="177.6" cy="41.4" r="10.2"/>
</g>
<g id="b_4_">
	<g>
		<g>
			<g>
				<defs>
					<path id="SVGID_14_" d="M282.9,339.7V0h65.8c13.2,0,25.5,0.9,37,2.7c11.4,1.8,22.5,7.1,33.3,15.8c11.4,9,20,20.4,25.9,34.2
						s8.8,27.9,8.8,42.4c0,15.3-2.9,28.7-8.8,40.1s-15.1,21.5-27.7,30.2c6.9,3.3,13,7.9,18.3,13.7c5.3,5.9,9.6,12.4,13.1,19.6
						c3.5,7.2,6.1,14.8,7.9,22.8s2.7,15.6,2.7,22.8c0,16.8-2.9,31.3-8.8,43.3s-13.7,21.9-23.6,29.7c-9.9,7.8-21.6,13.5-35.1,17.1
						s-27.9,5.4-43.3,5.4L282.9,339.7L282.9,339.7z M390.1,96.4c0-12.6-3.5-22.6-10.4-30S362.9,55.7,350,56.3v82.9
						c12.6,0,22.5-3.9,29.5-11.7C386.6,119.7,390.1,109.3,390.1,96.4z M392.8,236.5c0-13.2-3.8-24.1-11.5-32.7s-18.1-12.7-31.3-12.4
						v92c13.5,0.6,24-3.5,31.5-12.2C389.1,262.5,392.8,251,392.8,236.5z"/>
				</defs>
				<clipPath id="SVGID_15_">
					<use xlink:href="#SVGID_14_"  style="overflow:visible;"/>
				</clipPath>
				
					<linearGradient id="b_1_" gradientUnits="userSpaceOnUse" x1="406.0966" y1="-857.7206" x2="1005.2465" y2="-258.5706" gradientTransform="matrix(1 0 0 -1 0 -385.2911)">
					<stop  offset="0.1336" style="stop-color:#FE676F"/>
					<stop  offset="0.837" style="stop-color:#FFBD72"/>
				</linearGradient>
				<rect id="b" x="280.2" y="-0.8" class="st15" width="850.9" height="347.4"/>
			</g>
		</g>
	</g>
</g>
<g id="a_1_">
	<g>
		<g>
			<g>
				<defs>
					<path id="SVGID_16_" d="M614.3,0l81.6,339.7h-71.6l-12.6-57.2h-68l-12.2,57.2h-66.8L543.5,0H614.3z M584.5,138.8l-7.6-51.4H576
						l-7.2,51.4l-14.4,90.6h47.3L584.5,138.8z"/>
				</defs>
				<clipPath id="SVGID_17_">
					<use xlink:href="#SVGID_16_"  style="overflow:visible;"/>
				</clipPath>
				
					<linearGradient id="a_2_" gradientUnits="userSpaceOnUse" x1="406.0966" y1="-857.7206" x2="1005.2465" y2="-258.5706" gradientTransform="matrix(1 0 0 -1 0 -385.2911)">
					<stop  offset="0.1336" style="stop-color:#FE676F"/>
					<stop  offset="0.837" style="stop-color:#FFBD72"/>
				</linearGradient>
				<rect id="a" x="280.2" y="-0.8" class="st16" width="850.9" height="347.4"/>
			</g>
		</g>
	</g>
</g>
<g>
	<g>
		<g>
			<g>
				<defs>
					<polygon id="SVGID_18_" points="780.9,0 780.9,151.8 781.8,151.8 837.7,0 906.2,0 843.5,156.8 914.3,339.7 843.5,339.7 
						781.8,166.7 780.9,166.7 780.9,339.7 713.7,339.7 713.7,0 					"/>
				</defs>
				<clipPath id="SVGID_19_">
					<use xlink:href="#SVGID_18_"  style="overflow:visible;"/>
				</clipPath>
				
					<linearGradient id="k_1_" gradientUnits="userSpaceOnUse" x1="406.0966" y1="-857.7206" x2="1005.2465" y2="-258.5706" gradientTransform="matrix(1 0 0 -1 0 -385.2911)">
					<stop  offset="0.1336" style="stop-color:#FE676F"/>
					<stop  offset="0.837" style="stop-color:#FFBD72"/>
				</linearGradient>
				<rect id="k" x="280.2" y="-0.8" class="st17" width="850.9" height="347.4"/>
			</g>
		</g>
	</g>
</g>
<g id="u_1_">
	<g>
		<g>
			<g>
				<defs>
					<path id="SVGID_20_" d="M995.5,0v219.9c0,6.3,0,13.2,0,20.7s1,14.5,2.9,20.9c2,6.5,5.3,11.9,9.9,16.2
						c4.7,4.4,11.5,6.5,20.5,6.5c8.1,0,14.4-1.4,18.9-4.3s7.8-6.6,9.9-11.3c2.1-4.6,3.4-10,3.8-16s0.7-12.2,0.7-18.5V0h67.1v247.8
						c0,9-0.8,19.1-2.3,30.4c-1.5,11.3-5.5,21.9-11.9,31.8c-6.5,9.9-16.4,18.3-30,25c-13.5,6.8-32.4,10.1-56.8,10.1
						c-31.5,0-56.1-7.5-73.7-22.5s-26.4-38.5-26.4-70.3V0H995.5z"/>
				</defs>
				<clipPath id="SVGID_21_">
					<use xlink:href="#SVGID_20_"  style="overflow:visible;"/>
				</clipPath>
				
					<linearGradient id="u_2_" gradientUnits="userSpaceOnUse" x1="406.0966" y1="-857.7206" x2="1005.2465" y2="-258.5706" gradientTransform="matrix(1 0 0 -1 0 -385.2911)">
					<stop  offset="0.1336" style="stop-color:#FE676F"/>
					<stop  offset="0.837" style="stop-color:#FFBD72"/>
				</linearGradient>
				<rect id="u" x="280.2" y="-0.8" class="st18" width="850.9" height="347.4"/>
			</g>
		</g>
	</g>
</g>
<g>
	<path class="st3" d="M1560.1,170.1h-383.7c-46.7,0-84.8-38.2-84.8-84.8l0,0c0-46.7,38.2-84.8,84.8-84.8h383.7
		c46.7,0,84.8,38.2,84.8,84.8l0,0C1645,131.9,1606.8,170.1,1560.1,170.1z"/>
	<text transform="matrix(1 0 0 1 1168.076 143.9804)" class="st19 st20 st21">Beta</text>
</g>
</svg>
