<?xml version="1.0" encoding="utf-8"?>
<!-- Generator: Adobe Illustrator 24.1.2, SVG Export Plug-In . SVG Version: 6.00 Build 0)  -->
<svg version="1.1" id="Calque_1" xmlns="http://www.w3.org/2000/svg" xmlns:xlink="http://www.w3.org/1999/xlink" x="0px" y="0px"
	 viewBox="0 0 1673.9 347.4" style="enable-background:new 0 0 1673.9 347.4;" xml:space="preserve">
<style type="text/css">
	.st0{fill:url(#SVGID_1_);}
	.st1{fill:#FFAB91;}
	.st2{clip-path:url(#SVGID_3_);}
	.st3{fill:#FE676F;}
	.st4{fill:#FFBD72;}
	.st5{fill:url(#SVGID_4_);}
	.st6{fill:url(#SVGID_5_);}
	.st7{fill:url(#SVGID_6_);}
	.st8{fill:url(#SVGID_7_);}
	.st9{fill:url(#SVGID_8_);}
	.st10{fill:url(#SVGID_9_);}
	.st11{fill:url(#SVGID_10_);}
	.st12{fill:url(#SVGID_11_);}
	.st13{fill:url(#SVGID_12_);}
	.st14{fill:url(#SVGID_13_);}
	.st15{clip-path:url(#SVGID_15_);}
	.st16{fill:url(#b-2_1_);}
	.st17{clip-path:url(#SVGID_17_);}
	.st18{fill:url(#a-2_1_);}
	.st19{clip-path:url(#SVGID_19_);}
	.st20{fill:url(#k_1_);}
	.st21{clip-path:url(#SVGID_21_);}
	.st22{fill:url(#u-2_1_);}
	.st23{fill:#FFFFFF;}
</style>
<linearGradient id="SVGID_1_" gradientUnits="userSpaceOnUse" x1="12.28" y1="372.1" x2="255.38" y2="372.1" gradientTransform="matrix(1 0 0 -1 -8.000000e-02 542.8)">
	<stop  offset="0.62" style="stop-color:#FFBD72"/>
	<stop  offset="0.94" style="stop-color:#FE676F"/>
</linearGradient>
<path class="st0" d="M214.5,0.9c-22.6,0-40.9,18.3-40.9,40.9l0,0H194c0.2-5.6,5-10,10.7-9.7c5.3,0.2,9.5,4.5,9.7,9.7l0,0
	c0,78-132.2,71.4-132.2,142.8h-0.1c-38.6,0.1-69.9,31.4-69.9,70c0,42.5,27.6,57,27.6,85.9H68c0-12,6.7-19.3,14.1-26.8
	c7.5,7.4,14.1,14.8,14.1,26.8h28.3c0-67,130.8-134.8,130.8-300.9C254.1,17.9,236.2,0.9,214.5,0.9z"/>
<path class="st1" d="M255.2,39v0.6c0,0.7,0.1,1.4,0.1,2.2L255.2,39z"/>
<g>
	<g>
		<defs>
			<path id="SVGID_2_" d="M212.9,37c39.9,66-12.6,158.2-24.9,192.9c88.3,0,152.2-202.8,161.9-232.5c-41.2,0-168.3,0.3-193.3,0.3
				c-16.3,0-15.2,35.4-12.4,69.6c0.6,7,36.3,12.2,45.9,4.4C207.2,57.9,212.9,57.4,212.9,37z"/>
		</defs>
		<clipPath id="SVGID_3_">
			<use xlink:href="#SVGID_2_"  style="overflow:visible;"/>
		</clipPath>
		<g class="st2">
			<path class="st3" d="M214.5,0.9c-22.6,0-40.9,18.3-40.9,40.9l0,0H194c0.2-5.6,5-10,10.7-9.7c5.3,0.2,9.5,4.5,9.7,9.7l0,0
				c0,78-132.2,71.4-132.2,142.8h-0.1c-38.6,0.1-69.9,31.4-69.9,70c0,42.5,27.6,57,27.6,85.9H68c0-12,6.7-19.3,14.1-26.8
				c7.5,7.4,14.1,14.8,14.1,26.8h28.3c0-67.1,130.8-134.6,130.8-301.5C255.2,16.4,237.1,0.9,214.5,0.9z"/>
		</g>
	</g>
</g>
<path class="st3" d="M162.8,185.6c0,23.3-18.9,42.2-42.2,42.2s-42.2-18.9-42.2-42.2l0,0H162.8z"/>
<path class="st4" d="M163.8,184.6c0,22.6-18.3,40.9-40.9,40.9S82,207.2,82,184.6H163.8z"/>
<circle class="st3" cx="156.5" cy="161.2" r="8.2"/>
<linearGradient id="SVGID_4_" gradientUnits="userSpaceOnUse" x1="15.2652" y1="297.6868" x2="21.5052" y2="310.8568" gradientTransform="matrix(1 0 0 -1 -8.000000e-02 542.8)">
	<stop  offset="0" style="stop-color:#FFBD72"/>
	<stop  offset="1" style="stop-color:#FE676F"/>
</linearGradient>
<path class="st5" d="M15.7,249c1-1.4,2.7-4,3.1-10.1c0.2-3.8,1.9-7.4,4.6-10.1c-3.4,1.5-5.9,4.5-6.6,8.2
	C15.9,241.7,17,242.9,15.7,249z"/>
<linearGradient id="SVGID_5_" gradientUnits="userSpaceOnUse" x1="-19.8527" y1="-4.4944" x2="-10.6327" y2="21.0156" gradientTransform="matrix(1 7.000000e-02 7.000000e-02 -1 27.08 256.0882)">
	<stop  offset="0.29" style="stop-color:#FFBD72"/>
	<stop  offset="1" style="stop-color:#FE676F"/>
</linearGradient>
<path class="st6" d="M9.6,260.3l0.2-0.2c0.1-0.2,0.3-0.3,0.4-0.5c0.1-0.2,0.1-0.1,0.1-0.2c0.5-0.7,0.9-1.5,1.3-2.3
	c1-2.2,1.6-4.6,1.9-7c0.3-2.6,0.1-5.4,0.5-7.9c0.4-2.7,2-8.3,1.7-8.2c-0.9,0.5-1.6,1.2-2,2.1c-0.7,1-1.2,2-1.7,3.1
	c-0.9,2.6-1.3,5.3-1.4,8.1c-0.1,3-0.1,6.1-1,8.9c-0.8,2.6-3.7,7.3-3.4,7.2c1.2-0.7,2.3-1.6,3.1-2.7C9.4,260.6,9.5,260.5,9.6,260.3z"
	/>
<linearGradient id="SVGID_6_" gradientUnits="userSpaceOnUse" x1="16.2206" y1="323.0667" x2="69.7706" y2="355.3367" gradientTransform="matrix(1 0 0 -1 -8.000000e-02 542.8)">
	<stop  offset="0" style="stop-color:#FFBD72"/>
	<stop  offset="0.6" style="stop-color:#FE676F"/>
</linearGradient>
<path class="st7" d="M21.1,209.5c-1.4,3-2.2,6.3-2.6,9.6c-0.5,3.8-1,8-3.1,11.2c-0.2,0.3,0.2-0.2-0.7,0.9c-1.2,1.9-2.7,3.4-4.6,4.6
	c-0.1,0.1,0,0.3,0.1,0.4h0.1c5,0.7,9.8-3.2,12.6-6.9c1.9-2.4,2.9-5.3,3.9-8.1c1.4-4,2.9-7.8,5.8-10.9c5-5.3,11.7-6.6,18.5-8
	c6.2-1.2,11.8-3.2,15.9-8.2s5.8-12,5.6-18.5c0-0.3-0.3-0.4-0.5-0.1c-0.9,1.5-1.8,3-2.8,4.4c-1.3,1.8-2.9,3.3-4.7,4.6
	c-3.1,2.2-6.5,3.8-10.2,4.6c-3.5,0.9-7.1,1-10.7,1.4c-3.4,0.4-6.6,1.4-9.6,3C27.9,196.8,23.8,203.4,21.1,209.5z"/>
<linearGradient id="SVGID_7_" gradientUnits="userSpaceOnUse" x1="63.748" y1="350.1505" x2="119.408" y2="415.0405" gradientTransform="matrix(1 0 0 -1 -8.000000e-02 542.8)">
	<stop  offset="0" style="stop-color:#FFBD72"/>
	<stop  offset="0.59" style="stop-color:#FE676F"/>
</linearGradient>
<path class="st8" d="M67.6,152c0-2.7,7.5-10.4,10.6-10.4c-1.1,1.5-2.6,2.7-3.7,4.3c-0.3,0.4-0.5,0.8-0.8,1.2
	c-8.1,13.3-7.9,30.4-3.2,45.1c0.3,0.7,0.5,1.4,0.8,2.1c1.5,4.2,3.1,8.3,4.4,12.3l0.6,2.1c0.2,0.7,0.3,1.5,0.4,2.2
	c0.1,0.6,0.1,1.3,0.1,1.9c0,3.1-3,9.5-2.8,9.3c1-1.2,1.9-2.4,2.9-3.6c0.4-0.5,0.9-1,1.4-1.5l0,0c0.6-0.6,1.2-1.1,1.8-1.7l1.1-1.1
	c0.5-0.3,0.9-0.7,1.3-1.1c1.4-1.4,2.5-2.9,3.5-4.6c1.8-3.1,2.2-6.5,2.2-10.1c-0.1-3.6-0.6-7.3-1.5-10.8c-0.9-3-1.6-6-2.1-9.1
	c-0.1-0.5-0.1-1-0.2-1.6c-0.2-3.2,0.2-6.5,1.2-9.6c0.2-0.7,0.4-1.3,0.6-1.9c1.6-4.5,4.2-8.5,7.6-11.9c5.6-5.5,12.9-8.7,20.1-11.5
	c4.5-1.8,9-3.9,12.7-7.1c3.9-3.3,4.7-8.3,8.2-11.9c-5.7,2.9-11.9,4.5-18.3,4.6c-7.6-0.2-15.3,0.2-22.8,1.3c-6,0.9-12.3,2.7-17,6.7
	C74.1,137.3,67.6,145.1,67.6,152z"/>
<linearGradient id="SVGID_8_" gradientUnits="userSpaceOnUse" x1="38.2086" y1="358.349" x2="63.8967" y2="361.1798" gradientTransform="matrix(1 0 0 -1 -8.000000e-02 542.8)">
	<stop  offset="8.000000e-02" style="stop-color:#FFBD72"/>
	<stop  offset="0.82" style="stop-color:#FE676F"/>
</linearGradient>
<path class="st9" d="M53.8,185.9c2.3,0,5.4-1.4,6.5-1.9c1.3-0.5,2.4-1.2,3.5-2.1c-2.2,0-7.5-2.1-11.3-2.1c-5.8,0-9.6,2.1-14.7,2.1
	C43.6,181.9,47.2,185.9,53.8,185.9z"/>
<linearGradient id="SVGID_9_" gradientUnits="userSpaceOnUse" x1="-34.8794" y1="-292.8528" x2="-16.2994" y2="-268.4828" gradientTransform="matrix(0.99 0.15 0.15 -0.99 86.1517 -65.4353)">
	<stop  offset="0" style="stop-color:#FFBD72"/>
	<stop  offset="1" style="stop-color:#FE676F"/>
</linearGradient>
<path class="st10" d="M9,226.3c2.3-2.2,6.5-6.1,9.7-16.9c1.9-6.8,6.3-12.7,12.4-16.3c-6.7,1.2-12.4,5.7-15.1,12
	C12.4,213.4,13.7,215.9,9,226.3z"/>
<linearGradient id="SVGID_10_" gradientUnits="userSpaceOnUse" x1="3988.6667" y1="-4316.5938" x2="4005.0566" y2="-4282.9937" gradientTransform="matrix(0.16 -0.99 0.99 0.16 3653.4915 4847.7168)">
	<stop  offset="0" style="stop-color:#FFBD72"/>
	<stop  offset="0.67" style="stop-color:#FE676F"/>
</linearGradient>
<path class="st11" d="M53.3,201.2c6.8-0.6,12.8-4.6,16.1-10.6c-5.4,4.6-12.3,7-19.4,6.7c-11.2-0.3-16.3,2.4-19.1,3.9
	C42.4,199.8,44.3,202,53.3,201.2z"/>
<linearGradient id="SVGID_11_" gradientUnits="userSpaceOnUse" x1="71.7643" y1="359.4637" x2="98.4143" y2="383.5037" gradientTransform="matrix(1 0 0 -1 -8.000000e-02 542.8)">
	<stop  offset="0" style="stop-color:#FFBD72"/>
	<stop  offset="0.62" style="stop-color:#FE676F"/>
</linearGradient>
<path class="st12" d="M77.3,191c2.2-2.7,6-7.7,7.7-19.9c0.9-7.7,4.8-14.7,10.7-19.7c-7.1,2.4-12.5,8.2-14.4,15.5
	C78.7,176.5,80.8,179,77.3,191z"/>
<linearGradient id="SVGID_12_" gradientUnits="userSpaceOnUse" x1="121.4785" y1="-1155.0056" x2="154.1685" y2="-1125.5156" gradientTransform="matrix(0.93 0.37 0.37 -0.93 381.9118 -950.1823)">
	<stop  offset="0" style="stop-color:#FFBD72"/>
	<stop  offset="0.62" style="stop-color:#FE676F"/>
</linearGradient>
<path class="st13" d="M70.5,180.2c3.7-2.1,10.3-6.1,17.8-19.2c6.8-11.8,16.6-16.2,21.1-17.6c-9.2-0.5-18,3.7-23.4,11.1
	C78.7,164.4,79.9,168.1,70.5,180.2z"/>
<linearGradient id="SVGID_13_" gradientUnits="userSpaceOnUse" x1="334.4899" y1="-1959.6477" x2="345.5599" y2="-1936.2977" gradientTransform="matrix(0.84 0.54 0.54 -0.84 797.457 -1608.1311)">
	<stop  offset="0" style="stop-color:#FFBD72"/>
	<stop  offset="1" style="stop-color:#FE676F"/>
</linearGradient>
<path class="st14" d="M15.2,226.1c2.8-1.2,7.9-3.4,14.4-12c4-5.5,9.9-9.3,16.6-10.6c-6.5-1.2-13.1,1-17.6,5.8
	C22.6,215.6,22.9,218.4,15.2,226.1z"/>
<path class="st3" d="M99.3,291.7c-3.6,9.4-11.8,16.5-17.2,22.1c0.5,0.5,1.3,1.4,1.8,1.8C86,313.7,96.5,303.2,99.3,291.7z"/>
<circle class="st3" cx="183.7" cy="42.2" r="10.2"/>
<g id="b">
	<g>
		<g>
			<defs>
				<path id="SVGID_14_" d="M299,340.5V0.8h65.8c12.4-0.1,24.8,0.8,37,2.7c11.4,1.8,22.5,7.1,33.3,15.8c11.4,9,20.3,20.8,25.9,34.2
					c5.8,13.4,8.8,27.8,8.8,42.4c0,15.3-2.9,28.7-8.8,40.1s-15.1,21.5-27.7,30.2c6.9,3.3,13.1,8,18.3,13.7
					c5.3,5.9,9.7,12.5,13.1,19.6c6.8,14.3,10.4,29.8,10.6,45.6c0,16.8-2.9,31.3-8.8,43.3c-5.5,11.6-13.6,21.7-23.6,29.7
					c-10.4,8-22.4,13.9-35.1,17.1c-14.1,3.7-28.7,5.5-43.3,5.4L299,340.5z M406.2,97.2c0-12.6-3.5-22.6-10.4-30S379,56.5,366.1,57.1
					V140c12.6,0,22.5-3.9,29.5-11.7S406.2,110.1,406.2,97.2z M408.9,237.3c0-13.2-3.8-24.1-11.5-32.7s-18.1-12.7-31.3-12.4v92
					c13.5,0.6,24-3.5,31.5-12.2S408.9,251.8,408.9,237.3L408.9,237.3z"/>
			</defs>
			<clipPath id="SVGID_15_">
				<use xlink:href="#SVGID_14_"  style="overflow:visible;"/>
			</clipPath>
			<g class="st15">
				
					<linearGradient id="b-2_1_" gradientUnits="userSpaceOnUse" x1="422.2549" y1="1261.7649" x2="1021.405" y2="662.6151" gradientTransform="matrix(1 0 0 1 -8.000000e-02 -788.49)">
					<stop  offset="0.13" style="stop-color:#FE676F"/>
					<stop  offset="0.84" style="stop-color:#FFBD72"/>
				</linearGradient>
				<rect id="b-2" x="296.3" class="st16" width="850.9" height="347.4"/>
			</g>
		</g>
	</g>
</g>
<g id="a">
	<g>
		<g>
			<defs>
				<path id="SVGID_16_" d="M630.4,0.8L712,340.5h-71.6l-12.6-57.2h-68l-12.2,57.2h-66.8L559.6,0.8H630.4z M600.6,139.6L593,88.2
					h-0.9l-7.2,51.4l-14.4,90.6h47.3L600.6,139.6z"/>
			</defs>
			<clipPath id="SVGID_17_">
				<use xlink:href="#SVGID_16_"  style="overflow:visible;"/>
			</clipPath>
			<g class="st17">
				
					<linearGradient id="a-2_1_" gradientUnits="userSpaceOnUse" x1="422.2549" y1="1261.7649" x2="1021.405" y2="662.6151" gradientTransform="matrix(1 0 0 1 -8.000000e-02 -788.49)">
					<stop  offset="0.13" style="stop-color:#FE676F"/>
					<stop  offset="0.84" style="stop-color:#FFBD72"/>
				</linearGradient>
				<rect id="a-2" x="296.3" class="st18" width="850.9" height="347.4"/>
			</g>
		</g>
	</g>
</g>
<g>
	<g>
		<defs>
			<polygon id="SVGID_18_" points="797,0.8 797,152.6 797.9,152.6 853.8,0.8 922.3,0.8 859.6,157.6 930.4,340.5 859.6,340.5 
				797.9,167.5 797,167.5 797,340.5 729.8,340.5 729.8,0.8 			"/>
		</defs>
		<clipPath id="SVGID_19_">
			<use xlink:href="#SVGID_18_"  style="overflow:visible;"/>
		</clipPath>
		<g class="st19">
			
				<linearGradient id="k_1_" gradientUnits="userSpaceOnUse" x1="422.2549" y1="1261.7649" x2="1021.405" y2="662.6151" gradientTransform="matrix(1 0 0 1 -8.000000e-02 -788.49)">
				<stop  offset="0.13" style="stop-color:#FE676F"/>
				<stop  offset="0.84" style="stop-color:#FFBD72"/>
			</linearGradient>
			<rect id="k" x="296.3" class="st20" width="850.9" height="347.4"/>
		</g>
	</g>
</g>
<g id="u">
	<g>
		<g>
			<defs>
				<path id="SVGID_20_" d="M1011.6,0.8v240.6c0,7.1,0.9,14.1,2.9,20.9c1.8,6.2,5.2,11.8,9.9,16.2c4.7,4.4,11.5,6.5,20.5,6.5
					c8.1,0,14.4-1.4,18.9-4.3c4.4-2.7,7.8-6.6,9.9-11.3c2.2-5.1,3.5-10.5,3.8-16c0.4-6,0.7-12.2,0.7-18.5V0.8h67.1v247.8
					c-0.1,10.2-0.9,20.3-2.3,30.4c-1.5,11.4-5.6,22.2-11.9,31.8c-6.5,9.9-16.4,18.3-30,25s-32.4,10.1-56.8,10.1
					c-31.5,0-56.1-7.5-73.7-22.5c-17.6-15-26.4-38.5-26.4-70.3V0.8H1011.6z"/>
			</defs>
			<clipPath id="SVGID_21_">
				<use xlink:href="#SVGID_20_"  style="overflow:visible;"/>
			</clipPath>
			<g class="st21">
				
					<linearGradient id="u-2_1_" gradientUnits="userSpaceOnUse" x1="422.2549" y1="1261.7649" x2="1021.405" y2="662.6151" gradientTransform="matrix(1 0 0 1 -8.000000e-02 -788.49)">
					<stop  offset="0.13" style="stop-color:#FE676F"/>
					<stop  offset="0.84" style="stop-color:#FFBD72"/>
				</linearGradient>
				<rect id="u-2" x="296.3" class="st22" width="850.9" height="347.4"/>
			</g>
		</g>
	</g>
</g>
<path class="st3" d="M1576.2,170.4h-383.7c-46.8-0.1-84.7-38-84.8-84.8l0,0c0.1-46.8,38-84.7,84.8-84.8h383.7
	c46.8,0.1,84.7,38,84.8,84.8l0,0C1661.1,132.2,1622.9,170.4,1576.2,170.4z"/>
<path class="st23" d="M1296,51.2c0,14-8.3,24.5-21.8,27.7c16.7,2.8,26.6,14.7,26.6,31.4c0,21.3-17.2,34-45.2,34h-55.1v-124h53.9
	C1280.1,20.2,1296,31.9,1296,51.2z M1274.6,55c0-10.5-8-16.1-21.3-16.1h-31.9v32.8h31.9C1266.6,71.6,1274.6,65.4,1274.6,55
	L1274.6,55z M1279.3,107.6c0-11-9.8-17.5-26-17.5h-31.9v35.6h31.9C1269.6,125.7,1279.3,119.3,1279.3,107.6L1279.3,107.6z"/>
<path class="st23" d="M1407.3,104.9h-71.2c3.2,14.5,14.4,23.6,29.3,23.6c10,0.1,19.6-3.9,26.6-11l10.8,11.5c-9.2,10.1-22.7,16-39,16
	c-29.1,0-48.2-19.3-48.2-47.7c0-28.5,19.7-47.9,47.7-48C1396.3,49.3,1409.8,70.9,1407.3,104.9z M1389.6,90
	c-0.7-15.2-10.8-24.5-26.2-24.5c-14.9,0-25.5,9.4-27.7,24.5H1389.6z"/>
<path class="st23" d="M1481.9,138.3c-7.4,4.4-15.2,6.9-23.2,6.9c-14.2,0-26.4-8.1-26.4-27.5V68.8H1419V53.5h13.3V27.6h20.2v25.9
	h27.8v15.3h-27.8V114c0,9.8,3.7,12.8,10.1,12.8c4.3,0,8.7-1.4,14.2-4.1L1481.9,138.3z"/>
<path class="st23" d="M1557.3,144.3v-11.5c-6.7,8.3-17.6,12.4-31.2,12.4c-20.4,0-33.1-12.6-33.1-29.3c0-17.2,12.9-28.2,35.6-28.4
	h28.5v-2.9c0-11.9-7.6-19-22.5-19c-9,0-18.4,3.2-27.8,9.6l-8.3-14.2c13.1-7.8,22.7-11.9,40.6-11.9c24.3,0,37.9,12.4,38.1,33.1
	l0.2,61.9L1557.3,144.3z M1557.1,111.1v-8.7h-25.5c-13.3,0-19.5,3.5-19.5,12.6c0,8.5,6.9,14,18.3,14
	C1544.8,129,1556,121.4,1557.1,111.1L1557.1,111.1z"/>
<path id="ic_expand_less_24px" class="st4" d="M1407.6,348.8l92.5-92.5l-21.7-21.7l-70.8,70.6l-70.8-70.6l-21.7,21.7L1407.6,348.8z"
	/>
</svg>
