<?xml version="1.0" encoding="utf-8"?>
<!-- Generator: Adobe Illustrator 24.1.2, SVG Export Plug-In . SVG Version: 6.00 Build 0)  -->
<svg version="1.1" id="Calque_1" xmlns="http://www.w3.org/2000/svg" xmlns:xlink="http://www.w3.org/1999/xlink" x="0px" y="0px"
	 viewBox="0 0 600.7 543.5" style="enable-background:new 0 0 600.7 543.5;" xml:space="preserve">
<style type="text/css">
	.st0{fill:url(#SVGID_1_);}
	.st1{fill:#FFAB91;}
	.st2{clip-path:url(#SVGID_3_);fill:#FE676F;}
	.st3{fill:#FE676F;}
	.st4{fill:#FFBD72;}
	.st5{fill:url(#SVGID_4_);}
	.st6{fill:url(#SVGID_5_);}
	.st7{fill:url(#SVGID_6_);}
	.st8{fill:url(#SVGID_7_);}
	.st9{fill:url(#SVGID_8_);}
	.st10{fill:url(#SVGID_9_);}
	.st11{fill:url(#SVGID_10_);}
	.st12{fill:url(#SVGID_11_);}
	.st13{fill:url(#SVGID_12_);}
	.st14{fill:url(#SVGID_13_);}
	.st15{clip-path:url(#SVGID_15_);fill:url(#b_1_);}
	.st16{clip-path:url(#SVGID_17_);fill:url(#a_2_);}
	.st17{clip-path:url(#SVGID_19_);fill:url(#k_1_);}
	.st18{clip-path:url(#SVGID_21_);fill:url(#u_2_);}
	.st19{fill:#FFFFFF;}
	.st20{font-family:'Montserrat-Regular';}
	.st21{font-size:59.1496px;}
</style>
<g>
	<g>
		
			<linearGradient id="SVGID_1_" gradientUnits="userSpaceOnUse" x1="108.6316" y1="657.9601" x2="346.1316" y2="657.9601" gradientTransform="matrix(1 0 0 1 0 -492)">
			<stop  offset="0.6199" style="stop-color:#FFBD72"/>
			<stop  offset="0.945" style="stop-color:#FE676F"/>
		</linearGradient>
		<path class="st0" d="M306.3,0.1c-22,0-39.9,17.9-39.9,39.9c7.8,0,13.3,0,19.9,0c0.3-5.3,4.6-9.5,9.9-9.5s9.7,4.2,9.9,9.5l0,0
			c0,76.2-129.1,69.7-129.1,139.5h-0.1l0,0c-37.7,0.1-68.3,30.7-68.3,68.4c0,41.5,27,55.7,27,83.9h27.5c0-11.7,6.5-18.9,13.8-26.1
			c7.3,7.3,13.8,14.4,13.8,26.1h27.7c0-65.4,127.7-131.7,127.7-293.9C345,16.8,327.7,0.1,306.3,0.1z"/>
		<path class="st1" d="M346.1,37.3c0,0.2,0,0.4,0,0.6c0,0.7,0.1,1.4,0.1,2.1L346.1,37.3z"/>
	</g>
	<g>
		<g>
			<g>
				<g>
					<g>
						<defs>
							<path id="SVGID_2_" d="M304.8,35.4c39,64.5-12.3,154.5-24.4,188.4c86.2,0,148.7-198,158.1-227.1C398.3-3.3,274.1-3,249.7-3
								c-15.9,0-14.9,34.6-12.1,68c0.6,6.8,35.4,11.9,44.8,4.3C299.2,55.8,304.8,55.3,304.8,35.4z"/>
						</defs>
						<clipPath id="SVGID_3_">
							<use xlink:href="#SVGID_2_"  style="overflow:visible;"/>
						</clipPath>
						<path class="st2" d="M306.3,0.1c-22,0-39.9,17.9-39.9,39.9c6.9,0,13.6,0,19.9,0c0.3-5.3,4.6-9.5,9.9-9.5s9.7,4.2,9.9,9.5l0,0
							c0,76.2-129.1,69.7-129.1,139.5h-0.1l0,0c-37.7,0.1-68.3,30.7-68.3,68.4c0,41.5,27,55.7,27,83.9h27.5
							c0-11.7,6.5-18.9,13.8-26.1c7.3,7.3,13.8,14.4,13.8,26.1h27.7c0-65.5,127.7-131.5,127.7-294.5C346.1,15.3,328.4,0.1,306.3,0.1
							z"/>
					</g>
				</g>
			</g>
		</g>
	</g>
	<path class="st3" d="M255.8,180.5c0,22.8-18.5,41.2-41.2,41.2s-41.2-18.4-41.2-41.2H255.8z"/>
	<path class="st4" d="M256.8,179.5c0,22-17.9,39.9-39.9,39.9S177,201.5,177,179.5L256.8,179.5L256.8,179.5z"/>
	<ellipse transform="matrix(0.4641 -0.8858 0.8858 0.4641 -4.9619 305.187)" class="st3" cx="249.7" cy="156.7" rx="8" ry="8"/>
	
		<linearGradient id="SVGID_4_" gradientUnits="userSpaceOnUse" x1="111.7029" y1="730.6881" x2="117.8025" y2="717.8189" gradientTransform="matrix(1 0 0 1 0 -492)">
		<stop  offset="0" style="stop-color:#FFBD72"/>
		<stop  offset="1" style="stop-color:#FE676F"/>
	</linearGradient>
	<path class="st5" d="M112.2,242.4c0.9-1.4,2.6-3.9,3.1-9.9c0.4-5.4,3.1-8.6,4.5-9.9c-2.2,0.9-5.5,3.3-6.4,8
		C112.4,235.3,113.5,236.5,112.2,242.4z"/>
	
		<linearGradient id="SVGID_5_" gradientUnits="userSpaceOnUse" x1="69.2769" y1="729.6074" x2="78.2749" y2="704.7019" gradientTransform="matrix(0.9974 7.200000e-02 -7.200000e-02 0.9974 87.3236 -480.5164)">
		<stop  offset="0.2949" style="stop-color:#FFBD72"/>
		<stop  offset="1" style="stop-color:#FE676F"/>
	</linearGradient>
	<path class="st6" d="M106.3,253.5c0.1-0.1,0.1-0.1,0.2-0.2c0.1-0.2,0.3-0.3,0.4-0.5c0.1-0.1,0.1-0.1,0.1-0.2
		c0.5-0.7,0.9-1.4,1.3-2.2c1-2.1,1.6-4.4,1.8-6.9c0.3-2.5,0.1-5.2,0.5-7.7c0.4-2.6,2-8.1,1.7-8c-0.9,0.4-1.4,1.2-1.9,2
		c-0.6,1-1.2,2-1.6,3.1c-0.9,2.4-1.3,5.2-1.4,8c-0.1,2.9-0.1,6-1,8.6c-0.8,2.5-3.6,7.2-3.3,7c1.3-0.6,2.1-1.6,3-2.7
		C106,253.7,106.2,253.6,106.3,253.5z"/>
	
		<linearGradient id="SVGID_6_" gradientUnits="userSpaceOnUse" x1="112.6226" y1="705.8669" x2="164.9227" y2="674.3547" gradientTransform="matrix(1 0 0 1 0 -492)">
		<stop  offset="0" style="stop-color:#FFBD72"/>
		<stop  offset="0.5961" style="stop-color:#FE676F"/>
	</linearGradient>
	<path class="st7" d="M117.4,203.9c-1.3,3-2.1,6.1-2.5,9.4c-0.4,3.7-1,7.8-3.1,11c-0.2,0.3,0.2-0.2-0.7,0.9c-0.9,1.1-0.9,2-4.4,4.4
		c-0.1,0.1,0,0.4,0.2,0.4c4.9,0.7,9.5-3.1,12.3-6.8c1.8-2.3,2.8-5.1,3.8-7.9c1.4-3.9,2.8-7.6,5.7-10.7c4.9-5.2,11.4-6.5,18-7.8
		c6-1.2,11.5-3.1,15.5-8c4.1-5,5.7-11.7,5.5-18.1c0-0.3-0.3-0.3-0.5-0.1c-0.9,1.4-1.8,2.9-2.8,4.3c-1.3,1.7-2.9,3.2-4.6,4.5
		c-2.9,2.2-6.4,3.6-10,4.5c-3.4,0.9-7,1-10.5,1.4c-3.3,0.4-6.4,1.4-9.4,3C124.2,191.4,120.1,197.9,117.4,203.9z"/>
	<g>
		
			<linearGradient id="SVGID_7_" gradientUnits="userSpaceOnUse" x1="158.8264" y1="679.2534" x2="213.1856" y2="615.8788" gradientTransform="matrix(1 0 0 1 0 -492)">
			<stop  offset="0" style="stop-color:#FFBD72"/>
			<stop  offset="0.5884" style="stop-color:#FE676F"/>
		</linearGradient>
		<path class="st8" d="M162.9,147.7c0-2.6,7.3-10.2,10.3-10.2c-1.1,1.5-2.6,2.6-3.6,4.1c-0.3,0.4-0.5,0.8-0.8,1.1
			c-7.9,12.9-7.7,29.6-3.1,44.1c0.2,0.7,0.5,1.4,0.7,2c1.5,4.1,3.1,8.1,4.3,12c0.2,0.7,0.4,1.4,0.5,2.1c0.2,0.7,0.3,1.4,0.4,2.1
			c0.1,0.6,0.1,1.2,0.1,1.8c0,3-2.9,9.3-2.7,9c1-1.2,1.8-2.4,2.8-3.5c0.4-0.5,0.9-1,1.4-1.5l0,0c0.6-0.6,1.2-1.1,1.8-1.7
			c0.4-0.4,0.7-0.7,1-1.1c0.4-0.3,0.9-0.7,1.3-1c1.4-1.3,2.5-2.9,3.4-4.5c1.8-3,2.2-6.4,2.1-9.8c-0.1-3.6-0.6-7.1-1.5-10.6
			c-0.7-3-1.7-5.9-2.1-8.9c-0.1-0.5-0.1-1-0.2-1.5c-0.1-3.3,0.1-6.2,1.1-9.4c0.2-0.6,0.4-1.3,0.6-1.9c1.6-4.4,4.2-8.4,7.4-11.7
			c5.4-5.4,12.6-8.5,19.6-11.3c4.4-1.7,8.8-3.8,12.4-6.9c3.8-3.3,4.5-8.1,8-11.7c-5.1,2.8-12.3,4.6-17.8,4.4
			c-7.4-0.2-14.9,0.1-22.2,1.2c-5.9,0.9-12,2.6-16.6,6.6C169.3,133.4,162.9,141,162.9,147.7z"/>
		
			<linearGradient id="SVGID_8_" gradientUnits="userSpaceOnUse" x1="134.1029" y1="671.3781" x2="159.2249" y2="668.6167" gradientTransform="matrix(1 0 0 1 0 -492)">
			<stop  offset="7.770000e-02" style="stop-color:#FFBD72"/>
			<stop  offset="0.8152" style="stop-color:#FE676F"/>
		</linearGradient>
		<path class="st9" d="M149.4,180.8c2.2,0,5.3-1.4,6.4-1.9c1-0.5,2.6-1.3,3.5-2.1c-2.1,0-7.3-2-11.1-2c-5.6,0-9.4,2.1-14.4,2.1
			C139.4,176.9,143,180.8,149.4,180.8z"/>
	</g>
	
		<linearGradient id="SVGID_9_" gradientUnits="userSpaceOnUse" x1="27.1589" y1="678.2997" x2="45.305" y2="654.5021" gradientTransform="matrix(0.9884 0.1519 -0.1519 0.9884 180.4715 -461.1776)">
		<stop  offset="0" style="stop-color:#FFBD72"/>
		<stop  offset="1" style="stop-color:#FE676F"/>
	</linearGradient>
	<path class="st10" d="M105.6,220.2c2.3-2.1,6.3-6,9.5-16.5c2.8-9.5,9.1-14.2,12.1-15.9c-4.2,0.7-11.2,3.6-14.8,11.7
		S110.3,210.1,105.6,220.2z"/>
	
		<linearGradient id="SVGID_10_" gradientUnits="userSpaceOnUse" x1="410.7621" y1="1024.813" x2="426.7723" y2="991.997" gradientTransform="matrix(0.1636 -0.9865 -0.9865 -0.1636 1073.2611 771.0019)">
		<stop  offset="0" style="stop-color:#FFBD72"/>
		<stop  offset="0.6748" style="stop-color:#FE676F"/>
	</linearGradient>
	<path class="st11" d="M149,195.7c8.8-0.8,13.8-6.6,15.8-10.4c-2.6,2.3-9,6.8-18.9,6.5c-11-0.3-15.9,2.4-18.6,3.9
		C138.2,194.4,140.1,196.6,149,195.7z"/>
	
		<linearGradient id="SVGID_11_" gradientUnits="userSpaceOnUse" x1="166.8764" y1="670.3455" x2="192.9059" y2="646.8589" gradientTransform="matrix(1 0 0 1 0 -492)">
		<stop  offset="0" style="stop-color:#FFBD72"/>
		<stop  offset="0.6225" style="stop-color:#FE676F"/>
	</linearGradient>
	<path class="st12" d="M172.4,185.8c2.1-2.7,5.9-7.6,7.5-19.4c1.5-10.8,7.5-16.9,10.4-19.3c-4.4,1.4-11.6,5.8-14.1,15.2
		C173.8,171.6,175.8,174,172.4,185.8z"/>
	
		<linearGradient id="SVGID_12_" gradientUnits="userSpaceOnUse" x1="-45.2155" y1="603.6589" x2="-13.2919" y2="574.8544" gradientTransform="matrix(0.9289 0.3703 -0.3703 0.9289 428.3468 -379.6898)">
		<stop  offset="0" style="stop-color:#FFBD72"/>
		<stop  offset="0.6225" style="stop-color:#FE676F"/>
	</linearGradient>
	<path class="st13" d="M165.7,175.3c3.6-2.1,10.1-5.9,17.4-18.7c6.6-11.6,16.2-15.9,20.6-17.2c-5.7-0.4-15.8,1.3-22.9,10.9
		C173.7,159.8,174.9,163.4,165.7,175.3z"/>
	
		<linearGradient id="SVGID_13_" gradientUnits="userSpaceOnUse" x1="-184.8255" y1="665.3715" x2="-174.0177" y2="642.569" gradientTransform="matrix(0.8403 0.5421 -0.5421 0.8403 630.4748 -244.8805)">
		<stop  offset="0" style="stop-color:#FFBD72"/>
		<stop  offset="1" style="stop-color:#FE676F"/>
	</linearGradient>
	<path class="st14" d="M111.7,220.1c2.8-1.2,7.7-3.3,14-11.8c5.7-7.6,12.9-9.8,16.2-10.4c-4-0.8-11.3-0.5-17.2,5.7
		S119.2,212.5,111.7,220.1z"/>
	<path class="st3" d="M193.8,284.1c-3.6,9.2-11.5,16.1-16.8,21.5c0.4,0.5,1.2,1.3,1.8,1.8C180.9,305.6,191.1,295.4,193.8,284.1z"/>
	<circle class="st3" cx="276.3" cy="40.5" r="10"/>
</g>
<g id="b_4_">
	<g>
		<g>
			<g>
				<defs>
					<path id="SVGID_14_" d="M-0.1,540.3V365.8h33.8c6.8,0,13.1,0.5,19,1.4s11.6,3.6,17.1,8.1c5.9,4.6,10.3,10.5,13.3,17.6
						s4.5,14.3,4.5,21.7c0,7.9-1.5,14.7-4.5,20.6s-7.8,11-14.2,15.5c3.5,1.7,6.7,4,9.4,7.1c2.7,3,4.9,6.4,6.7,10.1
						c1.8,3.7,3.1,7.6,4,11.7s1.4,8,1.4,11.7c0,8.6-1.5,16-4.5,22.2s-7.1,11.3-12.1,15.3c-5.1,4-11.1,6.9-18,8.8
						c-6.9,1.9-14.3,2.8-22.2,2.8L-0.1,540.3L-0.1,540.3z M55,415.3c0-6.5-1.8-11.6-5.3-15.4c-3.6-3.8-8.6-5.5-15.3-5.2v42.6
						c6.5,0,11.5-2,15.2-6C53.2,427.3,55,422,55,415.3z M56.4,487.3c0-6.8-2-12.4-5.9-16.8s-9.3-6.5-16.1-6.4v47.2
						c6.9,0.3,12.3-1.8,16.2-6.2C54.4,500.6,56.4,494.7,56.4,487.3z"/>
				</defs>
				<clipPath id="SVGID_15_">
					<use xlink:href="#SVGID_14_"  style="overflow:visible;"/>
				</clipPath>
				
					<linearGradient id="b_1_" gradientUnits="userSpaceOnUse" x1="63.1567" y1="-594.8149" x2="370.8066" y2="-287.1649" gradientTransform="matrix(1 0 0 -1 0 13.6203)">
					<stop  offset="0.1336" style="stop-color:#FE676F"/>
					<stop  offset="0.837" style="stop-color:#FFBD72"/>
				</linearGradient>
				<rect id="b" x="-1.5" y="365.4" class="st15" width="436.9" height="178.4"/>
			</g>
		</g>
	</g>
</g>
<g id="a_1_">
	<g>
		<g>
			<g>
				<defs>
					<path id="SVGID_16_" d="M170.1,365.8L212,540.3h-36.8l-6.5-29.4h-34.9l-6.2,29.4H93.2l40.5-174.5H170.1L170.1,365.8z
						 M154.8,437.1l-3.9-26.4h-0.5l-3.7,26.4l-7.4,46.5h24.3L154.8,437.1z"/>
				</defs>
				<clipPath id="SVGID_17_">
					<use xlink:href="#SVGID_16_"  style="overflow:visible;"/>
				</clipPath>
				
					<linearGradient id="a_2_" gradientUnits="userSpaceOnUse" x1="63.1567" y1="-594.8149" x2="370.8066" y2="-287.1649" gradientTransform="matrix(1 0 0 -1 0 13.6203)">
					<stop  offset="0.1336" style="stop-color:#FE676F"/>
					<stop  offset="0.837" style="stop-color:#FFBD72"/>
				</linearGradient>
				<rect id="a" x="-1.5" y="365.4" class="st16" width="436.9" height="178.4"/>
			</g>
		</g>
	</g>
</g>
<g>
	<g>
		<g>
			<g>
				<defs>
					<polygon id="SVGID_18_" points="255.6,365.8 255.6,443.8 256.1,443.8 284.8,365.8 320,365.8 287.8,446.3 324.1,540.2 
						287.8,540.2 256.1,451.4 255.6,451.4 255.6,540.2 221.1,540.2 221.1,365.8 					"/>
				</defs>
				<clipPath id="SVGID_19_">
					<use xlink:href="#SVGID_18_"  style="overflow:visible;"/>
				</clipPath>
				
					<linearGradient id="k_1_" gradientUnits="userSpaceOnUse" x1="63.1567" y1="-594.8149" x2="370.8066" y2="-287.1649" gradientTransform="matrix(1 0 0 -1 0 13.6203)">
					<stop  offset="0.1336" style="stop-color:#FE676F"/>
					<stop  offset="0.837" style="stop-color:#FFBD72"/>
				</linearGradient>
				<rect id="k" x="-1.5" y="365.4" class="st17" width="436.9" height="178.4"/>
			</g>
		</g>
	</g>
</g>
<g id="u_1_">
	<g>
		<g>
			<g>
				<defs>
					<path id="SVGID_20_" d="M365.8,365.8v112.9c0,3.2,0,6.8,0,10.6c0,3.9,0.5,7.4,1.5,10.8c1,3.3,2.7,6.1,5.1,8.3
						c2.4,2.2,5.9,3.4,10.5,3.4c4.2,0,7.4-0.7,9.7-2.2c2.3-1.5,4-3.4,5.1-5.8s1.7-5.1,2-8.2c0.2-3.1,0.3-6.2,0.3-9.5V365.8h34.5
						v127.3c0,4.6-0.4,9.8-1.2,15.6c-0.8,5.8-2.8,11.2-6.1,16.3c-3.3,5.1-8.4,9.4-15.4,12.8c-6.9,3.5-16.7,5.2-29.2,5.2
						c-16.2,0-28.8-3.9-37.8-11.6c-9-7.7-13.5-19.7-13.5-36.1V365.8H365.8z"/>
				</defs>
				<clipPath id="SVGID_21_">
					<use xlink:href="#SVGID_20_"  style="overflow:visible;"/>
				</clipPath>
				
					<linearGradient id="u_2_" gradientUnits="userSpaceOnUse" x1="63.1567" y1="-594.8149" x2="370.8066" y2="-287.1649" gradientTransform="matrix(1 0 0 -1 0 13.6203)">
					<stop  offset="0.1336" style="stop-color:#FE676F"/>
					<stop  offset="0.837" style="stop-color:#FFBD72"/>
				</linearGradient>
				<rect id="u" x="-1.5" y="365.4" class="st18" width="436.9" height="178.4"/>
			</g>
		</g>
	</g>
</g>
<g>
	<path class="st3" d="M572.1,422.8H444.8c-15.6,0-28.3-12.7-28.3-28.3l0,0c0-15.6,12.7-28.3,28.3-28.3h127.2
		c15.6,0,28.3,12.7,28.3,28.3l0,0C600.4,410.1,587.7,422.8,572.1,422.8z"/>
	<text transform="matrix(1 0 0 1 442.036 414.1116)" class="st19 st20 st21">Beta</text>
</g>
</svg>
