<svg xmlns="http://www.w3.org/2000/svg" xmlns:xlink="http://www.w3.org/1999/xlink" viewBox="0 0 243.26 331.7"><defs><linearGradient id="a" x1="16.2" y1="559.43" x2="253.64" y2="559.43" gradientTransform="translate(-10.42 -393.58)" gradientUnits="userSpaceOnUse"><stop offset="0.62" stop-color="#ffbd72"/><stop offset="0.94" stop-color="#fe676f"/></linearGradient><linearGradient id="b" x1="19.18" y1="632.17" x2="25.28" y2="619.3" gradientTransform="translate(-10.42 -393.58)" gradientUnits="userSpaceOnUse"><stop offset="0" stop-color="#ffbd72"/><stop offset="1" stop-color="#fe676f"/></linearGradient><linearGradient id="c" x1="-24.12" y1="651.93" x2="-15.12" y2="627.03" gradientTransform="translate(69.99 -396.85) rotate(4)" gradientUnits="userSpaceOnUse"><stop offset="0.29" stop-color="#ffbd72"/><stop offset="1" stop-color="#fe676f"/></linearGradient><linearGradient id="d" x1="20.15" y1="607.42" x2="72.45" y2="575.9" gradientTransform="translate(-10.42 -393.58)" gradientUnits="userSpaceOnUse"><stop offset="0" stop-color="#ffbd72"/><stop offset="0.6" stop-color="#fe676f"/></linearGradient><linearGradient id="e" x1="66.38" y1="580.8" x2="120.74" y2="517.42" gradientTransform="translate(-10.42 -393.58)" gradientUnits="userSpaceOnUse"><stop offset="0" stop-color="#ffbd72"/><stop offset="0.59" stop-color="#fe676f"/></linearGradient><linearGradient id="f" x1="41.58" y1="572.88" x2="66.71" y2="570.12" gradientTransform="translate(-10.42 -393.58)" gradientUnits="userSpaceOnUse"><stop offset="0.08" stop-color="#ffbd72"/><stop offset="0.82" stop-color="#fe676f"/></linearGradient><linearGradient id="g" x1="-62.27" y1="625.42" x2="-44.12" y2="601.62" gradientTransform="matrix(0.99, 0.15, -0.15, 0.99, 157.91, -395.39)" xlink:href="#b"/><linearGradient id="h" x1="573.73" y1="1224.32" x2="589.74" y2="1191.5" gradientTransform="matrix(0.16, -0.99, -0.99, -0.16, 1142.54, 963.26)" gradientUnits="userSpaceOnUse"><stop offset="0" stop-color="#ffbd72"/><stop offset="0.67" stop-color="#fe676f"/></linearGradient><linearGradient id="i" x1="74.33" y1="571.8" x2="100.36" y2="548.31" gradientTransform="translate(-10.42 -393.58)" gradientUnits="userSpaceOnUse"><stop offset="0" stop-color="#ffbd72"/><stop offset="0.62" stop-color="#fe676f"/></linearGradient><linearGradient id="j" x1="-117.46" y1="616.3" x2="-85.54" y2="587.5" gradientTransform="translate(397.18 -364.85) rotate(21.73)" xlink:href="#i"/><linearGradient id="k" x1="-230.93" y1="729.88" x2="-220.13" y2="707.07" gradientTransform="translate(601.23 -274.19) rotate(32.83)" xlink:href="#b"/></defs><path d="M203.41,0A39.91,39.91,0,0,0,163.5,39.91h19.94a9.94,9.94,0,0,1,19.86,0h0c0,76.19-129.11,69.73-129.11,139.46h-.11a68.41,68.41,0,0,0-68.3,68.41c0,41.53,27,55.67,27,83.92H60.29c0-11.69,6.5-18.87,13.79-26.14,7.29,7.26,13.79,14.44,13.79,26.14h27.65c0-65.42,127.7-131.66,127.7-293.9A39.89,39.89,0,0,0,203.41,0Z" transform="translate(0.03)" style="fill:url(#a)"/><path d="M152.91,180.42a41.23,41.23,0,1,1-82.46,0Z" transform="translate(0.03)" style="fill:#fe676f"/><path d="M153.91,179.42a39.91,39.91,0,1,1-79.82,0Z" transform="translate(0.03)" style="fill:#ffbd72"/><circle cx="146.86" cy="156.62" r="8.03" style="fill:#fe676f"/><path d="M9.3,242.3c1-1.39,2.64-3.93,3-9.87a14.88,14.88,0,0,1,4.5-9.88,10.71,10.71,0,0,0-6.43,8C9.5,235.25,10.58,236.42,9.3,242.3Z" transform="translate(0.03)" style="fill:url(#b)"/><path d="M3.35,253.42l.16-.21.43-.48a.24.24,0,0,0,.06-.2,13.32,13.32,0,0,0,1.26-2.2,22.65,22.65,0,0,0,1.83-6.91c.28-2.54.09-5.24.5-7.73s2-8.15,1.68-8a4.55,4.55,0,0,0-1.93,2,23.67,23.67,0,0,0-1.64,3.06,24.77,24.77,0,0,0-1.37,8c-.09,2.94-.1,6-1,8.65s-3.61,7.15-3.34,7a8.71,8.71,0,0,0,3-2.66A2.17,2.17,0,0,0,3.35,253.42Z" transform="translate(0.03)" style="fill:url(#c)"/><path d="M14.58,203.79a32.73,32.73,0,0,0-2.5,9.37c-.45,3.71-1,7.77-3.07,11-.21.32.17-.17-.69.92a13.34,13.34,0,0,1-4.45,4.45.25.25,0,0,0,.09.34l.07,0c4.89.68,9.52-3.14,12.34-6.75a27.53,27.53,0,0,0,3.8-7.89c1.41-3.89,2.82-7.61,5.7-10.68,4.85-5.16,11.41-6.47,18-7.77,6-1.18,11.52-3.1,15.51-8s5.7-11.72,5.46-18.06a.25.25,0,0,0-.27-.25.24.24,0,0,0-.21.12c-.91,1.44-1.77,2.92-2.76,4.3A20.84,20.84,0,0,1,57,179.4a28.83,28.83,0,0,1-10,4.52c-3.42.9-7,1-10.47,1.41a27.81,27.81,0,0,0-9.4,3C21.24,191.36,17.16,197.81,14.58,203.79Z" transform="translate(0.03)" style="fill:url(#d)"/><path d="M60,147.59c0-2.6,7.3-10.16,10.3-10.16-1.08,1.48-2.56,2.65-3.63,4.15-.26.37-.52.75-.77,1.13-7.9,12.94-7.7,29.65-3.08,44.07.24.68.49,1.36.74,2,1.49,4.07,3,8.09,4.3,12,.2.69.38,1.39.54,2.09s.3,1.41.42,2.12a16,16,0,0,1,.08,1.83c0,3-2.92,9.32-2.69,9,1-1.16,1.84-2.38,2.8-3.54a18.92,18.92,0,0,1,1.37-1.46h0c.58-.56,1.18-1.11,1.76-1.68a12.64,12.64,0,0,0,1-1.09c.43-.31.85-.65,1.25-1a19.48,19.48,0,0,0,3.41-4.51,18.31,18.31,0,0,0,2.12-9.82,47.34,47.34,0,0,0-1.47-10.59,79.41,79.41,0,0,1-2.07-8.88c-.07-.5-.12-1-.16-1.51a26.06,26.06,0,0,1,1.19-9.32c.19-.64.39-1.27.62-1.9a32,32,0,0,1,7.41-11.66c5.44-5.37,12.58-8.52,19.6-11.27a43.09,43.09,0,0,0,12.39-6.9c3.79-3.25,4.54-8.13,8-11.65a39.56,39.56,0,0,1-17.8,4.43,128.25,128.25,0,0,0-22.24,1.22c-5.89.91-12,2.63-16.58,6.56C66.34,133.3,60,140.9,60,147.59Z" transform="translate(0.03)" style="fill:url(#e)"/><path d="M46.5,180.71c2.21,0,5.3-1.37,6.35-1.86a13.85,13.85,0,0,0,3.46-2.08c-2.12,0-7.33-2-11.06-2-5.64,0-9.41,2.06-14.36,2.06C36.58,176.82,40.07,180.71,46.5,180.71Z" transform="translate(0.03)" style="fill:url(#f)"/><path d="M2.7,220.15C5,218,9,214.15,12.18,203.64A27.37,27.37,0,0,1,24.26,187.7,19.71,19.71,0,0,0,9.47,199.42C5.92,207.55,7.37,210,2.7,220.15Z" transform="translate(0.03)" style="fill:url(#g)"/><path d="M46.05,195.63a19.77,19.77,0,0,0,15.76-10.4,27.31,27.31,0,0,1-18.91,6.51c-11-.28-15.92,2.36-18.64,3.86C35.33,194.32,37.23,196.48,46.05,195.63Z" transform="translate(0.03)" style="fill:url(#h)"/><path d="M69.46,185.68c2.11-2.67,5.85-7.55,7.51-19.45A30,30,0,0,1,87.39,147a21.62,21.62,0,0,0-14.06,15.16C70.85,171.51,72.84,174,69.46,185.68Z" transform="translate(0.03)" style="fill:url(#i)"/><path d="M62.79,175.19c3.61-2.09,10.1-5.94,17.39-18.74a36.77,36.77,0,0,1,20.62-17.21,26.52,26.52,0,0,0-22.9,10.88C70.8,159.68,72,163.42,62.79,175.19Z" transform="translate(0.03)" style="fill:url(#j)"/><path d="M8.77,220c2.75-1.16,7.7-3.32,14-11.76A26.27,26.27,0,0,1,39,197.86a18.94,18.94,0,0,0-17.23,5.69C15.85,209.71,16.34,212.42,8.77,220Z" transform="translate(0.03)" style="fill:url(#k)"/><path d="M90.92,284c-3.55,9.16-11.51,16.13-16.84,21.54a16.71,16.71,0,0,0,1.78,1.79C78,305.56,88.21,295.3,90.92,284Z" transform="translate(0.03)" style="fill:#fe676f"/><path d="M243.23,37.24c0-22-17.77-37.24-39.82-37.24a39.89,39.89,0,0,0-39.89,39.12,9,9,0,0,0-.09,1.27,10,10,0,0,0,20,0v-.48h.07a9.93,9.93,0,0,1,19-3.61c37.76,64.36-12.92,153.5-24.92,187.29C210.06,178.14,243.23,120.29,243.23,37.24Z" transform="translate(0.03)" style="fill:#fe676f"/><path d="M202.42,331.7H142.76a13.2,13.2,0,0,1-13.18-13.18h0a13.2,13.2,0,0,1,13.18-13.18h59.66a13.2,13.2,0,0,1,13.18,13.18h0A13.2,13.2,0,0,1,202.42,331.7Z" transform="translate(0.03)" style="fill:#fe676f"/><path d="M158.86,313.17a4.23,4.23,0,0,1-3.39,4.31,4.68,4.68,0,0,1,4.14,4.88c0,3.31-2.67,5.29-7,5.29H144V308.37h8.38C156.39,308.35,158.86,310.17,158.86,313.17Zm-3.33.59c0-1.63-1.24-2.5-3.31-2.5h-5v5.1h5c2.07,0,3.31-1,3.31-2.6Zm.73,8.18c0-1.71-1.52-2.72-4-2.72h-5v5.53h5c2.54,0,4-1,4-2.81Z" transform="translate(0.03)" style="fill:#fff"/><path d="M176.16,321.52H165.09a4.49,4.49,0,0,0,4.56,3.67,5.75,5.75,0,0,0,4.14-1.71l1.68,1.79a8,8,0,0,1-6.06,2.49c-4.52,0-7.49-3-7.49-7.42a7.11,7.11,0,0,1,7.42-7.46C174.45,312.87,176.55,316.23,176.16,321.52Zm-2.75-2.32a3.77,3.77,0,0,0-4.07-3.81A4.17,4.17,0,0,0,165,319.2Z" transform="translate(0.03)" style="fill:#fff"/><path d="M187.76,326.71a7.07,7.07,0,0,1-3.61,1.07c-2.21,0-4.1-1.26-4.1-4.28v-7.6H178v-2.38h2.07v-4h3.14v4h4.32v2.38h-4.32v7c0,1.52.58,2,1.57,2a5.05,5.05,0,0,0,2.21-.64Z" transform="translate(0.03)" style="fill:#fff"/><path d="M199.49,327.64v-1.79a6,6,0,0,1-4.85,1.93c-3.17,0-5.15-2-5.15-4.56s2-4.38,5.53-4.42h4.43v-.45c0-1.85-1.18-3-3.5-3a7.74,7.74,0,0,0-4.32,1.49l-1.29-2.21a10.76,10.76,0,0,1,6.31-1.85c3.78,0,5.89,1.93,5.92,5.15l0,9.62Zm0-5.16v-1.35h-4c-2.07,0-3,.54-3,2s1.07,2.18,2.85,2.18c2.23,0,4-1.19,4.14-2.79Z" transform="translate(0.03)" style="fill:#fff"/></svg>