<svg xmlns="http://www.w3.org/2000/svg" xmlns:xlink="http://www.w3.org/1999/xlink" viewBox="0 0 578 180"><defs><linearGradient id="a" x1="8.45" y1="89.94" x2="133.99" y2="89.94" gradientUnits="userSpaceOnUse"><stop offset="0.62" stop-color="#ffbd72"/><stop offset="0.95" stop-color="#fe676f"/></linearGradient><clipPath id="b"><path d="M112.13,20.91c20.6,34.1-6.5,81.69-12.88,99.61,45.57,0,88.28-123.12,93.29-138.46,2.26-6.94-68.61-8-78.69-16.1-7.79-6.27-38.69,53-37.21,70.63.3,3.6,18.72,6.31,23.7,2.28C109.18,31.69,112.13,31.44,112.13,20.91Z" style="fill:none"/></clipPath><linearGradient id="c" x1="10.02" y1="128.4" x2="13.24" y2="121.6" gradientUnits="userSpaceOnUse"><stop offset="0" stop-color="#ffbd72"/><stop offset="1" stop-color="#fe676f"/></linearGradient><linearGradient id="d" x1="39.99" y1="178.59" x2="44.75" y2="165.42" gradientTransform="translate(-21.21 -45.49) rotate(4.13)" gradientUnits="userSpaceOnUse"><stop offset="0.29" stop-color="#ffbd72"/><stop offset="1" stop-color="#fe676f"/></linearGradient><linearGradient id="e" x1="10.52" y1="115.29" x2="38.17" y2="98.63" gradientUnits="userSpaceOnUse"><stop offset="0" stop-color="#ffbd72"/><stop offset="0.6" stop-color="#fe676f"/></linearGradient><linearGradient id="f" x1="34.99" y1="101.25" x2="63.74" y2="67.74" gradientUnits="userSpaceOnUse"><stop offset="0" stop-color="#ffbd72"/><stop offset="0.59" stop-color="#fe676f"/></linearGradient><linearGradient id="g" x1="21.87" y1="97.05" x2="35.15" y2="95.59" gradientUnits="userSpaceOnUse"><stop offset="0.08" stop-color="#ffbd72"/><stop offset="0.82" stop-color="#fe676f"/></linearGradient><linearGradient id="h" x1="81.94" y1="203.77" x2="91.54" y2="191.19" gradientTransform="translate(-43.94 -98.84) rotate(8.74)" xlink:href="#c"/><linearGradient id="i" x1="71.01" y1="170.78" x2="79.48" y2="153.43" gradientTransform="matrix(0.16, -0.99, -0.99, -0.16, 176.18, 204.98)" gradientUnits="userSpaceOnUse"><stop offset="0" stop-color="#ffbd72"/><stop offset="0.67" stop-color="#fe676f"/></linearGradient><linearGradient id="j" x1="39.18" y1="96.48" x2="52.94" y2="84.06" gradientUnits="userSpaceOnUse"><stop offset="0" stop-color="#ffbd72"/><stop offset="0.62" stop-color="#fe676f"/></linearGradient><linearGradient id="k" x1="248.13" y1="286.96" x2="265.01" y2="271.73" gradientTransform="translate(-87.2 -269.39) rotate(21.73)" xlink:href="#j"/><linearGradient id="l" x1="357.38" y1="379.15" x2="363.1" y2="367.09" gradientTransform="matrix(0.84, 0.54, -0.54, 0.84, -83.3, -396.97)" xlink:href="#c"/><mask id="m" x="134.01" y="-8.72" width="569.39" height="215.38" maskUnits="userSpaceOnUse"><path d="M142.67,177.25V2.79h33.78a122.64,122.64,0,0,1,19,1.39q8.79,1.4,17.12,8.1a43.78,43.78,0,0,1,13.3,17.59,55.16,55.16,0,0,1,4.51,21.75,44.51,44.51,0,0,1-4.51,20.59q-4.51,8.79-14.23,15.5A29.74,29.74,0,0,1,221,94.77a42.36,42.36,0,0,1,6.71,10.06,54.43,54.43,0,0,1,4.05,11.69,52.67,52.67,0,0,1,1.39,11.68q0,13-4.51,22.21a43.2,43.2,0,0,1-12.15,15.28,49.23,49.23,0,0,1-18,8.79,85.92,85.92,0,0,1-22.21,2.77ZM197.74,52.31q0-9.72-5.32-15.39t-15.27-5.2V74.29q9.72,0,15.15-6T197.74,52.31Zm1.39,72q0-10.18-5.9-16.78t-16.08-6.36v47.2q10.41.46,16.19-6.25T199.13,124.27Z" style="fill:#fff"/><path d="M312.83,2.79l41.88,174.46H317.92l-6.48-29.38H276.5l-6.25,29.38H236L276.5,2.79ZM297.55,74.06l-3.93-26.38h-.46l-3.7,26.38-7.41,46.51h24.3Z" style="fill:#fff"/><path d="M398.39,2.79v78h.46l28.69-78h35.17L430.55,83.31l36.33,93.94H430.55L398.85,88.4h-.46v88.85H363.91V2.79Z" style="fill:#fff"/><path d="M508.57,2.79V126.35a37.11,37.11,0,0,0,1.5,10.76,18.43,18.43,0,0,0,5.09,8.33q3.58,3.36,10.53,3.35,6.24,0,9.72-2.19a13.17,13.17,0,0,0,5.09-5.79,24.38,24.38,0,0,0,2-8.21q.35-4.64.34-9.49V2.79h34.48V130.05a119.51,119.51,0,0,1-1.16,15.62A39.06,39.06,0,0,1,570,162q-5,7.64-15.39,12.84T525.46,180q-24.3,0-37.83-11.57t-13.54-36.09V2.79Z" style="fill:#fff"/></mask><linearGradient id="n" x1="205.94" y1="245.39" x2="513.6" y2="-62.27" gradientUnits="userSpaceOnUse"><stop offset="0.13" stop-color="#fe676f"/><stop offset="0.84" stop-color="#ffbd72"/></linearGradient></defs><title>baku_logo_04a</title><path d="M113,2.25a21.11,21.11,0,0,0-21.11,21.1h10.54a5.26,5.26,0,0,1,10.5,0h0c0,40.29-68.26,36.87-68.26,73.74h-.06A36.17,36.17,0,0,0,8.45,133.26c0,22,14.26,29.44,14.26,44.38H37.27c0-6.19,3.44-10,7.29-13.82,3.86,3.84,7.29,7.63,7.29,13.82H66.47C66.47,143.05,134,108,134,22.24A21.07,21.07,0,0,0,113,2.25Z" style="fill:url(#a)"/><path d="M134,21.94c0,.1,0,.2,0,.3,0,.37.06.74.06,1.11Z" style="fill:#ffab91"/><g style="clip-path:url(#b)"><path d="M113,2.25a21.11,21.11,0,0,0-21.11,21.1h10.54a5.26,5.26,0,0,1,10.5,0h0c0,40.29-68.26,36.87-68.26,73.74h-.06A36.17,36.17,0,0,0,8.45,133.26c0,22,14.26,29.44,14.26,44.38H37.27c0-6.19,3.44-10,7.29-13.82,3.86,3.84,7.29,7.63,7.29,13.82H66.47C66.47,143,134,108.1,134,21.94,134,10.28,124.6,2.25,113,2.25Z" style="fill:#fe676f"/></g><path d="M85.77,98.12c0,12-8.76,21.8-20.8,21.8s-22.8-9.76-22.8-21.8Z" style="fill:#fe676f"/><path d="M86.77,97.12a21.11,21.11,0,0,1-42.21,0Z" style="fill:#ffbd72"/><circle cx="83.03" cy="85.06" r="4.25" style="fill:#fe676f"/><path d="M10.31,130.36a9.45,9.45,0,0,0,1.61-5.22,7.88,7.88,0,0,1,2.38-5.22,5.67,5.67,0,0,0-3.4,4.22C10.42,126.63,11,127.24,10.31,130.36Z" style="fill:url(#c)"/><path d="M7.16,136.23l.09-.11c.07-.09.15-.17.22-.25a.15.15,0,0,0,0-.11,7,7,0,0,0,.66-1.16,11.72,11.72,0,0,0,1-3.63c.15-1.34,0-2.77.26-4.09s1-4.31.89-4.24a2.37,2.37,0,0,0-1,1.08,13.23,13.23,0,0,0-.87,1.62,13.23,13.23,0,0,0-.72,4.21,16.69,16.69,0,0,1-.51,4.57c-.44,1.35-1.91,3.79-1.77,3.72A4.75,4.75,0,0,0,7,136.43,1.71,1.71,0,0,0,7.16,136.23Z" style="fill:url(#d)"/><path d="M13.07,110a17.44,17.44,0,0,0-1.32,5,13.41,13.41,0,0,1-1.62,5.8c-.11.17.09-.09-.36.48a7.16,7.16,0,0,1-2.36,2.36.14.14,0,0,0,.09.2c2.58.35,5-1.67,6.52-3.57A14.54,14.54,0,0,0,16,116a15.49,15.49,0,0,1,3-5.64c2.56-2.73,6-3.42,9.53-4.11,3.18-.62,6.09-1.64,8.21-4.23a14.34,14.34,0,0,0,2.88-9.55.14.14,0,0,0-.25-.07c-.48.77-.94,1.55-1.46,2.28a11.05,11.05,0,0,1-2.41,2.37,15.34,15.34,0,0,1-5.27,2.39,43,43,0,0,1-5.53.75,14.83,14.83,0,0,0-5,1.56C16.62,103.43,14.47,106.84,13.07,110Z" style="fill:url(#e)"/><path d="M37.09,80.28c0-1.37,3.86-5.37,5.45-5.37-.57.78-1.36,1.4-1.93,2.2l-.4.59C36,84.55,36.14,93.38,38.58,101l.39,1.08c.79,2.16,1.61,4.28,2.27,6.35.11.37.21.73.29,1.1s.16.75.22,1.13a7.71,7.71,0,0,1,0,1c0,1.61-1.54,4.93-1.42,4.79.51-.62,1-1.26,1.48-1.88a10.57,10.57,0,0,1,.73-.77l0,0c.3-.3.62-.59.93-.88s.37-.38.54-.58a7,7,0,0,0,.66-.54,10.53,10.53,0,0,0,1.81-2.39,9.74,9.74,0,0,0,1.11-5.19,25.18,25.18,0,0,0-.77-5.6,43.78,43.78,0,0,1-1.1-4.7c0-.26-.06-.53-.08-.8a13.83,13.83,0,0,1,.59-5c.1-.34.21-.67.33-1a16.73,16.73,0,0,1,3.92-6.16c2.88-2.84,6.65-4.5,10.36-6a22.38,22.38,0,0,0,6.55-3.64c2-1.73,2.4-4.3,4.25-6.17a20.93,20.93,0,0,1-9.43,2.36,68,68,0,0,0-11.76.64c-3.12.49-6.33,1.39-8.77,3.48C40.47,72.73,37.09,76.75,37.09,80.28Z" style="fill:url(#f)"/><path d="M30,97.8a9.53,9.53,0,0,0,3.35-1,7.39,7.39,0,0,0,1.83-1.09c-1.12,0-3.87-1.07-5.85-1.07-3,0-5,1.09-7.59,1.09C24.71,95.74,26.58,97.8,30,97.8Z" style="fill:url(#g)"/><path d="M6.82,118.65c1.2-1.12,3.35-3.17,5-8.73a14.45,14.45,0,0,1,6.39-8.43,10.43,10.43,0,0,0-7.82,6.21C8.52,112,9.29,113.3,6.82,118.65Z" style="fill:url(#h)"/><path d="M29.74,105.69a10.43,10.43,0,0,0,8.33-5.5,14.46,14.46,0,0,1-10,3.44c-5.8-.15-8.42,1.25-9.86,2C24.07,105,25.08,106.13,29.74,105.69Z" style="fill:url(#i)"/><path d="M42.12,100.42c1.11-1.41,3.09-4,4-10.28A15.83,15.83,0,0,1,51.6,80a11.42,11.42,0,0,0-7.43,8C42.85,92.93,43.9,94.22,42.12,100.42Z" style="fill:url(#j)"/><path d="M38.59,94.88c1.91-1.1,5.34-3.14,9.2-9.91a19.46,19.46,0,0,1,10.9-9.1,14,14,0,0,0-12.11,5.76C42.83,86.68,43.44,88.63,38.59,94.88Z" style="fill:url(#k)"/><path d="M10,118.57c1.45-.61,4.07-1.75,7.41-6.22A13.9,13.9,0,0,1,26,106.86a10.08,10.08,0,0,0-9.12,3C13.77,113.12,14,114.56,10,118.57Z" style="fill:url(#l)"/><path d="M53.47,152.43c-1.88,4.84-6.09,8.53-8.91,11.39a9.27,9.27,0,0,0,.94.94C46.61,163.81,52,158.39,53.47,152.43Z" style="fill:#fe676f"/><circle cx="97.08" cy="23.6" r="5.28" style="fill:#fe676f"/><g style="mask:url(#m)"><rect x="141.3" y="2.37" width="436.94" height="178.38" style="fill:url(#n)"/></g></svg>