<?xml version="1.0" encoding="utf-8"?>
<!-- Generator: Adobe Illustrator 24.0.1, SVG Export Plug-In . SVG Version: 6.00 Build 0)  -->
<svg version="1.1" id="Calque_1" xmlns="http://www.w3.org/2000/svg" xmlns:xlink="http://www.w3.org/1999/xlink" x="0px" y="0px"
	 viewBox="0 0 443 549" style="enable-background:new 0 0 443 549;" xml:space="preserve">
<style type="text/css">
	.st0{fill:url(#SVGID_1_);}
	.st1{fill:#FFAB91;}
	.st2{clip-path:url(#SVGID_3_);fill:#FE676F;}
	.st3{fill:#FE676F;}
	.st4{fill:#FFBD72;}
	.st5{fill:url(#SVGID_4_);}
	.st6{fill:url(#SVGID_5_);}
	.st7{fill:url(#SVGID_6_);}
	.st8{fill:url(#SVGID_7_);}
	.st9{fill:url(#SVGID_8_);}
	.st10{fill:url(#SVGID_9_);}
	.st11{fill:url(#SVGID_10_);}
	.st12{fill:url(#SVGID_11_);}
	.st13{fill:url(#SVGID_12_);}
	.st14{fill:url(#SVGID_13_);}
	.st15{clip-path:url(#SVGID_15_);fill:url(#b_1_);}
	.st16{clip-path:url(#SVGID_17_);fill:url(#a_2_);}
	.st17{clip-path:url(#SVGID_19_);fill:url(#k_1_);}
	.st18{clip-path:url(#SVGID_21_);fill:url(#u_2_);}
</style>
<g>
	<g>
		
			<linearGradient id="SVGID_1_" gradientUnits="userSpaceOnUse" x1="114.2" y1="699.45" x2="351.7" y2="699.45" gradientTransform="matrix(1 0 0 1 0 -530)">
			<stop  offset="0.6199" style="stop-color:#FFBD72"/>
			<stop  offset="0.945" style="stop-color:#FE676F"/>
		</linearGradient>
		<path class="st0" d="M311.9,3.6c-22,0-39.9,17.9-39.9,39.9c7.8,0,13.3,0,19.9,0c0.3-5.3,4.6-9.5,9.9-9.5s9.7,4.2,9.9,9.5l0,0
			c0,76.2-129.1,69.7-129.1,139.5h-0.1l0,0c-37.7,0.1-68.3,30.7-68.3,68.4c0,41.5,27,55.7,27,83.9h27.5c0-11.7,6.5-18.9,13.8-26.1
			c7.3,7.3,13.8,14.4,13.8,26.1H224c0-65.4,127.7-131.7,127.7-293.9C350.6,20.3,333.3,3.6,311.9,3.6z"/>
		<path class="st1" d="M351.7,40.8c0,0.2,0,0.4,0,0.6c0,0.7,0.1,1.4,0.1,2.1L351.7,40.8z"/>
	</g>
	<g>
		<g>
			<g>
				<defs>
					<path id="SVGID_2_" d="M310.4,38.9c39,64.5-12.3,154.5-24.4,188.4c86.2,0,148.7-198,158.1-227.1c-40.2,0-164.4,0.3-188.8,0.3
						c-15.9,0-14.9,34.6-12.1,68c0.6,6.8,35.4,11.9,44.8,4.3C304.8,59.3,310.4,58.8,310.4,38.9z"/>
				</defs>
				<clipPath id="SVGID_3_">
					<use xlink:href="#SVGID_2_"  style="overflow:visible;"/>
				</clipPath>
				<path class="st2" d="M311.9,3.6c-22,0-39.9,17.9-39.9,39.9c6.9,0,13.6,0,19.9,0c0.3-5.3,4.6-9.5,9.9-9.5s9.7,4.2,9.9,9.5l0,0
					c0,76.2-129.1,69.7-129.1,139.5h-0.1l0,0c-37.7,0.1-68.3,30.7-68.3,68.4c0,41.5,27,55.7,27,83.9h27.5c0-11.7,6.5-18.9,13.8-26.1
					c7.3,7.3,13.8,14.4,13.8,26.1H224c0-65.5,127.7-131.5,127.7-294.5C351.7,18.8,334,3.6,311.9,3.6z"/>
			</g>
		</g>
	</g>
	<path class="st3" d="M261.4,184c0,22.8-18.5,41.2-41.2,41.2S179,206.8,179,184H261.4z"/>
	<path class="st4" d="M262.4,183c0,22-17.9,39.9-39.9,39.9S182.6,205,182.6,183H262.4z"/>
	<ellipse transform="matrix(0.1602 -0.9871 0.9871 0.1602 56.274 386.5422)" class="st3" cx="255.3" cy="160.2" rx="8" ry="8"/>
	
		<linearGradient id="SVGID_4_" gradientUnits="userSpaceOnUse" x1="117.2713" y1="772.178" x2="123.3709" y2="759.3088" gradientTransform="matrix(1 0 0 1 0 -530)">
		<stop  offset="0" style="stop-color:#FFBD72"/>
		<stop  offset="1" style="stop-color:#FE676F"/>
	</linearGradient>
	<path class="st5" d="M117.8,245.9c0.9-1.4,2.6-3.9,3.1-9.9c0.4-5.4,3.1-8.6,4.5-9.9c-2.2,0.9-5.5,3.3-6.4,8
		C118,238.8,119.1,240,117.8,245.9z"/>
	
		<linearGradient id="SVGID_5_" gradientUnits="userSpaceOnUse" x1="58.9395" y1="821.3351" x2="67.9375" y2="796.4295" gradientTransform="matrix(0.9974 7.200000e-02 -7.200000e-02 0.9974 109.8069 -567.7714)">
		<stop  offset="0.2949" style="stop-color:#FFBD72"/>
		<stop  offset="1" style="stop-color:#FE676F"/>
	</linearGradient>
	<path class="st6" d="M111.9,257c0.1-0.1,0.1-0.1,0.2-0.2c0.1-0.2,0.3-0.3,0.4-0.5c0.1-0.1,0.1-0.1,0.1-0.2c0.5-0.7,0.9-1.4,1.3-2.2
		c1-2.1,1.6-4.4,1.8-6.9c0.3-2.5,0.1-5.2,0.5-7.7c0.4-2.6,2-8.1,1.7-8c-0.9,0.4-1.4,1.2-1.9,2c-0.6,1-1.2,2-1.6,3.1
		c-0.9,2.4-1.3,5.2-1.4,8c-0.1,2.9-0.1,6-1,8.6c-0.8,2.5-3.6,7.2-3.3,7c1.3-0.6,2.1-1.6,3-2.7C111.6,257.2,111.8,257.1,111.9,257z"
		/>
	
		<linearGradient id="SVGID_6_" gradientUnits="userSpaceOnUse" x1="118.1909" y1="747.3568" x2="170.491" y2="715.8446" gradientTransform="matrix(1 0 0 1 0 -530)">
		<stop  offset="0" style="stop-color:#FFBD72"/>
		<stop  offset="0.5961" style="stop-color:#FE676F"/>
	</linearGradient>
	<path class="st7" d="M123,207.4c-1.3,3-2.1,6.1-2.5,9.4c-0.4,3.7-1,7.8-3.1,11c-0.2,0.3,0.2-0.2-0.7,0.9c-0.9,1.1-0.9,2-4.4,4.4
		c-0.1,0.1,0,0.4,0.2,0.4c4.9,0.7,9.5-3.1,12.3-6.8c1.8-2.3,2.8-5.1,3.8-7.9c1.4-3.9,2.8-7.6,5.7-10.7c4.9-5.2,11.4-6.5,18-7.8
		c6-1.2,11.5-3.1,15.5-8c4.1-5,5.7-11.7,5.5-18.1c0-0.3-0.3-0.3-0.5-0.1c-0.9,1.4-1.8,2.9-2.8,4.3c-1.3,1.7-2.9,3.2-4.6,4.5
		c-2.9,2.2-6.4,3.6-10,4.5c-3.4,0.9-7,1-10.5,1.4c-3.3,0.4-6.4,1.4-9.4,3C129.8,194.9,125.7,201.4,123,207.4z"/>
	<g>
		
			<linearGradient id="SVGID_7_" gradientUnits="userSpaceOnUse" x1="164.3948" y1="720.7432" x2="218.754" y2="657.3687" gradientTransform="matrix(1 0 0 1 0 -530)">
			<stop  offset="0" style="stop-color:#FFBD72"/>
			<stop  offset="0.5884" style="stop-color:#FE676F"/>
		</linearGradient>
		<path class="st8" d="M168.5,151.2c0-2.6,7.3-10.2,10.3-10.2c-1.1,1.5-2.6,2.6-3.6,4.1c-0.3,0.4-0.5,0.8-0.8,1.1
			c-7.9,12.9-7.7,29.6-3.1,44.1c0.2,0.7,0.5,1.4,0.7,2c1.5,4.1,3.1,8.1,4.3,12c0.2,0.7,0.4,1.4,0.5,2.1c0.2,0.7,0.3,1.4,0.4,2.1
			c0.1,0.6,0.1,1.2,0.1,1.8c0,3-2.9,9.3-2.7,9c1-1.2,1.8-2.4,2.8-3.5c0.4-0.5,0.9-1,1.4-1.5l0,0c0.6-0.6,1.2-1.1,1.8-1.7
			c0.4-0.4,0.7-0.7,1-1.1c0.4-0.3,0.9-0.7,1.3-1c1.4-1.3,2.5-2.9,3.4-4.5c1.8-3,2.2-6.4,2.1-9.8c-0.1-3.6-0.6-7.1-1.5-10.6
			c-0.7-3-1.7-5.9-2.1-8.9c-0.1-0.5-0.1-1-0.2-1.5c-0.1-3.3,0.1-6.2,1.1-9.4c0.2-0.6,0.4-1.3,0.6-1.9c1.6-4.4,4.2-8.4,7.4-11.7
			c5.4-5.4,12.6-8.5,19.6-11.3c4.4-1.7,8.8-3.8,12.4-6.9c3.8-3.3,4.5-8.1,8-11.7c-5.1,2.8-12.3,4.6-17.8,4.4
			c-7.4-0.2-14.9,0.1-22.2,1.2c-5.9,0.9-12,2.6-16.6,6.6C174.9,136.9,168.5,144.5,168.5,151.2z"/>
		
			<linearGradient id="SVGID_8_" gradientUnits="userSpaceOnUse" x1="139.6712" y1="712.8679" x2="164.7932" y2="710.1066" gradientTransform="matrix(1 0 0 1 0 -530)">
			<stop  offset="7.770000e-02" style="stop-color:#FFBD72"/>
			<stop  offset="0.8152" style="stop-color:#FE676F"/>
		</linearGradient>
		<path class="st9" d="M155,184.3c2.2,0,5.3-1.4,6.4-1.9c1-0.5,2.6-1.3,3.5-2.1c-2.1,0-7.3-2-11.1-2c-5.6,0-9.4,2.1-14.4,2.1
			C145,180.4,148.6,184.3,155,184.3z"/>
	</g>
	
		<linearGradient id="SVGID_9_" gradientUnits="userSpaceOnUse" x1="3.4026" y1="827.2847" x2="21.5487" y2="803.4871" gradientTransform="matrix(0.9884 0.1519 -0.1519 0.9884 232.1515 -601.3359)">
		<stop  offset="0" style="stop-color:#FFBD72"/>
		<stop  offset="1" style="stop-color:#FE676F"/>
	</linearGradient>
	<path class="st10" d="M111.2,223.7c2.3-2.1,6.3-6,9.5-16.5c2.8-9.5,9.1-14.2,12.1-15.9c-4.2,0.7-11.2,3.6-14.8,11.7
		S115.9,213.6,111.2,223.7z"/>
	
		<linearGradient id="SVGID_10_" gradientUnits="userSpaceOnUse" x1="1234.9163" y1="2031.8372" x2="1250.9265" y2="1999.0212" gradientTransform="matrix(0.1636 -0.9865 -0.9865 -0.1636 1937.4272 1752.2692)">
		<stop  offset="0" style="stop-color:#FFBD72"/>
		<stop  offset="0.6748" style="stop-color:#FE676F"/>
	</linearGradient>
	<path class="st11" d="M154.6,199.2c8.8-0.8,13.8-6.6,15.8-10.4c-2.6,2.3-9,6.8-18.9,6.5c-11-0.3-15.9,2.4-18.6,3.9
		C143.8,197.9,145.7,200.1,154.6,199.2z"/>
	
		<linearGradient id="SVGID_11_" gradientUnits="userSpaceOnUse" x1="172.4448" y1="711.8353" x2="198.4743" y2="688.3488" gradientTransform="matrix(1 0 0 1 0 -530)">
		<stop  offset="0" style="stop-color:#FFBD72"/>
		<stop  offset="0.6225" style="stop-color:#FE676F"/>
	</linearGradient>
	<path class="st12" d="M178,189.3c2.1-2.7,5.9-7.6,7.5-19.4c1.5-10.8,7.5-16.9,10.4-19.3c-4.4,1.4-11.6,5.8-14.1,15.2
		C179.4,175.1,181.4,177.5,178,189.3z"/>
	
		<linearGradient id="SVGID_12_" gradientUnits="userSpaceOnUse" x1="-81.6657" y1="917.7184" x2="-49.7421" y2="888.9138" gradientTransform="matrix(0.9289 0.3703 -0.3703 0.9289 584.0699 -654.4322)">
		<stop  offset="0" style="stop-color:#FFBD72"/>
		<stop  offset="0.6225" style="stop-color:#FE676F"/>
	</linearGradient>
	<path class="st13" d="M171.3,178.8c3.6-2.1,10.1-5.9,17.4-18.7c6.6-11.6,16.2-15.9,20.6-17.2c-5.7-0.4-15.8,1.3-22.9,10.9
		C179.3,163.3,180.5,166.9,171.3,178.8z"/>
	
		<linearGradient id="SVGID_13_" gradientUnits="userSpaceOnUse" x1="-202.4505" y1="1119.5563" x2="-191.6426" y2="1096.7538" gradientTransform="matrix(0.8403 0.5421 -0.5421 0.8403 897.067 -613.4877)">
		<stop  offset="0" style="stop-color:#FFBD72"/>
		<stop  offset="1" style="stop-color:#FE676F"/>
	</linearGradient>
	<path class="st14" d="M117.3,223.6c2.8-1.2,7.7-3.3,14-11.8c5.7-7.6,12.9-9.8,16.2-10.4c-4-0.8-11.3-0.5-17.2,5.7
		S124.8,216,117.3,223.6z"/>
	<path class="st3" d="M199.4,287.6c-3.6,9.2-11.5,16.1-16.8,21.5c0.4,0.5,1.2,1.3,1.8,1.8C186.5,309.1,196.7,298.9,199.4,287.6z"/>
	<circle class="st3" cx="281.9" cy="44" r="10"/>
</g>
<g id="b_4_">
	<g>
		<defs>
			<path id="SVGID_14_" d="M5.4,544.4V369.9h33.8c6.8,0,13.1,0.5,19,1.4s11.6,3.6,17.1,8.1c5.9,4.6,10.3,10.5,13.3,17.6
				s4.5,14.3,4.5,21.7c0,7.9-1.5,14.7-4.5,20.6s-7.8,11-14.2,15.5c3.5,1.7,6.7,4,9.4,7.1c2.7,3,4.9,6.4,6.7,10.1
				c1.8,3.7,3.1,7.6,4,11.7s1.4,8,1.4,11.7c0,8.6-1.5,16-4.5,22.2c-3,6.2-7.1,11.3-12.1,15.3c-5.1,4-11.1,6.9-18,8.8
				c-6.9,1.9-14.3,2.8-22.2,2.8L5.4,544.4L5.4,544.4z M60.5,419.4c0-6.5-1.8-11.6-5.3-15.4c-3.6-3.8-8.6-5.5-15.3-5.2v42.6
				c6.5,0,11.5-2,15.2-6C58.7,431.4,60.5,426.1,60.5,419.4z M61.9,491.4c0-6.8-2-12.4-5.9-16.8s-9.3-6.5-16.1-6.4v47.2
				c6.9,0.3,12.3-1.8,16.2-6.2C59.9,504.7,61.9,498.8,61.9,491.4z"/>
		</defs>
		<clipPath id="SVGID_15_">
			<use xlink:href="#SVGID_14_"  style="overflow:visible;"/>
		</clipPath>
		
			<linearGradient id="b_1_" gradientUnits="userSpaceOnUse" x1="68.625" y1="-62.525" x2="376.275" y2="245.125" gradientTransform="matrix(1 0 0 -1 0 550)">
			<stop  offset="0.1336" style="stop-color:#FE676F"/>
			<stop  offset="0.837" style="stop-color:#FFBD72"/>
		</linearGradient>
		<rect id="b" x="4" y="369.5" class="st15" width="436.9" height="178.4"/>
	</g>
</g>
<g id="a_1_">
	<g>
		<defs>
			<path id="SVGID_16_" d="M175.6,369.9l41.9,174.5h-36.8l-6.5-29.4h-34.9l-6.2,29.4H98.7l40.5-174.5L175.6,369.9L175.6,369.9z
				 M160.3,441.2l-3.9-26.4h-0.5l-3.7,26.4l-7.4,46.5h24.3L160.3,441.2z"/>
		</defs>
		<clipPath id="SVGID_17_">
			<use xlink:href="#SVGID_16_"  style="overflow:visible;"/>
		</clipPath>
		
			<linearGradient id="a_2_" gradientUnits="userSpaceOnUse" x1="68.625" y1="-62.525" x2="376.275" y2="245.125" gradientTransform="matrix(1 0 0 -1 0 550)">
			<stop  offset="0.1336" style="stop-color:#FE676F"/>
			<stop  offset="0.837" style="stop-color:#FFBD72"/>
		</linearGradient>
		<rect id="a" x="4" y="369.5" class="st16" width="436.9" height="178.4"/>
	</g>
</g>
<g>
	<g>
		<defs>
			<polygon id="SVGID_18_" points="261.1,369.9 261.1,447.9 261.6,447.9 290.3,369.9 325.5,369.9 293.3,450.4 329.6,544.3 
				293.3,544.3 261.6,455.5 261.1,455.5 261.1,544.3 226.6,544.3 226.6,369.9 			"/>
		</defs>
		<clipPath id="SVGID_19_">
			<use xlink:href="#SVGID_18_"  style="overflow:visible;"/>
		</clipPath>
		
			<linearGradient id="k_1_" gradientUnits="userSpaceOnUse" x1="68.625" y1="-62.525" x2="376.275" y2="245.125" gradientTransform="matrix(1 0 0 -1 0 550)">
			<stop  offset="0.1336" style="stop-color:#FE676F"/>
			<stop  offset="0.837" style="stop-color:#FFBD72"/>
		</linearGradient>
		<rect id="k" x="4" y="369.5" class="st17" width="436.9" height="178.4"/>
	</g>
</g>
<g id="u_1_">
	<g>
		<defs>
			<path id="SVGID_20_" d="M371.3,369.9v112.9c0,3.2,0,6.8,0,10.6c0,3.9,0.5,7.4,1.5,10.8c1,3.3,2.7,6.1,5.1,8.3s5.9,3.4,10.5,3.4
				c4.2,0,7.4-0.7,9.7-2.2c2.3-1.5,4-3.4,5.1-5.8s1.7-5.1,2-8.2c0.2-3.1,0.3-6.2,0.3-9.5V369.9H440v127.3c0,4.6-0.4,9.8-1.2,15.6
				c-0.8,5.8-2.8,11.2-6.1,16.3c-3.3,5.1-8.4,9.4-15.4,12.8c-6.9,3.5-16.7,5.2-29.2,5.2c-16.2,0-28.8-3.9-37.8-11.6
				c-9-7.7-13.5-19.7-13.5-36.1V369.9H371.3z"/>
		</defs>
		<clipPath id="SVGID_21_">
			<use xlink:href="#SVGID_20_"  style="overflow:visible;"/>
		</clipPath>
		
			<linearGradient id="u_2_" gradientUnits="userSpaceOnUse" x1="68.625" y1="-62.525" x2="376.275" y2="245.125" gradientTransform="matrix(1 0 0 -1 0 550)">
			<stop  offset="0.1336" style="stop-color:#FE676F"/>
			<stop  offset="0.837" style="stop-color:#FFBD72"/>
		</linearGradient>
		<rect id="u" x="4" y="369.5" class="st18" width="436.9" height="178.4"/>
	</g>
</g>
</svg>
