<svg xmlns="http://www.w3.org/2000/svg" xmlns:xlink="http://www.w3.org/1999/xlink" viewBox="0 0 32 32"><defs><radialGradient id="a" cx="0.18" cy="35.11" r="45.76" gradientUnits="userSpaceOnUse"><stop offset="0" stop-color="#fec053"/><stop offset="0.33" stop-color="#f2203e"/><stop offset="0.65" stop-color="#b729a8"/><stop offset="1" stop-color="#5342d6"/></radialGradient><radialGradient id="b" cx="0.18" cy="35.11" r="45.76" xlink:href="#a"/><radialGradient id="c" cx="0.18" cy="35.11" r="45.76" xlink:href="#a"/></defs><path d="M22.89,32H9.11A9.12,9.12,0,0,1,0,22.89V9.11A9.12,9.12,0,0,1,9.11,0H22.89A9.12,9.12,0,0,1,32,9.11V22.89A9.12,9.12,0,0,1,22.89,32ZM9.11,2.74A6.38,6.38,0,0,0,2.74,9.11V22.89a6.38,6.38,0,0,0,6.37,6.37H22.89a6.38,6.38,0,0,0,6.37-6.37V9.11a6.38,6.38,0,0,0-6.37-6.37Z" transform="translate(0)" style="fill:url(#a)"/><path d="M16,24.19A8.19,8.19,0,1,1,24.19,16,8.19,8.19,0,0,1,16,24.19Zm0-13.64A5.45,5.45,0,1,0,21.45,16,5.45,5.45,0,0,0,16,10.55Z" transform="translate(0)" style="fill:url(#b)"/><path d="M26.51,7.34a2,2,0,1,1-2-2A2,2,0,0,1,26.51,7.34Z" transform="translate(0)" style="fill:url(#c)"/></svg>