<svg xmlns="http://www.w3.org/2000/svg" style="margin:auto;background:#fff;display:block;" width="48px" height="48px"
     viewBox="0 0 100 100" preserveAspectRatio="xMidYMid">
  <g transform="translate(50 50)">
    <g>
      <animateTransform attributeName="transform" type="rotate" values="0;45" keyTimes="0;1" dur="0.641025641025641s"
                        repeatCount="indefinite"></animateTransform>
      <path
        d="M29.491524206117255 -5.5 L34.491524206117255 -5.5 L34.491524206117255 5.5 L29.491524206117255 5.5 A30 30 0 0 1 24.742744050198738 16.964569457146712 L24.742744050198738 16.964569457146712 L28.278277956131475 20.50010336307945 L20.500103363079454 28.278277956131472 L16.964569457146716 24.742744050198734 A30 30 0 0 1 5.5 29.491524206117255 L5.5 29.491524206117255 L5.5 34.491524206117255 L-5.499999999999997 34.491524206117255 L-5.499999999999997 29.491524206117255 A30 30 0 0 1 -16.964569457146705 24.742744050198738 L-16.964569457146705 24.742744050198738 L-20.500103363079443 28.278277956131475 L-28.278277956131475 20.50010336307945 L-24.742744050198738 16.964569457146712 A30 30 0 0 1 -29.491524206117255 5.500000000000009 L-29.491524206117255 5.500000000000009 L-34.491524206117255 5.50000000000001 L-34.491524206117255 -5.500000000000001 L-29.491524206117255 -5.500000000000002 A30 30 0 0 1 -24.742744050198738 -16.964569457146705 L-24.742744050198738 -16.964569457146705 L-28.278277956131475 -20.500103363079443 L-20.50010336307945 -28.278277956131475 L-16.964569457146712 -24.742744050198738 A30 30 0 0 1 -5.500000000000011 -29.491524206117255 L-5.500000000000011 -29.491524206117255 L-5.5000000000000115 -34.491524206117255 L5.499999999999999 -34.491524206117255 L5.5 -29.491524206117255 A30 30 0 0 1 16.964569457146702 -24.74274405019874 L16.964569457146702 -24.74274405019874 L20.50010336307944 -28.27827795613148 L28.278277956131475 -20.500103363079454 L24.742744050198738 -16.964569457146716 A30 30 0 0 1 29.491524206117255 -5.500000000000013 M0 -18A18 18 0 1 0 0 18 A18 18 0 1 0 0 -18"
        fill="#feaaa5"></path>
    </g>
  </g>
</svg>