<svg xmlns="http://www.w3.org/2000/svg" viewBox="0 0 29.53 24"><path d="M10.52,28c11.15,0,17.24-9.23,17.24-17.24,0-.26,0-.52,0-.78a12.35,12.35,0,0,0,3-3.14,11.89,11.89,0,0,1-3.47,1A6,6,0,0,0,30,4.44,12,12,0,0,1,26.1,5.91a6.06,6.06,0,0,0-10.48,4.15,6.35,6.35,0,0,0,.16,1.38A17.25,17.25,0,0,1,3.29,5.11,6.06,6.06,0,0,0,5.17,13.2a6.08,6.08,0,0,1-2.75-.76v.08a6.07,6.07,0,0,0,4.86,5.94,6.42,6.42,0,0,1-1.59.21,6,6,0,0,1-1.14-.11,6.06,6.06,0,0,0,5.65,4.21,12.16,12.16,0,0,1-7.52,2.59,13.59,13.59,0,0,1-1.44-.08A17.11,17.11,0,0,0,10.52,28" transform="translate(-1.24 -4)" style="fill:#1da1f2"/></svg>