<?xml version="1.0" standalone="no"?>
<!DOCTYPE svg PUBLIC "-//W3C//DTD SVG 1.1//EN" "http://www.w3.org/Graphics/SVG/1.1/DTD/svg11.dtd" >
<svg xmlns="http://www.w3.org/2000/svg">
<metadata>Generated by IcoMoon</metadata>
<defs>
<font id="baku" horiz-adv-x="1024">
<font-face units-per-em="1024" ascent="960" descent="-64" />
<missing-glyph horiz-adv-x="1024" />
<glyph unicode="&#x20;" horiz-adv-x="512" d="" />
<glyph unicode="&#xe900;" glyph-name="angle-down" d="M478.080 255.36l-272 272c-18.88 18.88-18.88 49.28 0 67.84l45.12 45.12c18.88 18.88 49.28 18.88 67.84 0l192.96-192.64 192.96 192.96c18.88 18.88 49.28 18.88 67.84 0l45.12-45.12c18.88-18.88 18.88-49.28 0-67.84l-272-272c-18.56-19.2-48.96-19.2-67.84-0.32v0z" />
<glyph unicode="&#xe901;" glyph-name="attachment" d="M32 432c0 147.2 118.4 265.6 265.6 265.6h502.4c105.6 0 192-86.4 192-192s-86.4-192-192-192h-406.4c-67.2 0-121.6 54.4-121.6 121.6s54.4 121.6 121.6 121.6h361.6v-96h-368c-25.6 0-25.6-48 0-48h412.8c54.4 0 96 41.6 96 96s-41.6 96-96 96h-502.4c-92.8 0-169.6-76.8-169.6-169.6s76.8-169.6 169.6-169.6h457.6v-96h-457.6c-147.2-3.2-265.6 115.2-265.6 262.4z" />
<glyph unicode="&#xe902;" glyph-name="backward" d="M288 83.2v729.6c0 9.6 9.6 19.2 19.2 19.2h86.4c12.8 0 22.4-9.6 22.4-19.2v-300.8l326.4 310.4c35.2 25.6 89.6 3.2 89.6-44.8v-659.2c0-48-54.4-70.4-89.6-41.6l-326.4 307.2v-300.8c0-12.8-9.6-19.2-19.2-19.2h-89.6c-9.6 0-19.2 9.6-19.2 19.2z" />
<glyph unicode="&#xe903;" glyph-name="bookmark" d="M152-32v870.080c0 49.6 40.32 89.92 89.92 89.92h540.16c49.6 0 89.92-40.32 89.92-89.92v-870.080l-360 209.92-360-209.92z" />
<glyph unicode="&#xe904;" glyph-name="bug-solid" d="M992 387.2c0-32-28.8-57.6-60.8-57.6h-102.4v-28.8c0-41.6-9.6-80-25.6-115.2l112-112c22.4-22.4 22.4-60.8 0-86.4-22.4-22.4-60.8-22.4-86.4 0l-102.4 102.4c-48-38.4-105.6-60.8-169.6-60.8v457.6c0 12.8-9.6 22.4-22.4 22.4h-44.8c-12.8 0-22.4-9.6-22.4-22.4v-457.6c-64 0-124.8 22.4-169.6 60.8l-102.4-102.4c-22.4-22.4-60.8-22.4-86.4 0-22.4 22.4-22.4 60.8 0 86.4l115.2 108.8c-16 35.2-25.6 73.6-25.6 115.2v28.8h-105.6c-32 0-60.8 25.6-60.8 57.6 0 35.2 25.6 64 60.8 64h105.6v108.8l-89.6 89.6c-22.4 22.4-22.4 60.8 0 86.4 22.4 22.4 60.8 22.4 86.4 0l102.4-102.4h428.8l102.4 102.4c22.4 22.4 60.8 22.4 86.4 0 22.4-22.4 22.4-60.8 0-86.4l-86.4-86.4v-112h105.6c32 0 57.6-28.8 57.6-60.8zM515.2 928c-115.2 0-211.2-92.8-211.2-211.2h419.2c0 118.4-92.8 211.2-208 211.2z" />
<glyph unicode="&#xe905;" glyph-name="bullhorn-solid" d="M992 432c0 38.4-22.4 73.6-54.4 92.8v256c0 12.8-9.6 51.2-51.2 51.2-12.8 0-22.4-3.2-32-12.8l-140.8-112c-70.4-57.6-160-89.6-252.8-89.6h-320c-60.8 0-108.8-48-108.8-105.6v-160c0-57.6 48-105.6 105.6-105.6h57.6c-3.2-19.2-3.2-35.2-3.2-54.4 0-67.2 16-128 41.6-185.6 9.6-19.2 28.8-28.8 48-28.8h124.8c44.8 0 70.4 51.2 41.6 83.2-28.8 35.2-44.8 80-44.8 128 0 19.2 3.2 35.2 6.4 54.4h48c89.6 0 179.2-32 252.8-89.6l140.8-112c9.6-6.4 22.4-12.8 32-12.8 41.6 0 54.4 38.4 54.4 54.4v256c32 19.2 54.4 54.4 54.4 92.8zM832 195.2l-54.4 44.8c-89.6 73.6-201.6 112-316.8 112v160c115.2 0 227.2 38.4 316.8 112l54.4 44.8v-473.6z" />
<glyph unicode="&#xe906;" glyph-name="camera" d="M992 659.2v-540.8c0-48-41.6-89.6-89.6-89.6h-780.8c-48 0-89.6 41.6-89.6 89.6v540.8c0 51.2 41.6 89.6 89.6 89.6h166.4l22.4 60.8c12.8 35.2 48 57.6 83.2 57.6h236.8c38.4 0 70.4-22.4 83.2-57.6l22.4-60.8h166.4c48 0 89.6-41.6 89.6-89.6zM764.8 387.2c0 137.6-112 252.8-252.8 252.8s-252.8-112-252.8-252.8 112-252.8 252.8-252.8 252.8 115.2 252.8 252.8zM736 384c0-124.8-99.2-224-224-224s-224 99.2-224 224 99.2 224 224 224 224-99.2 224-224z" />
<glyph unicode="&#xe907;" glyph-name="camera-off" d="M512 608c-124.8 0-224-99.2-224-224s99.2-224 224-224 224 99.2 224 224-99.2 224-224 224zM521.6 240l-28.8 28.8 105.6 105.6h-233.6v38.4h233.6l-105.6 105.6 25.6 25.6 156.8-150.4-153.6-153.6zM902.4 748.8h-166.4l-22.4 60.8c-12.8 35.2-44.8 57.6-83.2 57.6h-236.8c-35.2 0-70.4-22.4-83.2-57.6l-22.4-60.8h-166.4c-48 0-89.6-38.4-89.6-89.6v-540.8c0-48 41.6-89.6 89.6-89.6h780.8c48 0 89.6 41.6 89.6 89.6v540.8c0 48-41.6 89.6-89.6 89.6zM512 134.4c-140.8 0-252.8 112-252.8 252.8s112 252.8 252.8 252.8 252.8-115.2 252.8-252.8c0-137.6-112-252.8-252.8-252.8z" />
<glyph unicode="&#xe908;" glyph-name="check" d="M358.080 104l-312 312c-18.88 18.88-18.88 49.28 0 67.84l67.84 67.84c18.88 18.88 49.28 18.88 67.84 0l210.24-210.24 450.24 450.56c18.88 18.88 49.28 18.88 67.84 0l67.84-67.84c18.88-18.88 18.88-49.28 0-67.84l-552-552.32c-18.88-18.56-48.96-18.56-67.84 0v0z" />
<glyph unicode="&#xe909;" glyph-name="check_box" d="M0 832v-768c0-70.72 57.28-128 128-128h768c70.72 0 128 57.28 128 128v768c0 70.72-57.28 128-128 128h-768c-70.72 0-128-57.28-128-128zM896 64h-768v768h768v-768zM420.48 192l-228.48 228.48 64.32 64.64 164.16-163.84 347.2 347.2 64.32-64.96z" />
<glyph unicode="&#xe90a;" glyph-name="check_box_outline_blank" d="M0 832v-768c0-70.72 57.28-128 128-128h768c70.72 0 128 57.28 128 128v768c0 70.72-57.28 128-128 128h-768c-70.72 0-128-57.28-128-128zM896 64h-768v768h768v-768z" />
<glyph unicode="&#xe90b;" glyph-name="chevron-right" d="M736 500.8l-342.72 342.4c-29.12 29.12-76.16 29.12-105.28 0v0c-29.12-28.8-29.12-76.16 0-105.28l236.8-237.44c29.12-29.12 29.12-76.16 0-105.28l-236.8-237.12c-29.12-29.12-29.12-76.16 0-105.28v0c29.12-29.12 76.16-29.12 105.28 0l342.72 342.4c29.12 29.12 29.12 76.48 0 105.6z" />
<glyph unicode="&#xe90c;" glyph-name="clone-regular" d="M902.4 928h-601.6c-48 0-89.6-41.6-89.6-89.6v-89.6h-89.6c-48 0-89.6-41.6-89.6-89.6v-601.6c0-48 41.6-89.6 89.6-89.6h601.6c51.2 0 89.6 41.6 89.6 89.6v89.6h89.6c51.2 0 89.6 41.6 89.6 89.6v601.6c0 48-41.6 89.6-89.6 89.6zM710.4 57.6h-576c-6.4 0-12.8 6.4-12.8 12.8v576c0 6.4 6.4 12.8 12.8 12.8h80v-419.2c0-51.2 41.6-89.6 89.6-89.6h419.2v-80c0-6.4-6.4-12.8-12.8-12.8zM889.6 236.8h-576c-6.4 0-12.8 6.4-12.8 12.8v576c0 6.4 6.4 12.8 12.8 12.8h576c6.4 0 12.8-6.4 12.8-12.8v-576c0-6.4-6.4-12.8-12.8-12.8z" />
<glyph unicode="&#xe90d;" glyph-name="close" d="M875.52 229.76l-217.92 218.24 218.24 218.24c26.88 26.88 26.88 70.080 0 96.96l-48.64 48.64c-26.88 26.88-70.080 26.88-96.96 0l-218.24-218.24-218.24 217.92c-26.88 26.88-70.080 26.88-96.96 0l-48.32-48.32c-26.88-26.88-26.88-70.080 0-96.96l217.92-218.24-218.24-218.24c-26.88-26.88-26.88-70.080 0-96.96l48.64-48.64c26.88-26.88 70.080-26.88 96.96 0l218.24 218.24 218.24-218.24c26.88-26.88 70.080-26.88 96.96 0l48.64 48.64c26.56 26.88 26.56 70.080-0.32 96.96z" />
<glyph unicode="&#xe90e;" glyph-name="cloud" d="M806.080 526.4c-27.2 137.92-148.48 241.6-294.080 241.6-115.52 0-215.68-65.6-265.6-161.6-130.56-13.76-230.4-132.48-212.16-270.72 15.68-120.64 124.8-207.68 246.4-207.68h503.36c102.72 0 194.56 73.92 206.4 176 13.76 116.48-72.64 214.72-184.32 222.4zM792 208h-513.28c-83.52 0-158.080 61.12-166.080 144.32-8.96 95.36 65.92 175.68 159.36 175.68 77.12 0 141.44-54.4 156.48-126.72 4.16-18.88 19.84-33.28 39.36-33.28h0.32c24.32 0 44.16 21.76 39.68 45.76-17.28 89.6-84.48 161.28-171.52 185.6 44.16 58.56 115.52 95.040 195.52 88 115.2-10.24 200.32-112.96 200.32-228.48v-10.88h54.72c57.92 0 111.68-39.040 122.88-95.68 15.040-76.48-43.84-144.32-117.76-144.32z" />
<glyph unicode="&#xe90f;" glyph-name="cog" d="M955.2 332.8l-82.56 47.68c8.32 44.8 8.32 90.88 0 136l82.56 47.68c9.6 5.44 13.76 16.64 10.56 27.2-21.44 68.8-57.92 131.2-105.92 183.040-7.36 8-19.2 9.92-28.8 4.48l-82.56-47.68c-34.56 29.76-74.56 52.8-117.76 67.84v94.72c0 10.88-7.68 20.48-18.24 22.72-71.040 16-143.68 15.040-211.2 0-10.56-2.24-18.24-11.84-18.24-22.72v-95.36c-42.88-15.36-82.88-38.4-117.76-67.84l-81.6 47.68c-9.6 5.44-21.44 3.52-28.8-4.48-47.68-51.52-84.48-113.92-105.92-183.040-3.2-10.56 1.28-21.76 10.56-27.2l82.56-47.68c-8.32-44.8-8.32-90.88 0-136l-82.56-47.68c-9.6-5.44-13.76-16.64-10.56-27.2 21.44-68.8 57.92-131.2 105.92-183.040 7.36-8 19.2-9.92 28.8-4.48l82.56 47.68c34.56-29.76 74.56-52.8 117.76-67.84v-95.36c0-10.88 7.68-20.48 18.24-22.72 71.040-16 143.68-15.040 211.2 0 10.56 2.24 18.24 11.84 18.24 22.72v95.36c42.88 15.36 82.88 38.4 117.76 67.84l82.56-47.68c9.6-5.44 21.44-3.52 28.8 4.48 47.68 51.52 84.48 113.92 105.92 183.040 2.24 11.2-1.92 22.4-11.52 27.84zM507.52 293.44c-85.44 0-154.88 69.44-154.88 154.88s69.44 154.88 154.88 154.88 154.88-69.44 154.88-154.88-69.44-154.88-154.88-154.88z" />
<glyph unicode="&#xe910;" glyph-name="cogs-solid" d="M800 544l-12.8-22.4c-3.2-6.4-12.8-12.8-22.4-9.6-19.2 6.4-35.2 16-48 28.8-6.4 6.4-9.6 16-3.2 22.4l12.8 22.4c-9.6 12.8-19.2 25.6-22.4 41.6h-25.6c-9.6 0-16 6.4-19.2 16-3.2 19.2-3.2 38.4 0 54.4 0 9.6 9.6 16 19.2 16h25.6c6.4 16 12.8 28.8 22.4 41.6l-12.8 22.4c-3.2 6.4-3.2 19.2 3.2 22.4 12.8 12.8 32 22.4 48 28.8 9.6 3.2 19.2 0 22.4-9.6l12.8-19.2c16 0 32 0 48 0l12.8 22.4c3.2 6.4 12.8 9.6 22.4 6.4 19.2-6.4 35.2-16 48-28.8 6.4-6.4 9.6-16 3.2-22.4l-12.8-22.4c9.6-12.8 19.2-25.6 22.4-41.6h25.6c9.6 0 16-6.4 19.2-16 3.2-19.2 3.2-38.4 0-54.4 0-9.6-9.6-16-19.2-16h-25.6c-6.4-16-12.8-28.8-22.4-41.6l12.8-22.4c3.2-6.4 3.2-19.2-3.2-22.4-12.8-12.8-32-22.4-48-28.8-9.6-3.2-19.2 0-22.4 9.6l-12.8 22.4c-16-3.2-32-3.2-48 0zM784 630.4c57.6-44.8 124.8 22.4 80 80-57.6 44.8-124.8-22.4-80-80zM611.2 400l51.2-25.6c16-9.6 22.4-25.6 16-44.8-12.8-35.2-38.4-70.4-64-99.2-9.6-12.8-28.8-16-44.8-6.4l-44.8 25.6c-25.6-19.2-51.2-38.4-83.2-48v-51.2c0-16-12.8-32-28.8-35.2-38.4-6.4-76.8-6.4-115.2 0-16 3.2-28.8 19.2-28.8 35.2v51.2c-32 9.6-57.6 25.6-83.2 48l-41.6-25.6c-16-6.4-35.2-3.2-48 9.6-25.6 28.8-51.2 64-64 99.2-6.4 16 0 35.2 16 44.8l51.2 25.6c-6.4 32-6.4 64 0 96l-51.2 25.6c-16 9.6-22.4 25.6-16 44.8 12.8 35.2 38.4 70.4 64 99.2 12.8 6.4 32 9.6 48 3.2l44.8-25.6c25.6 19.2 51.2 38.4 83.2 48v48c0 16 12.8 32 28.8 35.2 38.4 6.4 76.8 6.4 115.2 0 16-3.2 28.8-19.2 28.8-35.2v-51.2c32-9.6 57.6-25.6 83.2-48l41.6 28.8c16 9.6 35.2 6.4 44.8-6.4 25.6-28.8 51.2-64 64-99.2 6.4-16 0-35.2-16-44.8l-51.2-25.6c6.4-32 6.4-64 0-96zM435.2 368c89.6 115.2-41.6 246.4-160 160-86.4-115.2 44.8-249.6 160-160zM800 96l-12.8-22.4c-3.2-6.4-12.8-12.8-22.4-9.6-19.2 6.4-35.2 16-48 28.8-6.4 6.4-9.6 16-3.2 22.4l12.8 22.4c-9.6 12.8-19.2 25.6-22.4 41.6h-25.6c-9.6 0-16 6.4-19.2 16-3.2 19.2-3.2 38.4 0 54.4 0 9.6 9.6 16 19.2 16h25.6c6.4 16 12.8 28.8 22.4 41.6l-12.8 22.4c-3.2 6.4-3.2 19.2 3.2 22.4 12.8 12.8 32 22.4 48 28.8 9.6 3.2 19.2 0 22.4-9.6l12.8-22.4c16 3.2 32 3.2 48 0l12.8 22.4c3.2 6.4 12.8 12.8 22.4 9.6 19.2-6.4 35.2-16 48-28.8 6.4-6.4 9.6-16 3.2-22.4l-12.8-22.4c9.6-12.8 19.2-25.6 22.4-41.6h25.6c9.6 0 16-6.4 19.2-16 3.2-19.2 3.2-38.4 0-54.4 0-9.6-9.6-16-19.2-16h-25.6c-6.4-16-12.8-28.8-22.4-41.6l12.8-22.4c3.2-6.4 3.2-19.2-3.2-22.4-12.8-12.8-32-22.4-48-28.8-9.6-3.2-19.2 0-22.4 9.6l-12.8 22.4c-16-3.2-32-3.2-48 0zM784 182.4c57.6-44.8 124.8 22.4 80 80-57.6 44.8-124.8-22.4-80-80v0z" />
<glyph unicode="&#xe911;" glyph-name="compress" d="M928 544v64c0 17.6-14.4 32-32 32h-192v192c0 17.6-14.4 32-32 32h-64c-14.080 0-32-17.92-32-32v-256c0-35.2 28.8-64 64-64h256c17.6 0 32 14.4 32 32zM608 32h64c17.6 0 32 14.4 32 32v192h192c17.6 0 32 14.4 32 32v64c0 14.080-17.92 32-32 32h-256c-35.2 0-64-28.8-64-64v-256c0-17.6 14.4-32 32-32zM96 352v-64c0-17.6 14.4-32 32-32h192v-192c0-17.6 14.4-32 32-32h64c14.080 0 32 17.92 32 32v256c0 35.2-28.8 64-64 64h-256c-17.6 0-32-14.4-32-32zM416 864h-64c-17.6 0-32-14.4-32-32v-192h-192c-17.6 0-32-14.4-32-32v-64c0-14.080 17.92-32 32-32h256c35.2 0 64 28.8 64 64v256c0 17.6-14.4 32-32 32z" />
<glyph unicode="&#xe912;" glyph-name="copy" d="M692.16 88v-74.88c0-24.96-20.16-45.12-45.12-45.12h-510.080c-24.96 0-45.12 20.16-45.12 45.12v689.92c0 24.96 20.16 45.12 45.12 45.12h135.040v-554.88c0-57.92 47.040-104.96 104.96-104.96h315.2zM692.16 733.12v194.88h-314.88c-25.28 0-45.12-20.16-45.12-45.12v-689.92c0-24.96 20.16-45.12 45.12-45.12h510.080c24.96 0 45.12 20.16 45.12 45.12v495.040h-194.88c-25.28 0-45.44 20.16-45.44 45.12zM918.72 791.040l-123.52 123.52c-8.32 8.64-19.84 13.44-31.68 13.44h-11.52v-180.16h180.16v11.52c-0.32 11.84-4.8 23.36-13.44 31.68z" />
<glyph unicode="&#xe913;" glyph-name="copy-regular" d="M902.4 800l-96 96c-16 16-38.4 25.6-64 25.6h-320c-48 0-89.6-38.4-89.6-89.6v-89.6h-147.2c-51.2 3.2-89.6-38.4-89.6-86.4v-595.2c0-48 38.4-89.6 89.6-89.6h416c48 0 89.6 38.4 89.6 89.6v89.6h147.2c48 0 89.6 38.4 89.6 89.6v499.2c0 22.4-9.6 44.8-25.6 60.8zM588.8 60.8h-393.6c-6.4 0-9.6 6.4-9.6 9.6v576c0 6.4 6.4 9.6 9.6 9.6h137.6v-416c0-48 38.4-89.6 89.6-89.6h179.2v-76.8c0-6.4-6.4-12.8-12.8-12.8zM828.8 240h-393.6c-6.4 0-9.6 6.4-9.6 9.6v572.8c0 6.4 6.4 9.6 9.6 9.6h198.4v-160c0-25.6 19.2-44.8 44.8-44.8h163.2v-374.4c-3.2-6.4-6.4-12.8-12.8-12.8zM838.4 716.8h-118.4v118.4h19.2c3.2 0 6.4 0 6.4-3.2l89.6-89.6c3.2-3.2 3.2-6.4 3.2-6.4v-19.2z" />
<glyph unicode="&#xe914;" glyph-name="copy-solid" d="M691.2 92.8v-73.6c0-25.6-19.2-44.8-44.8-44.8h-505.6c-25.6 0-44.8 19.2-44.8 44.8v681.6c0 25.6 19.2 44.8 44.8 44.8h134.4v-550.4c0-57.6 48-105.6 105.6-105.6h310.4zM691.2 729.6v192h-313.6c-25.6 0-44.8-19.2-44.8-44.8v-684.8c0-25.6 19.2-44.8 44.8-44.8h505.6c25.6 0 44.8 19.2 44.8 44.8v492.8h-192c-25.6 0-44.8 22.4-44.8 44.8zM915.2 787.2l-121.6 121.6c-9.6 9.6-19.2 12.8-32 12.8h-12.8v-179.2h179.2v12.8c0 12.8-3.2 25.6-12.8 32z" />
<glyph unicode="&#xe915;" glyph-name="cut" d="M627.52 448l356.48 356.48c10.24 9.92 10.24 26.24 0.32 36.48 0 0 0 0-0.32 0.32-70.4 70.4-184.32 70.4-254.4 0l-247.36-247.68-53.44 53.12c41.92 105.6-9.92 224.96-115.52 266.88s-224.96-9.92-266.88-115.52c-41.92-105.6 9.92-224.96 115.52-266.88 32.96-13.12 69.12-17.28 104.32-12.48l70.4-70.72-70.72-70.72c-112.64 15.68-216.32-62.72-232-175.36s62.72-216.32 175.36-232c112.64-15.68 216.32 62.72 232 175.36 4.8 35.2 0.64 71.040-12.48 104.32l53.12 53.12 247.36-247.68c70.4-70.4 184.32-70.4 254.4 0 10.24 9.92 10.24 26.24 0.32 36.48 0 0 0 0-0.32 0.32l-356.16 356.16zM237.44 653.44c-37.76 0-68.48 30.72-68.48 68.48s30.72 68.48 68.48 68.48 68.48-30.72 68.48-68.48-30.4-68.48-68.48-68.48zM237.44 105.28c-37.76 0-68.48 30.72-68.48 68.48s30.72 68.48 68.48 68.48 68.48-30.72 68.48-68.48-30.4-68.48-68.48-68.48z" />
<glyph unicode="&#xe916;" glyph-name="edit" d="M965.44 661.76l-86.4-86.4c-8.96-8.96-23.040-8.96-32 0l-208 208c-8.96 8.96-8.96 23.040 0 32l86.4 86.4c35.2 35.2 92.16 35.2 127.36 0l112.64-112.64c35.52-35.2 35.52-92.16 0-127.36zM564.8 741.12l-492.48-492.48-39.68-227.84c-5.44-30.72 21.44-57.28 52.16-52.16l227.84 40 492.48 492.48c8.96 8.96 8.96 23.040 0 32l-208 208c-9.28 8.64-23.36 8.64-32.32 0v0zM264.64 290.88c-10.24 10.24-10.24 26.88 0 37.12l288.64 288.64c10.24 10.24 26.88 10.24 37.12 0s10.24-26.88 0-37.12l-288.64-288.64c-10.24-10.24-26.88-10.24-37.12 0v0zM197.12 133.12h89.92v-68.16l-120.96-21.12-58.24 58.24 21.12 120.96h68.16v-89.92z" />
<glyph unicode="&#xe917;" glyph-name="ellipsis-v" d="M640 768c0-70.692-57.308-128-128-128s-128 57.308-128 128c0 70.692 57.308 128 128 128s128-57.308 128-128zM640 448c0-70.692-57.308-128-128-128s-128 57.308-128 128c0 70.692 57.308 128 128 128s128-57.308 128-128zM640 128c0-70.692-57.308-128-128-128s-128 57.308-128 128c0 70.692 57.308 128 128 128s128-57.308 128-128z" />
<glyph unicode="&#xe918;" glyph-name="envelope-regular" d="M902.4 816h-780.8c-48 0-89.6-41.6-89.6-89.6v-540.8c0-48 41.6-89.6 89.6-89.6h780.8c51.2 0 89.6 41.6 89.6 89.6v540.8c0 48-41.6 89.6-89.6 89.6zM902.4 726.4v-76.8c-41.6-35.2-108.8-86.4-252.8-198.4-32-25.6-92.8-83.2-137.6-83.2s-105.6 57.6-137.6 83.2c-144 112-211.2 166.4-252.8 198.4v76.8h780.8zM121.6 185.6v348.8c41.6-35.2 102.4-83.2 195.2-153.6 41.6-32 112-102.4 192-102.4s150.4 70.4 192 102.4c92.8 73.6 153.6 121.6 195.2 153.6v-348.8h-774.4z" />
<glyph unicode="&#xe919;" glyph-name="exclamation-circle-solid" d="M992 448c0-265.6-214.4-480-480-480s-480 214.4-480 480c0 265.6 214.4 480 480 480s480-214.4 480-480zM512 352c-48 0-89.6-38.4-89.6-89.6s38.4-89.6 89.6-89.6 89.6 38.4 89.6 89.6-41.6 89.6-89.6 89.6zM428.8 672l12.8-262.4c0-12.8 9.6-22.4 22.4-22.4h92.8c12.8 0 22.4 9.6 22.4 22.4l16 262.4c0 12.8-9.6 25.6-22.4 25.6h-121.6c-12.8-3.2-25.6-12.8-22.4-25.6v0z" />
<glyph unicode="&#xe91a;" glyph-name="expand" d="M640 896v-64c0-17.6 14.4-32 32-32h192v-192c0-17.6 14.4-32 32-32h64c14.080 0 32 17.92 32 32v256c0 35.2-28.8 64-64 64h-256c-17.6 0-32-14.4-32-32zM960 320h-64c-17.6 0-32-14.4-32-32v-192h-192c-17.6 0-32-14.4-32-32v-64c0-14.080 17.92-32 32-32h256c35.2 0 64 28.8 64 64v256c0 17.6-14.4 32-32 32zM384 0v64c0 17.6-14.4 32-32 32h-192v192c0 17.6-14.4 32-32 32h-64c-14.080 0-32-17.92-32-32v-256c0-35.2 28.8-64 64-64h256c17.6 0 32 14.4 32 32zM64 576h64c17.6 0 32 14.4 32 32v192h192c17.6 0 32 14.4 32 32v64c0 14.080-17.92 32-32 32h-256c-35.2 0-64-28.8-64-64v-256c0-17.6 14.4-32 32-32z" />
<glyph unicode="&#xe91b;" glyph-name="filter_drama" d="M806.4 524.8c-28.8 140.8-147.2 243.2-294.4 243.2-115.2 0-214.4-67.2-265.6-163.2-124.8-12.8-224-124.8-214.4-256 9.6-128 121.6-224 249.6-224h457.6c153.6 0 246.4 83.2 252.8 188.8 6.4 115.2-80 204.8-185.6 211.2zM793.6 208h-512c-83.2 0-156.8 60.8-166.4 144-9.6 96 67.2 176 160 176 76.8 0 140.8-54.4 156.8-128 3.2-19.2 19.2-32 38.4-32h3.2c25.6 0 41.6 22.4 38.4 44.8-16 89.6-83.2 160-172.8 185.6 38.4 54.4 102.4 86.4 172.8 89.6 121.6 3.2 224-105.6 224-230.4v-9.6h57.6c57.6 0 108.8-38.4 121.6-96 9.6-76.8-48-144-121.6-144z" />
<glyph unicode="&#xe91c;" glyph-name="folder-open-regular" d="M912 470.4h-80v176c0 44.8-35.2 80-80 80h-265.6l-108.8 105.6h-265.6c-44.8 0-80-35.2-80-80v-576c0-44.8 35.2-80 80-80h665.6c28.8 0 54.4 12.8 67.2 38.4l134.4 214.4c32 51.2-6.4 121.6-67.2 121.6zM112 742.4c0 6.4 3.2 9.6 9.6 9.6h224l105.6-105.6h291.2c6.4 0 9.6-3.2 9.6-9.6v-166.4h-467.2c-28.8 0-54.4-16-67.2-38.4l-105.6-176v486.4zM777.6 176h-627.2l128 214.4h630.4l-131.2-214.4z" />
<glyph unicode="&#xe91d;" glyph-name="forward" d="M832 812.8v-726.4c0-12.8-9.6-19.2-19.2-19.2h-86.4c-12.8 0-19.2 9.6-19.2 19.2v300.8l-326.4-310.4c-38.4-28.8-92.8-6.4-92.8 41.6v659.2c0 48 54.4 70.4 89.6 41.6l326.4-307.2v300.8c0 9.6 9.6 19.2 19.2 19.2h86.4c12.8 0 22.4-9.6 22.4-19.2z" />
<glyph unicode="&#xe91e;" glyph-name="grid" d="M312 823.040v-150.080c0-24.96-20.16-45.12-45.12-45.12h-189.76c-24.96 0-45.12 20.16-45.12 45.12v150.080c0 24.96 20.16 44.8 45.12 44.8h190.080c24.64 0 44.8-19.84 44.8-44.8v0zM652.16 373.12v150.080c0 24.96-20.16 45.12-45.12 45.12h-190.080c-24.96 0-45.12-20.16-45.12-45.12v-150.080c0-24.96 20.16-45.12 45.12-45.12h190.080c24.96 0 45.12 20.16 45.12 45.12zM712 823.040v-150.080c0-24.96 20.16-45.12 45.12-45.12h190.080c24.96 0 45.12 20.16 45.12 45.12v150.080c0 24.96-20.16 45.12-45.12 45.12h-190.080c-24.96-0.32-45.12-20.16-45.12-45.12zM652.16 672.96v150.080c0 24.96-20.16 45.12-45.12 45.12h-190.080c-24.96 0-45.12-20.16-45.12-45.12v-150.080c0-24.96 20.16-45.12 45.12-45.12h190.080c24.96 0 45.12 20.16 45.12 45.12zM266.88 568h-189.76c-24.96 0-45.12-20.16-45.12-45.12v-150.080c0-24.96 20.16-45.12 45.12-45.12h190.080c24.96 0 45.12 20.16 45.12 45.12v150.080c-0.32 24.96-20.48 45.12-45.44 45.12v0zM32 223.040v-150.080c0-24.96 20.16-45.12 45.12-45.12h190.080c24.96 0 45.12 20.16 45.12 45.12v150.080c0 24.96-20.16 45.12-45.12 45.12h-190.080c-24.96-0.32-45.12-20.16-45.12-45.12zM757.12 328h190.080c24.96 0 45.12 20.16 45.12 45.12v150.080c0 24.96-20.16 45.12-45.12 45.12h-190.080c-24.96 0-45.12-20.16-45.12-45.12v-150.080c0-24.96 20.16-45.12 45.12-45.12zM757.12 27.84h190.080c24.96 0 45.12 20.16 45.12 45.12v150.080c0 24.96-20.16 45.12-45.12 45.12h-190.080c-24.96 0-45.12-20.16-45.12-45.12v-150.080c0-24.96 20.16-45.12 45.12-45.12zM371.84 223.040v-150.080c0-24.96 20.16-45.12 45.12-45.12h190.080c24.96 0 45.12 20.16 45.12 45.12v150.080c0 24.96-20.16 45.12-45.12 45.12h-190.080c-24.96-0.32-45.12-20.16-45.12-45.12z" />
<glyph unicode="&#xe91f;" glyph-name="history" d="M587.84 863.68c-229.44 6.72-420.8-174.080-427.52-403.84 0-3.84-0.32-8-0.32-12.16h-138.56l179.84-179.84 3.2-6.4 186.88 186.56h-138.88c0 178.56 144.32 323.2 322.88 323.52 1.6 0 3.2 0 5.12 0 174.080-4.48 314.24-144.64 319.040-319.040 2.88-178.24-139.52-325.12-317.76-328-77.12-1.28-152.32 25.28-211.52 74.56-13.76 10.88-33.6 9.92-45.76-2.88l-16.64-16.64c-13.44-13.76-13.44-35.84 0.32-49.6 0.64-0.64 1.6-1.6 2.56-2.24 176.64-146.56 438.72-122.56 585.28 54.080 64.64 77.76 98.88 176.64 95.68 277.76-8.32 219.84-184.32 395.84-403.84 404.16zM529.92 632.64v-231.040l197.76-117.12 33.28 56-161.6 96v196.16h-69.44z" />
<glyph unicode="&#xe920;" glyph-name="home-solid" d="M499.2 649.6l-307.2-252.8v-272c0-16 12.8-28.8 25.6-28.8h185.6c16 0 25.6 12.8 25.6 25.6v160c0 16 12.8 25.6 25.6 25.6h105.6c16 0 25.6-12.8 25.6-25.6v-160c0-16 12.8-25.6 25.6-25.6 0 0 0 0 0 0h185.6c16 0 25.6 12.8 25.6 25.6v272l-307.2 252.8c3.2 9.6-9.6 9.6-16 3.2v0zM985.6 476.8l-140.8 115.2v230.4c0 9.6-9.6 19.2-19.2 19.2h-92.8c-9.6 0-19.2-9.6-19.2-19.2v-121.6l-150.4 121.6c-28.8 25.6-73.6 25.6-102.4 0l-422.4-345.6c-6.4-6.4-9.6-19.2-3.2-28.8 0 0 0 0 0 0l41.6-51.2c6.4-9.6 19.2-9.6 28.8-3.2 0 0 0 0 0 0l393.6 323.2c6.4 6.4 19.2 6.4 25.6 0l393.6-323.2c9.6-6.4 22.4-6.4 28.8 3.2 0 0 0 0 0 0l41.6 51.2c6.4 9.6 3.2 22.4-3.2 28.8 0 0 0 0 0 0v0z" />
<glyph unicode="&#xe921;" glyph-name="image-regular" d="M902.4 816h-780.8c-48 0-89.6-41.6-89.6-89.6v-540.8c0-48 41.6-89.6 89.6-89.6h780.8c51.2 0 89.6 41.6 89.6 89.6v540.8c0 48-41.6 89.6-89.6 89.6zM889.6 185.6h-755.2c-6.4 0-12.8 6.4-12.8 12.8v515.2c0 6.4 6.4 12.8 12.8 12.8h758.4c6.4 0 12.8-6.4 12.8-12.8v-518.4c-3.2-3.2-9.6-9.6-16-9.6zM272 649.6c-41.6 0-73.6-32-73.6-73.6s32-73.6 73.6-73.6 73.6 32 73.6 73.6-32 73.6-73.6 73.6zM211.2 275.2h601.6v150.4l-163.2 163.2c-9.6 9.6-22.4 9.6-32 0l-224-224-73.6 73.6c-9.6 9.6-22.4 9.6-32 0l-73.6-73.6v-89.6z" />
<glyph unicode="&#xe922;" glyph-name="image-sequence" d="M832 160v-26.56c0-44.16-35.84-80-80-80h-640c-44.16 0-80 35.84-80 80v426.56c0 44.16 35.84 80 80 80h26.56v-346.56c0-73.6 59.84-133.44 133.44-133.44h560zM992 293.44v426.56c0 44.16-35.84 80-80 80h-640c-44.16 0-80-35.84-80-80v-426.56c0-44.16 35.84-80 80-80h640c44.16 0 80 35.84 80 80zM458.56 640c0-44.16-35.84-80-80-80s-80 35.84-80 80 35.84 80 80 80 80-35.84 80-80zM298.56 400l92.48 92.48c7.68 7.68 20.48 7.68 28.16 0l65.92-65.92 225.92 225.92c7.68 7.68 20.48 7.68 28.16 0l145.92-145.92v-186.56h-586.56v80z" />
<glyph unicode="&#xe923;" glyph-name="info" d="M512 928c-264.96 0-480-215.040-480-480 0-265.28 215.040-480 480-480s480 214.72 480 480c0 264.96-215.040 480-480 480zM512 715.2c44.8 0 81.28-36.48 81.28-81.28s-36.48-81.28-81.28-81.28-81.28 36.48-81.28 81.28 36.48 81.28 81.28 81.28zM620.48 223.36c0-12.8-10.24-23.36-23.36-23.36h-170.24c-12.8 0-23.36 10.24-23.36 23.36v46.4c0 12.8 10.24 23.36 23.36 23.36h23.36v123.84h-23.36c-12.8 0-23.36 10.24-23.36 23.36v46.4c0 12.8 10.24 23.36 23.36 23.36h123.84c12.8 0 23.36-10.24 23.36-23.36v-193.6h23.36c12.8 0 23.36-10.24 23.36-23.36v-46.4z" />
<glyph unicode="&#xe924;" glyph-name="instagram-brands" d="M512 694.4c-134.4 0-246.4-108.8-246.4-246.4s108.8-246.4 246.4-246.4 246.4 108.8 246.4 246.4-112 246.4-246.4 246.4zM512 291.2c-86.4 0-160 70.4-160 160s70.4 160 160 160 160-70.4 160-160-73.6-160-160-160v0zM825.6 704c0-32-25.6-57.6-57.6-57.6s-57.6 25.6-57.6 57.6 25.6 57.6 57.6 57.6 57.6-25.6 57.6-57.6zM985.6 646.4c-3.2 76.8-22.4 144-76.8 201.6-54.4 54.4-124.8 73.6-201.6 76.8s-313.6 3.2-393.6 0c-76.8-3.2-144-22.4-198.4-76.8s-73.6-124.8-76.8-201.6c-6.4-76.8-6.4-313.6 0-393.6 3.2-76.8 22.4-144 76.8-201.6 57.6-54.4 124.8-73.6 201.6-76.8 80-3.2 316.8-3.2 393.6 0s144 22.4 201.6 76.8c54.4 54.4 73.6 124.8 76.8 201.6 3.2 80 3.2 313.6-3.2 393.6v0zM886.4 166.4c-16-41.6-48-73.6-89.6-89.6-64-25.6-211.2-19.2-281.6-19.2s-220.8-6.4-281.6 19.2c-41.6 16-73.6 48-89.6 89.6-25.6 64-19.2 211.2-19.2 281.6s-9.6 220.8 12.8 284.8c16 41.6 48 73.6 89.6 89.6 64 25.6 211.2 19.2 281.6 19.2s220.8 6.4 281.6-19.2c41.6-16 73.6-48 89.6-89.6 25.6-64 19.2-211.2 19.2-281.6s9.6-220.8-12.8-284.8z" />
<glyph unicode="&#xe925;" glyph-name="loading" d="M512 32c-229.44 0-416 186.56-416 416 0 35.2 28.8 64 64 64s64-28.8 64-64c0-158.72 129.28-288 288-288 35.2 0 64-28.8 64-64s-28.8-64-64-64zM864 384c-35.2 0-64 28.8-64 64 0 158.72-129.28 288-288 288-35.2 0-64 28.8-64 64s28.8 64 64 64c229.44 0 416-186.56 416-416 0-35.2-28.8-64-64-64z" />
<glyph unicode="&#xe926;" glyph-name="lock-solid" d="M844.8 441.6h-44.8v169.6c0 156.8-128 284.8-284.8 284.8s-284.8-128-284.8-284.8v-169.6h-44.8c-51.2 0-89.6-41.6-89.6-89.6v-262.4c0-48 41.6-89.6 89.6-89.6h659.2c51.2 0 89.6 41.6 89.6 89.6v262.4c3.2 48-38.4 89.6-89.6 89.6zM649.6 441.6h-268.8v169.6c0 73.6 60.8 134.4 134.4 134.4s134.4-60.8 134.4-134.4v-169.6z" />
<glyph unicode="&#xe927;" glyph-name="movie" d="M867.2 864v-118.4h-118.4v118.4h-473.6v-118.4h-118.4v118.4h-60.8c-32 0-60.8-25.6-60.8-60.8v-713.6c0-32 28.8-57.6 60.8-57.6h60.8v118.4h118.4v-118.4h476.8v118.4h118.4v-118.4h57.6c32 0 60.8 25.6 60.8 60.8v710.4c0 35.2-28.8 60.8-60.8 60.8h-60.8zM275.2 268.8h-118.4v118.4h118.4v-118.4zM275.2 508.8h-118.4v118.4h118.4v-118.4zM867.2 268.8h-118.4v118.4h118.4v-118.4zM867.2 508.8h-118.4v118.4h118.4v-118.4z" />
<glyph unicode="&#xe928;" glyph-name="movie-done" d="M611.52 32c-41.6 40.64-67.52 97.28-67.52 160 0 123.84 100.16 224 224 224 111.36 0 203.52-81.28 220.8-187.84v575.040c0 35.2-28.8 60.8-60.8 60.8h-60.8v-118.4h-118.4v118.4h-473.6v-118.4h-118.4v118.4h-60.8c-32 0-60.8-25.6-60.8-60.8v-713.6c0-32 28.8-57.6 60.8-57.6h60.8v118.4h118.4v-118.4h336.32zM748.8 627.2h118.4v-118.4h-118.4v118.4zM156.8 627.2h118.4v-118.4h-118.4v118.4zM156.8 268.8v118.4h118.4v-118.4h-118.4zM738.24 56.32l190.080 190.080c6.4 6.4 6.4 16.96 0 23.36l-23.36 23.36c-6.4 6.4-16.96 6.4-23.36 0l-154.88-154.88-72.32 72.32c-6.4 6.4-16.96 6.4-23.36 0l-23.36-23.36c-6.4-6.4-6.4-16.96 0-23.36l107.2-107.2c6.72-6.72 16.96-6.72 23.36-0.32v0z" />
<glyph unicode="&#xe929;" glyph-name="movie-start-01" d="M85.333 106.667c0-46.933 38.4-85.333 85.333-85.333h682.667c46.933 0 85.333 38.4 85.333 85.333v384h-853.333v-384zM811.52 910.080l-123.307-33.707 115.627-129.707c5.12-5.547 2.56-15.36-5.12-17.493l-81.493-22.187c-15.787-4.267-32.427 0.427-42.667 12.8l-110.080 122.453-82.347-22.187 115.627-129.28c5.12-5.547 2.56-15.36-5.12-17.493l-81.493-22.187c-15.787-4.267-32.427 0.427-42.667 12.8l-109.653 122.453-82.347-22.613 115.627-129.28c5.12-5.547 2.56-15.36-5.12-17.493l-81.493-22.187c-15.36-4.267-32.427 0.427-43.093 12.8l-109.653 122.453-40.96-11.093c-45.227-12.373-72.107-59.733-59.733-104.96l33.707-123.307 823.040 224.853-44.8 164.693c-6.4 22.613-29.867 35.84-52.48 29.867z" />
<glyph unicode="&#xe92a;" d="M640 416c0-176.731-143.269-320-320-320s-320 143.269-320 320c0 176.731 143.269 320 320 320s320-143.269 320-320z" />
<glyph unicode="&#xe92b;" d="M768 416c0-176.731-143.269-320-320-320s-320 143.269-320 320c0 176.731 143.269 320 320 320s320-143.269 320-320z" />
<glyph unicode="&#xe92c;" d="M896 416c0-176.731-143.269-320-320-320s-320 143.269-320 320c0 176.731 143.269 320 320 320s320-143.269 320-320z" />
<glyph unicode="&#xe92d;" d="M1024 416c0-176.731-143.269-320-320-320s-320 143.269-320 320c0 176.731 143.269 320 320 320s320-143.269 320-320z" />
<glyph unicode="&#xe92e;" glyph-name="paste" d="M332.8 582.4c0 57.6 48 105.6 105.6 105.6h256v134.4c0 25.6-19.2 44.8-44.8 44.8h-150.4c-25.6 35.2-64 60.8-105.6 60.8s-83.2-25.6-105.6-60.8h-150.4c-25.6 0-44.8-19.2-44.8-44.8v-630.4c0-25.6 19.2-44.8 44.8-44.8h195.2v435.2zM393.6 854.4c25.6 0 44.8-19.2 44.8-44.8s-22.4-48-44.8-48c-25.6 0-44.8 19.2-44.8 44.8s19.2 48 44.8 48zM736 387.2h195.2v-374.4c0-25.6-19.2-44.8-44.8-44.8h-448c-25.6 0-44.8 19.2-44.8 44.8v569.6c0 25.6 19.2 44.8 44.8 44.8h256v-195.2c-3.2-22.4 19.2-44.8 41.6-44.8zM931.2 460.8v-12.8h-179.2v179.2h12.8c12.8 0 22.4-3.2 32-12.8l124.8-124.8c6.4-6.4 9.6-19.2 9.6-28.8z" />
<glyph unicode="&#xe92f;" glyph-name="pause" d="M340.48-32h-205.76c-56.64 0-102.72 46.080-102.72 102.72v754.56c0 56.64 46.080 102.72 102.72 102.72h205.76c56.64 0 102.72-46.080 102.72-102.72v-754.24c0.32-56.96-45.76-103.040-102.72-103.040zM992 70.72v754.56c0 56.64-46.080 102.72-102.72 102.72h-205.76c-56.64 0-102.72-46.080-102.72-102.72v-754.24c0-56.64 46.080-102.72 102.72-102.72h205.76c56.64-0.32 102.72 45.76 102.72 102.4z" />
<glyph unicode="&#xe930;" glyph-name="play" d="M887.68 525.76l-659.84 390.080c-53.76 31.68-136 0.96-136-77.44v-780.16c0-70.4 76.48-112.64 135.68-77.44l660.16 390.080c58.88 34.56 59.2 120 0 154.88v0z" />
<glyph unicode="&#xe931;" glyph-name="play_loop" d="M887.68 525.76l-659.84 390.080c-53.76 31.68-136 0.96-136-77.44v-780.16c0-70.4 76.48-112.64 135.68-77.44l660.16 390.080c58.88 34.56 59.2 120 0 154.88zM411.52 228.16c-42.88 0-82.88 12.48-116.48 34.24-16.32 10.56-17.92 33.6-4.48 47.36 0.32 0.32 0.32 0.32 0.64 0.64 10.24 10.24 26.24 12.16 38.4 4.48 31.040-19.84 69.76-28.8 111.040-21.12 59.52 10.88 108.48 58.24 120.64 117.44 20.48 98.88-54.080 185.92-149.44 185.92-50.88 0-96-24.64-123.52-62.72h85.44c5.76 0 10.56-4.8 10.56-10.56v-41.6c0-5.76-4.8-10.56-10.56-10.56h-174.72c-5.76 0-10.56 4.8-10.56 10.56v173.44c0 5.76 4.8 10.56 10.56 10.56h41.6c5.76 0 10.56-4.8 10.56-10.56v-67.84c47.36 52.48 120.32 81.6 199.040 67.84 85.76-15.040 155.84-83.2 172.48-168.96 26.88-137.92-78.080-258.56-211.2-258.56z" />
<glyph unicode="&#xe932;" glyph-name="plus" d="M512 960c-282.88 0-512-229.12-512-512s229.12-512 512-512 512 229.12 512 512-229.12 512-512 512zM798.72 417.92c0-23.36-18.88-42.24-42.24-42.24h-190.72v-190.72c0-23.36-18.88-42.24-42.24-42.24h-42.24c-23.36 0-42.24 18.88-42.24 42.24v190.72h-191.68c-23.36 0-42.24 18.88-42.24 42.24v42.24c0 23.36 18.88 42.24 42.24 42.24h190.72v191.36c0.32 23.36 19.2 42.24 42.56 42.24h42.24c23.36 0 42.24-18.88 42.24-42.24v-190.72h190.72c23.36 0 42.24-18.88 42.24-42.24v-42.88z" />
<glyph unicode="&#xe933;" glyph-name="reapeat" d="M768 256h-544v39.68c0 30.080-37.44 43.52-56.64 20.48l-86.4-103.68c-9.92-11.84-9.92-29.12 0-40.96l86.4-103.68c19.2-23.040 56.64-9.28 56.64 20.48v39.68h608c35.2 0 64 28.8 64 64v160c0 35.2-28.8 64-64 64v0c-35.2 0-64-28.8-64-64v-96zM224 640h576v-39.68c0-30.080 37.44-43.52 56.64-20.48l86.4 103.68c9.92 11.84 9.92 29.12 0 40.96l-86.4 103.68c-19.2 23.040-56.64 9.28-56.64-20.48v-39.68h-640c-35.2 0-64-28.8-64-64v-160c0-35.2 28.8-64 64-64v0c35.2 0 64 28.8 64 64v96z" />
<glyph unicode="&#xe934;" glyph-name="recording" d="M928 448c0-229.75-186.25-416-416-416s-416 186.25-416 416c0 229.75 186.25 416 416 416s416-186.25 416-416zM512 928c264.64 0 480-215.36 480-480s-215.36-480-480-480-480 215.36-480 480 215.36 480 480 480zM512 960c-282.88 0-512-229.12-512-512s229.12-512 512-512 512 229.12 512 512-229.12 512-512 512v0z" />
<glyph unicode="&#xe935;" glyph-name="reverse" d="M318.72 43.2c-142.72 67.52-239.36 215.68-254.72 372.8h-64c22.080-265.28 243.84-480 509.76-480 9.92 0 18.88 0.96 28.16 1.28l-162.56 162.88-56.64-56.96zM514.24 960c-9.92 0-18.88-0.96-28.16-1.6l162.56-162.56 56.64 56.64c142.72-67.2 239.36-215.36 254.72-372.48h64c-22.080 265.28-243.84 480-509.76 480zM672 352h96v256c0 53.12-42.88 96-96 96h-256v-96h256v-256zM320 256v544h-96v-96h-32v-96h32v-352c0-53.12 42.88-96 96-96h352v-32h96v32h96v96h-544z" />
<glyph unicode="&#xe936;" glyph-name="select-all" d="M156.8 768h714.24v-64h-714.24v64zM256.64 896.64h511.36v-64.64h-512zM64 640v-472.32c0-94.080 76.16-170.24 170.24-170.24h557.44c94.080 0 170.24 76.16 170.24 170.24v472.32h-897.92zM517.76 186.88c-42.88-43.2-112.64-43.2-155.84-0.32 0 0 0 0-0.32 0.32l-92.8 92.48 60.16 60.16 92.8-92.8c9.92-9.92 25.92-9.92 36.16 0l238.4 238.72 60.16-60.16-238.72-238.4z" />
<glyph unicode="&#xe937;" glyph-name="set_begin" d="M76.8 832h38.4c25.6 0 44.8-19.2 44.8-44.8v-678.4c0-25.6-19.2-44.8-44.8-44.8h-38.4c-25.6 0-44.8 19.2-44.8 44.8v678.4c0 25.6 19.2 44.8 44.8 44.8zM438.4 380.8h531.2c12.8 0 22.4 9.6 22.4 22.4v99.2c0 12.8-9.6 22.4-22.4 22.4h-531.2v80c0 38.4-44.8 57.6-73.6 28.8l-150.4-153.6c-16-16-16-44.8 0-60.8l150.4-150.4c25.6-25.6 73.6-6.4 73.6 28.8v83.2z" />
<glyph unicode="&#xe938;" glyph-name="set_end" d="M947.2 64h-38.4c-25.6 0-44.8 19.2-44.8 44.8v678.4c0 25.6 19.2 44.8 44.8 44.8h38.4c25.6 0 44.8-19.2 44.8-44.8v-678.4c0-25.6-19.2-44.8-44.8-44.8zM585.6 515.2h-531.2c-12.8 0-22.4-9.6-22.4-22.4v-99.2c0-12.8 9.6-22.4 22.4-22.4h531.2v-80c0-38.4 44.8-57.6 73.6-28.8l150.4 150.4c16 16 16 44.8 0 60.8l-150.4 150.4c-25.6 25.6-73.6 6.4-73.6-28.8v-80z" />
<glyph unicode="&#xe939;" glyph-name="signal" d="M512 864c229.44 0 416-186.56 416-416s-186.56-416-416-416-416 186.56-416 416 186.56 416 416 416zM512 928c-264.96 0-480-215.040-480-480s215.040-480 480-480 480 215.040 480 480-215.040 480-480 480v0zM864 448c0-194.404-157.596-352-352-352s-352 157.596-352 352c0 194.404 157.596 352 352 352s352-157.596 352-352z" />
<glyph unicode="&#xe93a;" glyph-name="start" d="M226.133 157.867l42.667-170.667c4.267-12.8 21.333-17.067 25.6-4.267l89.6 149.333 174.933-12.8c12.8 0 21.333 12.8 12.8 25.6l-110.933 132.267 64 162.133c4.267 12.8-8.533 25.6-17.067 17.067l-162.133-64-132.267 115.2c-8.533 8.533-25.6 0-25.6-12.8l8.533-174.933-149.333-93.867c-12.8-8.533-8.533-21.333 4.267-25.6l174.933-42.667zM857.6 473.6l115.2 29.867c8.533 4.267 8.533 12.8 4.267 17.067l-102.4 64 8.533 119.467c0 8.533-8.533 12.8-17.067 8.533l-89.6-76.8-110.933 42.667c-8.533 4.267-17.067-4.267-12.8-12.8l42.667-110.933-76.8-89.6c-4.267-8.533 0-17.067 8.533-17.067l119.467 8.533 64-102.4c4.267-8.533 17.067-4.267 17.067 4.267l29.867 115.2zM418.133 844.8l-38.4 68.267c-4.267 4.267-8.533 4.267-12.8 0l-21.333-76.8-81.067-12.8c-4.267 0-8.533-8.533-4.267-12.8l64-46.933-8.533-81.067c0-4.267 4.267-8.533 8.533-8.533l64 46.933 72.533-34.133c4.267-4.267 12.8 4.267 8.533 8.533l-25.6 76.8 59.733 59.733c4.267 4.267 0 12.8-4.267 12.8h-81.067z" />
<glyph unicode="&#xe93b;" glyph-name="step-backward" d="M32 112v672c0 12.8 9.6 22.4 22.4 22.4h73.6c12.8 0 22.4-9.6 22.4-22.4v-284.8l320 294.4c38.4 32 99.2 6.4 99.2-44.8v-246.4l320 294.4c41.6 28.8 102.4 3.2 102.4-48v-598.4c0-51.2-60.8-76.8-99.2-44.8l-320 291.2v-246.4c0-51.2-60.8-76.8-99.2-44.8l-320 291.2v-281.6c0-12.8-9.6-22.4-22.4-22.4h-76.8c-12.8-3.2-22.4 6.4-22.4 19.2z" />
<glyph unicode="&#xe93c;" glyph-name="step-forward" d="M992 784v-675.2c0-12.8-9.6-22.4-22.4-22.4h-73.6c-12.8 0-22.4 9.6-22.4 22.4v284.8l-320-294.4c-38.4-32-99.2-6.4-99.2 44.8v246.4l-320-294.4c-41.6-25.6-102.4 0-102.4 51.2v601.6c0 51.2 60.8 76.8 99.2 44.8l320-291.2v246.4c0 51.2 60.8 76.8 99.2 44.8l320-291.2v281.6c0 12.8 9.6 22.4 22.4 22.4h73.6c16 3.2 25.6-9.6 25.6-22.4z" />
<glyph unicode="&#xe93d;" glyph-name="stop" d="M889.28 928h-754.56c-56.64 0-102.72-46.080-102.72-102.72v-754.24c0-56.96 46.080-103.040 102.72-103.040h754.24c56.64 0 102.72 46.080 102.72 102.72v754.56c0.32 56.64-45.76 102.72-102.4 102.72z" />
<glyph unicode="&#xe93e;" glyph-name="sync-alt" d="M732.8 684.8c-60.8 57.6-137.6 89.6-220.8 89.6-150.4 0-278.4-102.4-313.6-246.4-3.2-9.6-12.8-19.2-22.4-19.2h-112c-16 0-25.6 12.8-22.4 28.8 41.6 220.8 236.8 390.4 470.4 390.4 128 0 246.4-51.2 332.8-134.4l67.2 70.4c28.8 28.8 80 9.6 80-32v-259.2c0-25.6-19.2-48-48-48h-259.2c-41.6 0-60.8 51.2-32 80l80 80zM80 371.2h259.2c41.6 0 60.8-51.2 32-80l-80-80c60.8-57.6 137.6-86.4 220.8-86.4 150.4 0 278.4 102.4 313.6 246.4 3.2 9.6 12.8 19.2 22.4 19.2h112c16 0 25.6-12.8 22.4-28.8-41.6-224-236.8-393.6-470.4-393.6-128 0-246.4 51.2-332.8 134.4l-67.2-70.4c-28.8-28.8-80-9.6-80 32v259.2c0 25.6 19.2 48 48 48z" />
<glyph unicode="&#xe93f;" glyph-name="trash-alt" d="M153.6 57.6c0-48 38.4-89.6 89.6-89.6v0h540.8c51.2 0 89.6 41.6 89.6 89.6v0 630.4h-720v-630.4zM662.4 537.6c0 16 12.8 28.8 28.8 28.8s28.8-12.8 28.8-28.8v-419.2c0-16-12.8-28.8-28.8-28.8s-28.8 12.8-28.8 28.8v419.2zM483.2 537.6c0 16 12.8 28.8 28.8 28.8s28.8-12.8 28.8-28.8v-419.2c0-16-12.8-28.8-28.8-28.8s-28.8 12.8-28.8 28.8v419.2zM300.8 537.6c0 16 12.8 28.8 28.8 28.8s28.8-12.8 28.8-28.8v-419.2c0-16-12.8-28.8-28.8-28.8s-28.8 12.8-28.8 28.8v419.2zM902.4 867.2h-224l-19.2 35.2c-6.4 16-22.4 25.6-41.6 25.6h-214.4c-16 0-32-9.6-41.6-25.6l-19.2-35.2h-224c-16 0-28.8-12.8-28.8-28.8v-60.8c0-16 12.8-28.8 28.8-28.8h780.8c16 0 28.8 12.8 28.8 28.8v60.8c3.2 16-9.6 28.8-25.6 28.8z" />
<glyph unicode="&#xe940;" glyph-name="twitter-brands" d="M892.8 649.6c0-9.6 0-16 0-25.6 0-259.2-198.4-560-560-560-108.8 0-214.4 32-300.8 89.6 16-3.2 32-3.2 48-3.2 92.8 0 176 32 243.2 83.2-86.4 3.2-160 57.6-182.4 137.6 12.8-3.2 25.6-3.2 38.4-3.2 19.2 0 35.2 3.2 51.2 6.4-89.6 19.2-156.8 96-156.8 192v3.2c22.4-16 54.4-22.4 86.4-25.6-54.4 35.2-86.4 96-86.4 163.2 0 35.2 9.6 70.4 25.6 99.2 96-118.4 243.2-198.4 406.4-204.8-3.2 16-6.4 28.8-6.4 44.8 0 108.8 86.4 195.2 195.2 195.2 57.6 0 108.8-22.4 144-60.8 44.8 9.6 86.4 25.6 124.8 48-16-44.8-44.8-83.2-86.4-108.8 38.4 3.2 76.8 16 112 32-22.4-38.4-57.6-73.6-96-102.4v0z" />
<glyph unicode="&#xe941;" glyph-name="unlock-solid" d="M649.6 409.6h-268.8v224c0 64 41.6 121.6 105.6 137.6 86.4 19.2 163.2-48 163.2-131.2v-54.4c0-41.6 35.2-73.6 73.6-73.6v0c41.6 0 73.6 35.2 73.6 73.6v41.6c0 150.4-115.2 284.8-265.6 294.4-163.2 12.8-300.8-118.4-300.8-281.6v-230.4h-44.8c-51.2 0-89.6-41.6-89.6-89.6v-262.4c0-48 41.6-89.6 89.6-89.6h659.2c51.2 0 89.6 41.6 89.6 89.6v262.4c3.2 48-38.4 89.6-89.6 89.6h-195.2z" />
<glyph unicode="&#xe942;" d="M512 928c-265.28 0-480-214.72-480-480s214.72-480 480-480 480 214.72 480 480-214.72 480-480 480z" />
<glyph unicode="&#xe943;" d="M81.28 324.48c8.32 7.36 77.44-163.2 115.84-154.56 0 0 0.32 0 0.32 0 25.92 5.76 55.040 12.16 90.88 22.4 7.040 1.92 14.72 4.16 22.080 6.4 39.68 12.16 63.36 23.040 84.16 32.64s38.72 17.92 64 23.040c40.32 8.32 84.16 13.76 126.4 18.56 16.96 1.92 34.88 4.16 51.84 6.4 19.52 2.56 37.44 3.52 53.12 4.48 43.2 2.56 66.56 4.8 85.44 24.96l0.32 0.32c55.040 59.2 67.2 89.92 67.52 98.24-7.36 8.64-44.16 28.8-117.44 50.56-3.2 0.96-6.080 1.6-8.32 2.24-18.56 4.8-28.8 10.56-39.36 32.32-5.76 12.16-9.92 21.76-13.44 29.76-10.88 25.6-10.88 25.6-44.16 41.28-36.8 17.28-58.88 25.6-73.6 31.040-33.92 12.48-40 18.88-50.88 51.2-1.6 4.8-3.52 10.24-5.76 16.96-7.36 20.48-20.48 57.28-28.8 68.16-3.2-1.92-9.92-6.080-21.12-16.64-10.88-9.92-16.32-16.96-20.48-22.72-13.12-17.6-24-25.28-54.4-25.28h-2.88c-21.12 0.32-42.24 0.96-62.4 1.6-10.56 0.64-21.44 1.28-32.32 1.28-157.44 4.16-134.080 0.32-211.84-139.52l25.28-205.12z" />
<glyph unicode="&#xe944;" d="M512 832c211.84 0 384.32-172.48 384.32-384.32s-172.48-384.32-384.32-384.32-384.32 172.48-384.32 384.32 172.48 384.32 384.32 384.32zM512 928c-265.28 0-480.32-215.040-480.32-480.32s215.040-480.32 480.32-480.32 480.32 215.040 480.32 480.32-215.040 480.32-480.32 480.32v0z" />
<glyph unicode="&#xe945;" d="M516.48 477.76c0-23.682-19.198-42.88-42.88-42.88s-42.88 19.198-42.88 42.88c0 23.682 19.198 42.88 42.88 42.88s42.88-19.198 42.88-42.88z" />
<glyph unicode="&#xe946;" d="M512 928c-265.28 0-480-214.72-480-480s214.72-480 480-480 480 214.72 480 480-214.72 480-480 480z" />
<glyph unicode="&#xe947;" d="M564.8 16.96c45.44 34.24 98.24 169.92 98.24 274.24v179.84l216 35.84c0 79.68-96.64 144-216 144h-36.8c-32.96 43.84-84.48 72.32-143.040 72.32-99.52 0-179.84-80.64-179.84-179.84v-47.040c0 0-157.44-121.6-213.44-168-88.32-72.96 393.28-372.8 474.88-311.36zM483.2 489.28c-29.76 0-54.080 24.32-54.080 54.080s24.32 54.080 54.080 54.080 54.080-24.32 54.080-54.080c-0.32-30.080-24.32-54.080-54.080-54.080z" />
<glyph unicode="&#xe948;" d="M512 832c211.84 0 384.32-172.48 384.32-384.32s-172.48-384.32-384.32-384.32-384.32 172.48-384.32 384.32 172.48 384.32 384.32 384.32zM512 928c-265.28 0-480.32-215.040-480.32-480.32s215.040-480.32 480.32-480.32 480.32 215.040 480.32 480.32-215.040 480.32-480.32 480.32v0z" />
<glyph unicode="&#xe949;" d="M512 928c-265.28 0-480-214.72-480-480s214.72-480 480-480 480 214.72 480 480-214.72 480-480 480z" />
<glyph unicode="&#xe94a;" d="M66.88 490.88c52.16-184.96 220.16-507.2 241.28-427.52 15.36 57.92 39.36 103.040 64.32 95.68 73.28-21.12 99.52 79.040 188.16 26.56 55.68-32.96 86.080-37.12 111.040-34.56 47.68 4.8 72.96 61.76 77.12 79.68 53.12-10.88 61.12 60.48 55.36 107.84-17.92-28.8-34.88-36.8-49.92-34.56-34.88 5.76-53.44 87.040-57.92 121.92-8.32 64.96-37.44 152.96-15.68 211.52 15.040 40.96 26.24 57.28 19.52 112.32-2.88 22.72-46.4-49.28-98.24-29.12-88.32 33.92-168.96 95.36-260.8 142.4-54.080 27.84-274.24-372.16-274.24-372.16zM514.56 639.040c-2.56-3.84-24.64-33.92-35.2-13.12-27.52 54.4-57.92 20.48-44.48-5.76 23.68-45.76-34.56-30.080-37.12-22.4-14.72 42.88-6.080 72 13.12 109.76 41.6 1.92 121.28-40.32 103.68-68.48zM547.52 480.64c1.28-4.16-53.76 0.96-56.64 4.48-49.92 58.24 32.32 67.2 56.64-4.48zM593.6 275.2c-9.6-53.76-42.24-49.28-66.56-38.080s-41.28 42.88-17.28 104.32c13.44-35.2 42.56-69.12 83.84-66.24z" />
<glyph unicode="&#xe94b;" d="M512 832c211.84 0 384.32-172.48 384.32-384.32s-172.48-384.32-384.32-384.32-384.32 172.48-384.32 384.32 172.48 384.32 384.32 384.32zM512 928c-265.28 0-480.32-215.040-480.32-480.32s215.040-480.32 480.32-480.32 480.32 215.040 480.32 480.32-215.040 480.32-480.32 480.32v0z" />
<glyph unicode="&#xe94c;" glyph-name="user-circle" d="M512 928c-265.28 0-480-214.72-480-480s214.72-480 480-480 480 214.72 480 480-214.72 480-480 480zM512 742.080c94.080 0 170.24-76.16 170.24-170.24s-76.16-170.24-170.24-170.24-170.24 76.16-170.24 170.24 76.16 170.24 170.24 170.24zM512 76.48c-113.6 0-215.36 51.52-283.52 132.16 36.48 68.48 107.52 115.84 190.72 115.84 4.8 0 9.28-0.64 13.76-2.24 25.28-8 51.52-13.44 79.040-13.44s54.080 5.12 79.040 13.44c4.48 1.28 8.96 2.24 13.76 2.24 82.88 0 154.24-47.36 190.72-115.84-68.16-80.64-169.92-132.16-283.52-132.16z" />
<glyph unicode="&#xe94d;" d="M512 928c-265.28 0-480-214.72-480-480s214.72-480 480-480 480 214.72 480 480-214.72 480-480 480z" />
<glyph unicode="&#xe94e;" d="M473.6 643.2c-41.92 0-79.36-9.28-112-23.040-4.48 79.36-32.64 139.84-60.48 139.84-37.44 0-60.48-112-65.28-177.28-23.36-205.12 74.56-400.96 303.040-410.24 139.84-9.28 284.48 56 344.96 172.48v102.4c0 27.84-23.36 51.2-56 51.2h-135.040c-28.16 84.16-116.8 144.64-219.2 144.64zM576 512.64c27.84 0 46.72-23.36 46.72-46.72 0-27.84-18.56-46.72-46.72-46.72s-46.72 18.56-46.72 46.72c0.32 23.68 18.88 46.72 46.72 46.72zM127.68 227.84l127.36-119.68 263.36-100.8c-1.6 36.8-0.96 73.28 1.6 109.44-144.32 9.28-270.080 88.64-307.52 214.4-26.56-36.16-55.040-70.080-84.8-103.36z" />
<glyph unicode="&#xe94f;" d="M512 832c211.84 0 384.32-172.48 384.32-384.32s-172.48-384.32-384.32-384.32-384.32 172.48-384.32 384.32 172.48 384.32 384.32 384.32zM512 928c-265.28 0-480.32-215.040-480.32-480.32s215.040-480.32 480.32-480.32 480.32 215.040 480.32 480.32-215.040 480.32-480.32 480.32v0z" />
<glyph unicode="&#xe950;" glyph-name="user-dragon" d="M630.4 515.2c22.4 0 38.4 12.8 44.8 35.2l-86.4 22.4c-6.4-32 16-54.4 41.6-57.6zM864 124.8c9.6 9.6 19.2 22.4 28.8 35.2 0 3.2 3.2 3.2 3.2 6.4 9.6 9.6 16 22.4 22.4 35.2 3.2 3.2 3.2 6.4 3.2 6.4 6.4 9.6 12.8 22.4 19.2 35.2 3.2 3.2 3.2 6.4 6.4 9.6 6.4 9.6 9.6 22.4 12.8 35.2 3.2 3.2 3.2 9.6 6.4 12.8 3.2 9.6 6.4 22.4 9.6 35.2 0 6.4 3.2 9.6 3.2 16 3.2 12.8 3.2 22.4 6.4 35.2 0 6.4 3.2 9.6 3.2 16 3.2 9.6 3.2 28.8 3.2 44.8 0 265.6-214.4 480-480 480s-480-214.4-480-480c0-16 0-32 3.2-48 0-6.4 0-9.6 3.2-16 0-9.6 3.2-19.2 3.2-28.8 0-6.4 3.2-12.8 3.2-19.2 3.2-9.6 3.2-16 6.4-25.6 3.2-6.4 3.2-12.8 6.4-19.2s6.4-16 9.6-22.4c3.2-6.4 6.4-12.8 9.6-19.2s6.4-12.8 9.6-19.2c0-6.4 3.2-12.8 9.6-19.2 3.2-6.4 6.4-12.8 9.6-16 3.2-6.4 9.6-12.8 12.8-19.2s6.4-12.8 9.6-16c6.4-6.4 9.6-16 16-22.4 0 0 3.2-3.2 3.2-3.2 35.2-38.4 76.8-73.6 121.6-99.2 0 0 3.2 0 3.2-3.2 9.6-6.4 22.4-12.8 32-16 0 0 3.2 0 3.2-3.2 12.8-6.4 22.4-9.6 35.2-12.8 0 0 3.2 0 3.2-3.2 12.8-3.2 25.6-9.6 35.2-12.8 0 0 3.2 0 3.2 0 38.4-9.6 80-16 121.6-16 121.6 0 230.4 44.8 316.8 118.4v0c0 0 0 0 0 0 19.2 12.8 28.8 22.4 41.6 38.4 0-3.2 0-3.2 0 0zM355.2 96c-16 44.8-25.6 96-25.6 147.2v208l-115.2 48c-12.8 6.4-12.8 22.4 0 28.8l115.2 48-118.4 96c-3.2 3.2-3.2 6.4-3.2 6.4 3.2 6.4 9.6 12.8 12.8 19.2h457.6c19.2 0 35.2-9.6 48-25.6l144-188.8c16-19.2 16-44.8 6.4-64l-28.8-54.4c-9.6-22.4-32-35.2-54.4-35.2h-60.8c-19.2 0-32 6.4-44.8 19.2l-54.4 44.8h-121.6v-70.4c0-35.2 19.2-67.2 51.2-83.2l185.6-92.8c-64-51.2-147.2-83.2-236.8-83.2-54.4 0-108.8 12.8-156.8 32z" />
<glyph unicode="&#xe951;" d="M512 928c-265.28 0-480-214.72-480-480s214.72-480 480-480 480 214.72 480 480-214.72 480-480 480z" />
<glyph unicode="&#xe952;" d="M264.96 525.76v0l1.92 2.56 4.16 6.080c5.12 7.040 10.56 13.76 16 20.16 1.28 1.6 3.2 3.84 5.12 6.080l1.6 1.6c0.96 1.28 1.92 2.24 2.88 3.2 1.92 1.92 4.16 4.48 6.72 6.72l3.84 3.84c1.92 1.92 3.84 3.52 6.080 5.44s3.84 3.52 6.4 5.44c5.44 4.8 11.2 9.28 16.64 12.48l3.52 2.56c4.8 3.2 9.6 6.4 14.4 9.6l3.52 2.24-102.080 103.36c-3.84 3.52-9.28 4.48-13.76 2.56-4.8-1.92-7.68-6.4-7.68-11.52v-129.92c-0.32-24 7.36-47.040 21.76-66.24l8.96 13.76z" />
<glyph unicode="&#xe953;" d="M669.76 612.8c5.12-3.2 9.92-6.4 14.4-9.6l3.52-2.56c5.44-4.16 11.2-8.32 16.96-13.44 2.24-1.92 4.16-3.84 6.4-5.76 1.6-1.28 3.52-2.88 5.44-4.8l4.48-4.48c2.24-2.24 4.48-4.48 6.72-7.040l2.88-3.2 0.96-0.96c1.92-2.24 4.16-4.48 5.76-6.72 5.44-6.080 10.56-12.8 15.36-19.52l4.16-6.080 11.2-16.64c14.080 18.88 21.76 42.24 21.76 65.92v129.92c0 5.12-3.2 9.6-7.68 11.52-4.8 1.92-10.24 0.96-13.76-2.56l-102.080-102.080 1.6-0.96 1.92-0.96z" />
<glyph unicode="&#xe954;" d="M840.64 356.8c0 0.96-0.32 1.6-0.96 2.56-0.32 0.64-0.64 1.28-0.96 1.6v0l-88.32 132.16-12.48 19.84-0.96 1.28c-5.76 8.32-11.84 16.32-18.24 24-1.92 2.56-4.16 4.8-6.4 7.36l-1.92 1.92-6.72 7.040c-0.96 0.96-1.92 2.24-3.2 2.88-1.92 1.92-3.52 3.52-5.44 4.8-1.92 1.92-3.84 3.52-5.76 5.12-6.080 5.12-12.48 10.24-18.56 14.72-4.16 2.88-8.64 6.080-12.48 8.64-3.84 2.88-5.76 3.52-8.64 5.12-41.6 24.32-88.96 36.8-136.96 35.84-47.68 0.64-94.72-11.84-136-35.52l-8.64-5.12c-4.48-2.88-8.96-5.76-12.48-8.64-6.4-4.48-12.48-9.6-18.56-14.72-1.92-1.6-3.84-3.52-5.76-5.12l-5.44-4.8c-0.96-0.96-2.24-1.92-3.2-2.88l-6.72-7.040-1.92-1.92c-2.24-2.56-4.48-4.8-6.4-7.36-6.72-7.68-12.8-15.68-18.24-24l-0.96-1.28-12.48-19.84-89.6-131.84c-0.32-0.64-0.64-0.96-0.96-1.6s-0.64-1.6-0.96-2.56c-0.64-0.96-0.96-2.24-0.96-3.2s0-2.24 0-3.2c0.32-0.96 0.64-2.24 1.28-2.88 0.32-0.64 0.96-1.28 1.28-1.92s0.64-0.96 1.28-1.28l2.56-1.92 50.56-26.24c95.040-49.28 153.92-96.64 173.12-192 7.040-35.52 38.4-61.12 74.56-61.12h48c36.16 0 67.2 25.6 74.24 60.8 7.68 43.2 28.48 83.2 59.52 114.56 25.28 26.56 59.84 49.6 113.6 77.76l50.56 26.24 2.56 1.92c0.64 0.32 0.96 0.96 1.28 1.28 0.64 0.64 0.96 1.28 1.28 1.92 0.64 0.96 0.96 1.92 1.28 2.88s0.32 2.24 0 3.2c0.32 0.64 0.32 1.6 0.32 2.56zM491.52 139.2h40.64c2.88-0.32 5.12-3.2 4.8-6.080 0-2.24-0.96-4.48-2.88-5.76l-22.080-11.84-22.080 11.84c-1.92 1.28-3.2 3.52-2.88 5.76-0.64 2.88 1.6 5.76 4.48 6.080zM771.52 338.88c-44.16-21.12-85.12-48.96-120.64-82.56-34.24-34.88-56.96-79.36-65.92-127.36-2.24-11.52-8.32-21.76-17.28-29.12s-20.48-11.2-32-11.52h-47.36c-11.52 0-23.040 4.16-32 11.52s-15.36 17.92-17.6 29.44c-21.12 104.96-86.72 158.080-186.24 209.6l-29.76 15.040 121.28 68.48c30.72 17.28 69.12 12.16 94.4-12.48 14.72-14.72 23.040-34.88 23.040-55.68v-220.8c0-11.52 6.080-22.4 16.32-27.84l28.16-15.040c3.84-1.92 8.32-1.92 11.84 0l28.16 15.040c10.24 5.44 16.64 16.32 16.32 27.84v220.8c0 20.8 8.32 40.96 23.040 55.68 24.96 24.64 63.68 29.76 94.4 12.48l121.28-68.48-29.44-15.040z" />
<glyph unicode="&#xe955;" d="M423.36 347.84c0-10.427-8.453-18.88-18.88-18.88s-18.88 8.453-18.88 18.88c0 10.427 8.453 18.88 18.88 18.88s18.88-8.453 18.88-18.88z" />
<glyph unicode="&#xe956;" d="M638.4 347.84c0-10.427-8.453-18.88-18.88-18.88s-18.88 8.453-18.88 18.88c0 10.427 8.453 18.88 18.88 18.88s18.88-8.453 18.88-18.88z" />
<glyph unicode="&#xe957;" d="M512 832c211.84 0 384.32-172.48 384.32-384.32s-172.48-384.32-384.32-384.32-384.32 172.48-384.32 384.32 172.48 384.32 384.32 384.32zM512 928c-265.28 0-480.32-215.040-480.32-480.32s215.040-480.32 480.32-480.32 480.32 215.040 480.32 480.32-215.040 480.32-480.32 480.32v0z" />
<glyph unicode="&#xe958;" d="M512 928c-265.28 0-480-214.72-480-480s214.72-480 480-480 480 214.72 480 480-214.72 480-480 480z" />
<glyph unicode="&#xe959;" d="M93.44 263.36c0 0 169.28-53.44 307.2-4.48 0 0 17.6-27.52 3.2-51.2 0 0-23.68-37.44 18.24-43.52 0 0 35.84-6.72 59.52 9.28 0 0 37.44 15.36 78.4-11.52 0 0 112.64-70.72 135.040-45.12 0 0 25.92 21.44-61.12 50.24 0 0 41.28 36.48 112.96 13.12 0 0 16-2.24 29.44 3.52 10.88 4.8 15.36 17.6 10.56 28.16-5.12 10.88-17.92 21.76-50.24 16.96 0 0-170.88-30.080-224.32 70.080 0 0 171.84 89.6 251.84 145.6-85.12-28.48-178.88-56.64-235.84-69.44-89.6-18.88-199.68-32.32-285.76-3.2 89.6-8 194.24 10.24 282.88 30.080 60.48 13.12 175.040 44.16 273.92 71.36 9.28 10.24 37.12 45.12 20.8 83.52-25.6 61.12-115.84 25.28-141.44 69.76 0 0-39.68 71.040-107.52 24.32 0 0-71.68-57.28-198.4-57.92-1.6-0.32-149.12-7.36-288.96-28.16-115.84-17.28 7.36-347.52 9.6-301.44zM640.96 592.64c0-22.4-18.24-40.96-40.96-40.96s-40.96 18.24-40.96 40.96c0.32 53.76 81.92 53.76 81.92 0zM773.44 533.44c-8 0-14.72 6.4-14.72 14.72 0 8 6.4 14.72 14.72 14.72 19.52-0.32 19.52-29.44 0-29.44z" />
<glyph unicode="&#xe95a;" d="M512 832c211.84 0 384.32-172.48 384.32-384.32s-172.48-384.32-384.32-384.32-384.32 172.48-384.32 384.32 172.48 384.32 384.32 384.32zM512 928c-265.28 0-480.32-215.040-480.32-480.32s215.040-480.32 480.32-480.32 480.32 215.040 480.32 480.32-215.040 480.32-480.32 480.32v0z" />
<glyph unicode="&#xe95b;" d="M512 928c-265.28 0-480-214.72-480-480s214.72-480 480-480 480 214.72 480 480-214.72 480-480 480z" />
<glyph unicode="&#xe95c;" d="M967.36 390.080c-0.64 77.44-27.84 37.12-27.84 37.12-144-244.16-338.88-146.56-221.76 92.16 73.6 149.44-76.48 244.48-174.080 246.080-110.4 3.84-190.080-80-190.4-198.72-2.88-68.8-42.24-117.76-42.24-117.76-88.96-96.96-148.8-3.52-148.8-3.52-58.88 103.36-27.52 142.080-42.56 187.2s-11.52-387.2-11.52-387.2c115.84-125.44 400.96-298.88 414.4-245.44 154.24 63.36 296 109.76 296 109.76 185.28 124.16 148.8 280.32 148.8 280.32zM645.44 632.32c17.6-7.68 24.32-32 15.040-52.48s-31.68-31.36-48.96-23.68-21.44 30.72-12.16 50.88c6.080 22.080 28.8 32.96 46.080 25.28zM528 509.76c24-8.64 26.56-49.6 12.48-89.6-14.080-39.68-44.8-69.12-65.92-61.76s-26.56 49.6-12.48 89.6c14.080 39.68 41.92 70.080 65.92 61.76zM447.68 636.48c9.28 20.48 31.68 31.36 46.080 24.96 17.6-7.68 21.44-30.72 12.16-50.88-9.28-20.48-31.68-31.36-46.080-24.96s-21.44 30.72-12.16 50.88z" />
<glyph unicode="&#xe95d;" d="M512 832c211.84 0 384.32-172.48 384.32-384.32s-172.48-384.32-384.32-384.32-384.32 172.48-384.32 384.32 172.48 384.32 384.32 384.32zM512 928c-265.28 0-480.32-215.040-480.32-480.32s215.040-480.32 480.32-480.32 480.32 215.040 480.32 480.32-215.040 480.32-480.32 480.32v0z" />
<glyph unicode="&#xe95e;" d="M512 928c-265.6 0-480-214.4-480-480s214.4-480 480-480 480 214.4 480 480-214.4 480-480 480z" />
<glyph unicode="&#xe95f;" d="M451.84-4.16c37.12 0 61.44 39.040 44.8 72.32l-64 128v0.96c-71.36 5.44-132.48 48-163.2 108.8-2.56 4.8-1.28 10.88 2.56 14.4l18.88 18.88c6.080 6.080 16.64 4.16 20.16-3.84 23.040-52.8 75.52-89.92 136.64-89.92 26.88 0 51.52 8 73.28 20.8l72-100.16c9.28-13.12 24.64-20.8 40.64-20.8h78.72c13.44 0 25.92 5.44 35.52 14.72l71.040 62.4c14.080 14.4 18.24 35.52 11.2 53.76v0l-109.44 257.28c-23.36 64.64-79.040 111.040-145.6 123.84 28.16 16.64 72.32 56.32 53.44 128.96-1.92 7.68-11.2 12.48-18.88 9.6l-316.48-118.4c-126.72-45.44-196.8-132.16-231.68-250.88l118.72-296.96 271.68-133.76zM545.28 446.72c-20.8 0-37.44 16.64-37.44 37.44s16.64 37.44 37.44 37.44 37.44-16.64 37.44-37.44c0.32-20.8-16.64-37.44-37.44-37.44z" />
<glyph unicode="&#xe960;" d="M512 832c211.2 0 384-172.8 384-384s-172.8-384-384-384-384 172.8-384 384 172.8 384 384 384zM512 928c-265.6 0-480-214.4-480-480s214.4-480 480-480 480 214.4 480 480-214.4 480-480 480v0z" />
<glyph unicode="&#xe961;" d="M512 928c-265.6 0-480-214.4-480-480s214.4-480 480-480 480 214.4 480 480-214.4 480-480 480z" />
<glyph unicode="&#xe962;" d="M545.6 742.080c-80 41.92-179.52 7.040-225.6-70.4l-7.36-12.16c-40.32-67.52-100.16-120.96-171.84-153.92-30.4-14.080-58.56-33.28-82.88-57.6-31.040-31.040 150.72-312 150.72-312 6.72 11.2 253.12-92.8 253.12-92.8 16.64 16.64 32 35.52 44.48 56.64 4.16 7.040 7.36 14.080 10.56 21.44l63.040-37.44c11.2-6.72 25.92-2.88 32.64 8.32l12.16 20.48c6.72 11.2 2.88 25.92-8.32 32.64l-76.16 45.12c4.48 22.080 6.72 44.48 5.76 66.56-3.2 81.28 11.52 162.24 53.12 232 19.52 32.64 11.84 20.8 16.64 30.080l231.36-8.64c8.96-0.32 16.96 4.16 21.44 11.52 0.96 1.6 1.92 3.52 2.24 5.44 3.2 10.56-1.28 21.76-10.56 27.2 0.32 0.32-307.2 183.36-314.56 187.52zM498.56 576c-10.24-16.96-32-22.4-48.96-12.48-16.96 10.24-22.4 32-12.48 48.96s32 22.4 48.96 12.48c17.28-9.92 22.72-32 12.48-48.96zM755.84 561.6l-123.84 4.8c4.16 23.68 3.2 48-2.88 70.72l126.72-75.52z" />
<glyph unicode="&#xe963;" d="M512 832c211.2 0 384-172.8 384-384s-172.8-384-384-384-384 172.8-384 384 172.8 384 384 384zM512 928c-265.6 0-480-214.4-480-480s214.4-480 480-480 480 214.4 480 480-214.4 480-480 480v0z" />
<glyph unicode="&#xe964;" d="M512 928c-265.28 0-480-214.72-480-480s214.72-480 480-480 480 214.72 480 480-214.72 480-480 480z" />
<glyph unicode="&#xe965;" d="M512 872.64c-223.040 0-403.84-193.28-403.84-431.040s180.8-430.72 403.84-430.72c223.040 0 403.84 193.28 403.84 431.040s-180.8 430.72-403.84 430.72zM324.8 247.36c-14.72 8.64-23.040-5.76-8-15.36 115.52-73.6 258.56-74.56 387.84-1.28 18.24 10.24 10.24 25.6-6.72 16-56.32-30.080-112.64-54.4-186.88-53.12-62.080 0-124.48 17.6-186.24 53.76zM665.92 529.6c-20.48 0-20.48-31.040 0-31.040s20.48 31.040 0 31.040zM384.96 524.16c-20.48 0-20.48-31.040 0-31.040s20.48 31.040 0 31.040zM341.44 573.44c36.48 0 66.24-29.44 66.24-66.24 0-36.48-29.76-66.24-66.24-66.24s-66.24 29.76-66.24 66.24c0.32 36.8 29.76 66.24 66.24 66.24zM644.8 571.52c36.48 0 66.24-29.76 66.24-66.24s-29.76-66.24-66.24-66.24c-36.48 0-66.24 29.76-66.24 66.24s29.76 66.24 66.24 66.24zM683.84 678.080c87.36 12.8 159.68-68.16 159.68-152.64 0-63.040-40-116.8-96.64-140.16 71.36-185.6-39.040-317.76-237.44-313.6-185.6 4.16-315.52 135.040-233.92 314.56-55.68 24-94.4 77.12-94.4 139.2 0 84.16 72.64 167.040 159.68 152.64 219.2-36.48 122.24-32.32 343.040 0v0z" />
<glyph unicode="&#xe966;" d="M512 832c211.84 0 384.32-172.48 384.32-384.32s-172.48-384.32-384.32-384.32-384.32 172.48-384.32 384.32 172.48 384.32 384.32 384.32zM512 928c-265.28 0-480.32-215.040-480.32-480.32s215.040-480.32 480.32-480.32 480.32 215.040 480.32 480.32-215.040 480.32-480.32 480.32v0z" />
<glyph unicode="&#xe967;" d="M512 928c-265.28 0-480-214.72-480-480s214.72-480 480-480 480 214.72 480 480-214.72 480-480 480z" />
<glyph unicode="&#xe969;" d="M146.56 67.52l-21.44 16-1.28-12.48c0.64 0 9.28-0.96 22.72-3.52z" />
<glyph unicode="&#xe96a;" d="M306.24-52.16c0.32-3.2 0.64-6.4 0.64-9.92h12.8l-13.44 9.92z" />
<glyph unicode="&#xe96b;" d="M175.040 173.76l179.52-117.76h83.2c0 2.56 0 5.12-0.32 7.68-6.080 63.040-86.4 85.12-122.88 92.16-10.24 1.92-16.96 2.56-17.28 2.56l1.92 19.2c6.4-0.64 158.080-16 158.080-121.6h226.88c0 0-0.32 102.4-48.64 181.44l1.92 5.12c94.4-18.88 183.36 9.92 220.48 79.68 48.32 91.2-10.88 217.6-132.48 282.24-56.96 30.080-117.12 41.28-170.56 35.52-42.56 39.68-104.96 82.56-184 121.92-97.92 48.96-84.8 44.8-154.24 44.8-39.36 0-77.12-153.92-38.080-179.2 29.76-19.2 62.080-37.76 96.64-55.040 43.52-21.76 87.36-39.040 128.96-51.52-1.6-6.72-2.56-13.76-3.2-20.8-43.2 13.12-88.96 31.36-134.4 53.76-50.24 24.96-96.32 52.48-135.68 81.6-9.28 0.96-20.8 7.68-27.2 1.6-76.16-74.56-24.64-323.52 71.36-463.36zM708.48 448c-19.84 0-35.52 16-35.52 35.52s16 35.52 35.52 35.52c19.84 0 35.52-16 35.52-35.52s-16-35.52-35.52-35.52z" />
<glyph unicode="&#xe96c;" d="M512 832c211.84 0 384.32-172.48 384.32-384.32s-172.48-384.32-384.32-384.32-384.32 172.48-384.32 384.32 172.48 384.32 384.32 384.32zM512 928c-265.28 0-480.32-215.040-480.32-480.32s215.040-480.32 480.32-480.32 480.32 215.040 480.32 480.32-215.040 480.32-480.32 480.32v0z" />
<glyph unicode="&#xe96d;" d="M512 928c-265.28 0-480-214.72-480-480s214.72-480 480-480 480 214.72 480 480-214.72 480-480 480z" />
<glyph unicode="&#xe96e;" d="M140.16 244.16c183.36 57.6 288.32 149.76 316.8 177.28-42.24 69.76-139.52 204.16-297.92 276.8l-103.040-209.6 84.16-244.48z" />
<glyph unicode="&#xe96f;" d="M397.76 32c224.32 121.92 393.6 466.56 393.6 466.56l54.4 14.080c0 0 38.4 121.92-99.2 205.12 0 0-136 67.52-170.88-89.28s-17.92-180.16-96.64-247.36c-50.56-42.88-152.64-125.12-320-178.56l238.72-170.56zM706.24 637.12c20.16 0 36.48-16.32 36.48-36.48s-16.32-36.48-36.48-36.48c-20.16 0-36.48 16.32-36.48 36.48-0.32 20.16 16.32 36.48 36.48 36.48z" />
<glyph unicode="&#xe970;" d="M512 832c211.84 0 384.32-172.48 384.32-384.32s-172.48-384.32-384.32-384.32-384.32 172.48-384.32 384.32 172.48 384.32 384.32 384.32zM512 928c-265.28 0-480.32-215.040-480.32-480.32s215.040-480.32 480.32-480.32 480.32 215.040 480.32 480.32-215.040 480.32-480.32 480.32v0z" />
<glyph unicode="&#xe971;" d="M512 928c-265.28 0-480-214.72-480-480s214.72-480 480-480 480 214.72 480 480-214.72 480-480 480z" />
<glyph unicode="&#xe972;" d="M84.48 296c84.48-85.44 286.080-197.12 468.8-144.32 93.76 24 177.28 82.56 228.8 153.92-19.84 3.84-36.8 8.32-49.28 29.76 25.6-1.92 60.8-4.48 78.4 22.72 26.24 61.12 28.16 130.56-1.28 200.64-76.8 178.88-287.68 224.64-428.48 102.72s-197.76-327.040-248.32-281.92c-53.76 43.52-129.92 2.88-48.64-83.52z" />
<glyph unicode="&#xe973;" d="M512 832c211.84 0 384.32-172.48 384.32-384.32s-172.48-384.32-384.32-384.32-384.32 172.48-384.32 384.32 172.48 384.32 384.32 384.32zM512 928c-265.28 0-480.32-215.040-480.32-480.32s215.040-480.32 480.32-480.32 480.32 215.040 480.32 480.32-215.040 480.32-480.32 480.32v0z" />
<glyph unicode="&#xe974;" d="M757.12 450.24c0-29.514-23.926-53.44-53.44-53.44s-53.44 23.926-53.44 53.44c0 29.514 23.926 53.44 53.44 53.44s53.44-23.926 53.44-53.44z" />
<glyph unicode="&#xe975;" glyph-name="webcam" d="M592.32 768h-480.64c-44.16 0-79.68-35.52-79.68-79.68v-480.64c0-44.16 35.52-79.68 79.68-79.68h480.64c44.16 0 79.68 35.52 79.68 79.68v480.64c0 44.16-35.52 79.68-79.68 79.68v0zM907.84 705.28l-182.72-126.080v-262.4l182.72-125.76c35.2-24.32 84.16 0.64 84.16 42.88v428.16c0 42.56-48.64 67.52-84.16 43.2z" />
<glyph unicode="&#xe976;" glyph-name="youtube-brands" d="M972.8 691.2c-12.8 41.6-44.8 76.8-86.4 86.4-73.6 22.4-374.4 22.4-374.4 22.4s-300.8 0-374.4-22.4c-41.6-9.6-73.6-44.8-86.4-86.4-19.2-80-19.2-243.2-19.2-243.2s0-163.2 19.2-243.2c12.8-44.8 44.8-76.8 86.4-86.4 73.6-22.4 374.4-22.4 374.4-22.4s300.8 0 374.4 22.4c41.6 9.6 73.6 41.6 86.4 86.4 19.2 80 19.2 243.2 19.2 243.2s0 163.2-19.2 243.2zM412.8 297.6v297.6l249.6-150.4-249.6-147.2z" />
</font>
</defs>
</svg>
